<?xml version="1.0" encoding="UTF-8" standalone="no"?>
<!DOCTYPE svg PUBLIC "-//W3C//DTD SVG 1.1//EN"
 "http://www.w3.org/Graphics/SVG/1.1/DTD/svg11.dtd">
<!-- Generated by graphviz version 7.1.0 (20230121.1956)
 -->
<!-- Title: src/fcexceptions.hpp Pages: 1 -->
<svg width="164pt" height="82pt"
 viewBox="0.00 0.00 164.00 82.00" xmlns="http://www.w3.org/2000/svg" xmlns:xlink="http://www.w3.org/1999/xlink">
<g id="graph0" class="graph" transform="scale(1 1) rotate(0) translate(4 78)">
<title>src/fcexceptions.hpp</title>
<!-- Node1 -->
<g id="node1" class="node">
<title>Node1</title>
<g id="a_node1"><a xlink:title=" ">
<polygon fill="#999999" stroke="#666666" points="136,-74 14,-74 14,-55 136,-55 136,-74"/>
<text text-anchor="middle" x="75" y="-62" font-family="Consolas" font-size="10.00">src/fcexceptions.hpp</text>
</a>
</g>
</g>
<!-- Node2 -->
<g id="node2" class="node">
<title>Node2</title>
<g id="a_node2"><a xlink:title=" ">
<polygon fill="#e0e0e0" stroke="#999999" points="64,-19 0,-19 0,0 64,0 64,-19"/>
<text text-anchor="middle" x="32" y="-7" font-family="Consolas" font-size="10.00">exception</text>
</a>
</g>
</g>
<!-- Node1&#45;&gt;Node2 -->
<g id="edge1" class="edge">
<title>Node1&#45;&gt;Node2</title>
<path fill="none" stroke="#63b8ff" d="M67.9,-54.75C62.08,-47.58 53.67,-37.2 46.44,-28.3"/>
<polygon fill="#63b8ff" stroke="#63b8ff" points="49.23,-26.18 40.21,-20.62 43.79,-30.59 49.23,-26.18"/>
</g>
<!-- Node3 -->
<g id="node3" class="node">
<title>Node3</title>
<g id="a_node3"><a xlink:href="$db/d91/fcenums_8hpp.html" xlink:title=" ">
<polygon fill="white" stroke="#666666" points="156,-19 82,-19 82,0 156,0 156,-19"/>
<text text-anchor="middle" x="119" y="-7" font-family="Consolas" font-size="10.00">fcenums.hpp</text>
</a>
</g>
</g>
<!-- Node1&#45;&gt;Node3 -->
<g id="edge2" class="edge">
<title>Node1&#45;&gt;Node3</title>
<path fill="none" stroke="#63b8ff" d="M82.27,-54.75C88.28,-47.5 97.01,-36.98 104.46,-28.02"/>
<polygon fill="#63b8ff" stroke="#63b8ff" points="106.92,-30.54 110.61,-20.61 101.53,-26.07 106.92,-30.54"/>
</g>
</g>
</svg>
