<?xml version="1.0" encoding="UTF-8" standalone="no"?>
<!DOCTYPE svg PUBLIC "-//W3C//DTD SVG 1.1//EN"
 "http://www.w3.org/Graphics/SVG/1.1/DTD/svg11.dtd">
<!-- Generated by graphviz version 7.1.0 (20230121.1956)
 -->
<!-- Title: fcSyntaxException Pages: 1 -->
<svg width="177pt" height="309pt"
 viewBox="0.00 0.00 177.00 309.00" xmlns="http://www.w3.org/2000/svg" xmlns:xlink="http://www.w3.org/1999/xlink">
<g id="graph0" class="graph" transform="scale(1 1) rotate(0) translate(4 305)">
<title>fcSyntaxException</title>
<!-- Node1 -->
<g id="node1" class="node">
<title>Node1</title>
<g id="a_node1"><a xlink:title=" ">
<polygon fill="#999999" stroke="#666666" points="8,-0.5 8,-79.5 161,-79.5 161,-0.5 8,-0.5"/>
<text text-anchor="middle" x="84.5" y="-67.5" font-family="Consolas" font-size="10.00">fcSyntaxException</text>
<polyline fill="none" stroke="#666666" points="8,-60.5 161,-60.5"/>
<text text-anchor="middle" x="84.5" y="-48.5" font-family="Consolas" font-size="10.00"> </text>
<polyline fill="none" stroke="#666666" points="8,-41.5 161,-41.5"/>
<text text-anchor="start" x="16" y="-29.5" font-family="Consolas" font-size="10.00">+ fcSyntaxException</text>
<text text-anchor="start" x="16" y="-18.5" font-family="Consolas" font-size="10.00">(const char *whyException</text>
<text text-anchor="start" x="16" y="-7.5" font-family="Consolas" font-size="10.00">=&quot;the syntax isn&#39;t right&quot;)</text>
</a>
</g>
</g>
<!-- Node2 -->
<g id="node2" class="node">
<title>Node2</title>
<g id="a_node2"><a xlink:href="../../da/de6/classfc_runtime_exception.html" target="_top" xlink:title=" ">
<polygon fill="white" stroke="#666666" points="0,-116.5 0,-206.5 169,-206.5 169,-116.5 0,-116.5"/>
<text text-anchor="middle" x="84.5" y="-194.5" font-family="Consolas" font-size="10.00">fcRuntimeException</text>
<polyline fill="none" stroke="#666666" points="0,-187.5 169,-187.5"/>
<text text-anchor="start" x="8" y="-175.5" font-family="Consolas" font-size="10.00">&#45; const char * why</text>
<polyline fill="none" stroke="#666666" points="0,-168.5 169,-168.5"/>
<text text-anchor="start" x="8" y="-156.5" font-family="Consolas" font-size="10.00">+ fcRuntimeException</text>
<text text-anchor="start" x="8" y="-145.5" font-family="Consolas" font-size="10.00">(const char *whyException</text>
<text text-anchor="start" x="8" y="-134.5" font-family="Consolas" font-size="10.00">=&quot;runtime exception occured&quot;)</text>
<text text-anchor="start" x="8" y="-123.5" font-family="Consolas" font-size="10.00">+ const char * what()</text>
</a>
</g>
</g>
<!-- Node2&#45;&gt;Node1 -->
<g id="edge1" class="edge">
<title>Node2&#45;&gt;Node1</title>
<path fill="none" stroke="#63b8ff" d="M84.5,-105.27C84.5,-96.49 84.5,-87.57 84.5,-79.29"/>
<polygon fill="none" stroke="#63b8ff" points="81,-105.17 84.5,-115.17 88,-105.17 81,-105.17"/>
</g>
<!-- Node3 -->
<g id="node3" class="node">
<title>Node3</title>
<g id="a_node3"><a xlink:title=" ">
<polygon fill="white" stroke="#666666" points="47.5,-243.5 47.5,-300.5 121.5,-300.5 121.5,-243.5 47.5,-243.5"/>
<text text-anchor="middle" x="84.5" y="-288.5" font-family="Consolas" font-size="10.00">fcexception</text>
<polyline fill="none" stroke="#666666" points="47.5,-281.5 121.5,-281.5"/>
<text text-anchor="middle" x="84.5" y="-269.5" font-family="Consolas" font-size="10.00"> </text>
<polyline fill="none" stroke="#666666" points="47.5,-262.5 121.5,-262.5"/>
<text text-anchor="middle" x="84.5" y="-250.5" font-family="Consolas" font-size="10.00"> </text>
</a>
</g>
</g>
<!-- Node3&#45;&gt;Node2 -->
<g id="edge2" class="edge">
<title>Node3&#45;&gt;Node2</title>
<path fill="none" stroke="#63b8ff" d="M84.5,-232.22C84.5,-223.83 84.5,-214.9 84.5,-206.34"/>
<polygon fill="none" stroke="#63b8ff" points="81,-232.11 84.5,-242.11 88,-232.11 81,-232.11"/>
</g>
</g>
</svg>
