<?xml version="1.0" encoding="UTF-8" standalone="no"?>
<!DOCTYPE svg PUBLIC "-//W3C//DTD SVG 1.1//EN"
 "http://www.w3.org/Graphics/SVG/1.1/DTD/svg11.dtd">
<!-- Generated by graphviz version 7.1.0 (20230121.1956)
 -->
<!-- Title: fcRuntimeException Pages: 1 -->
<svg width="573pt" height="436pt"
 viewBox="0.00 0.00 572.50 436.00" xmlns="http://www.w3.org/2000/svg" xmlns:xlink="http://www.w3.org/1999/xlink">
<g id="graph0" class="graph" transform="scale(1 1) rotate(0) translate(4 432)">
<title>fcRuntimeException</title>
<!-- Node1 -->
<g id="node1" class="node">
<title>Node1</title>
<g id="a_node1"><a xlink:title=" ">
<polygon fill="#999999" stroke="#666666" points="216.5,-243.5 216.5,-333.5 385.5,-333.5 385.5,-243.5 216.5,-243.5"/>
<text text-anchor="middle" x="301" y="-321.5" font-family="Consolas" font-size="10.00">fcRuntimeException</text>
<polyline fill="none" stroke="#666666" points="216.5,-314.5 385.5,-314.5"/>
<text text-anchor="start" x="224.5" y="-302.5" font-family="Consolas" font-size="10.00">&#45; const char * why</text>
<polyline fill="none" stroke="#666666" points="216.5,-295.5 385.5,-295.5"/>
<text text-anchor="start" x="224.5" y="-283.5" font-family="Consolas" font-size="10.00">+ fcRuntimeException</text>
<text text-anchor="start" x="224.5" y="-272.5" font-family="Consolas" font-size="10.00">(const char *whyException</text>
<text text-anchor="start" x="224.5" y="-261.5" font-family="Consolas" font-size="10.00">=&quot;runtime exception occured&quot;)</text>
<text text-anchor="start" x="224.5" y="-250.5" font-family="Consolas" font-size="10.00">+ const char * what()</text>
</a>
</g>
</g>
<!-- Node3 -->
<g id="node3" class="node">
<title>Node3</title>
<g id="a_node3"><a xlink:href="../../d2/d2a/classfc_array_index_out_of_bound_exception.html" target="_top" xlink:title=" ">
<polygon fill="white" stroke="#666666" points="0,-127.5 0,-206.5 190,-206.5 190,-127.5 0,-127.5"/>
<text text-anchor="middle" x="95" y="-194.5" font-family="Consolas" font-size="10.00">fcArrayIndexOutOfBoundException</text>
<polyline fill="none" stroke="#666666" points="0,-187.5 190,-187.5"/>
<text text-anchor="middle" x="95" y="-175.5" font-family="Consolas" font-size="10.00"> </text>
<polyline fill="none" stroke="#666666" points="0,-168.5 190,-168.5"/>
<text text-anchor="start" x="8" y="-156.5" font-family="Consolas" font-size="10.00">+ fcArrayIndexOutOfBoundException</text>
<text text-anchor="start" x="8" y="-145.5" font-family="Consolas" font-size="10.00">(const char *whyException=&quot;the</text>
<text text-anchor="start" x="8" y="-134.5" font-family="Consolas" font-size="10.00"> array index is out of bound.&quot;)</text>
</a>
</g>
</g>
<!-- Node1&#45;&gt;Node3 -->
<g id="edge2" class="edge">
<title>Node1&#45;&gt;Node3</title>
<path fill="none" stroke="#63b8ff" d="M215.23,-237.74C197.16,-227.26 178.37,-216.36 161.16,-206.38"/>
<polygon fill="none" stroke="#63b8ff" points="213.46,-240.76 223.86,-242.75 216.97,-234.71 213.46,-240.76"/>
</g>
<!-- Node4 -->
<g id="node4" class="node">
<title>Node4</title>
<g id="a_node4"><a xlink:href="../../d5/df9/classfc_calc_exception.html" target="_top" xlink:title=" ">
<polygon fill="white" stroke="#666666" points="208.5,-127.5 208.5,-206.5 393.5,-206.5 393.5,-127.5 208.5,-127.5"/>
<text text-anchor="middle" x="301" y="-194.5" font-family="Consolas" font-size="10.00">fcCalcException</text>
<polyline fill="none" stroke="#666666" points="208.5,-187.5 393.5,-187.5"/>
<text text-anchor="middle" x="301" y="-175.5" font-family="Consolas" font-size="10.00"> </text>
<polyline fill="none" stroke="#666666" points="208.5,-168.5 393.5,-168.5"/>
<text text-anchor="start" x="216.5" y="-156.5" font-family="Consolas" font-size="10.00">+ fcCalcException(const</text>
<text text-anchor="start" x="216.5" y="-145.5" font-family="Consolas" font-size="10.00"> char *whyException=&quot;calculation</text>
<text text-anchor="start" x="216.5" y="-134.5" font-family="Consolas" font-size="10.00"> gets errors&quot;)</text>
</a>
</g>
</g>
<!-- Node1&#45;&gt;Node4 -->
<g id="edge3" class="edge">
<title>Node1&#45;&gt;Node4</title>
<path fill="none" stroke="#63b8ff" d="M301,-232.27C301,-223.49 301,-214.57 301,-206.29"/>
<polygon fill="none" stroke="#63b8ff" points="297.5,-232.17 301,-242.17 304.5,-232.17 297.5,-232.17"/>
</g>
<!-- Node6 -->
<g id="node6" class="node">
<title>Node6</title>
<g id="a_node6"><a xlink:href="../../dc/dc4/classfc_syntax_exception.html" target="_top" xlink:title=" ">
<polygon fill="white" stroke="#666666" points="411.5,-127.5 411.5,-206.5 564.5,-206.5 564.5,-127.5 411.5,-127.5"/>
<text text-anchor="middle" x="488" y="-194.5" font-family="Consolas" font-size="10.00">fcSyntaxException</text>
<polyline fill="none" stroke="#666666" points="411.5,-187.5 564.5,-187.5"/>
<text text-anchor="middle" x="488" y="-175.5" font-family="Consolas" font-size="10.00"> </text>
<polyline fill="none" stroke="#666666" points="411.5,-168.5 564.5,-168.5"/>
<text text-anchor="start" x="419.5" y="-156.5" font-family="Consolas" font-size="10.00">+ fcSyntaxException</text>
<text text-anchor="start" x="419.5" y="-145.5" font-family="Consolas" font-size="10.00">(const char *whyException</text>
<text text-anchor="start" x="419.5" y="-134.5" font-family="Consolas" font-size="10.00">=&quot;the syntax isn&#39;t right&quot;)</text>
</a>
</g>
</g>
<!-- Node1&#45;&gt;Node6 -->
<g id="edge5" class="edge">
<title>Node1&#45;&gt;Node6</title>
<path fill="none" stroke="#63b8ff" d="M379.32,-237.45C395.58,-227.06 412.46,-216.27 427.94,-206.38"/>
<polygon fill="none" stroke="#63b8ff" points="377.65,-234.36 371.11,-242.7 381.42,-240.26 377.65,-234.36"/>
</g>
<!-- Node2 -->
<g id="node2" class="node">
<title>Node2</title>
<g id="a_node2"><a xlink:title=" ">
<polygon fill="white" stroke="#666666" points="264,-370.5 264,-427.5 338,-427.5 338,-370.5 264,-370.5"/>
<text text-anchor="middle" x="301" y="-415.5" font-family="Consolas" font-size="10.00">fcexception</text>
<polyline fill="none" stroke="#666666" points="264,-408.5 338,-408.5"/>
<text text-anchor="middle" x="301" y="-396.5" font-family="Consolas" font-size="10.00"> </text>
<polyline fill="none" stroke="#666666" points="264,-389.5 338,-389.5"/>
<text text-anchor="middle" x="301" y="-377.5" font-family="Consolas" font-size="10.00"> </text>
</a>
</g>
</g>
<!-- Node2&#45;&gt;Node1 -->
<g id="edge1" class="edge">
<title>Node2&#45;&gt;Node1</title>
<path fill="none" stroke="#63b8ff" d="M301,-359.22C301,-350.83 301,-341.9 301,-333.34"/>
<polygon fill="none" stroke="#63b8ff" points="297.5,-359.11 301,-369.11 304.5,-359.11 297.5,-359.11"/>
</g>
<!-- Node5 -->
<g id="node5" class="node">
<title>Node5</title>
<g id="a_node5"><a xlink:href="../../d9/dbc/classfc_division_zero_exception.html" target="_top" xlink:title=" ">
<polygon fill="white" stroke="#666666" points="208.5,-0.5 208.5,-90.5 393.5,-90.5 393.5,-0.5 208.5,-0.5"/>
<text text-anchor="middle" x="301" y="-78.5" font-family="Consolas" font-size="10.00">fcDivisionZeroException</text>
<polyline fill="none" stroke="#666666" points="208.5,-71.5 393.5,-71.5"/>
<text text-anchor="middle" x="301" y="-59.5" font-family="Consolas" font-size="10.00"> </text>
<polyline fill="none" stroke="#666666" points="208.5,-52.5 393.5,-52.5"/>
<text text-anchor="start" x="216.5" y="-40.5" font-family="Consolas" font-size="10.00">+ fcDivisionZeroException</text>
<text text-anchor="start" x="216.5" y="-29.5" font-family="Consolas" font-size="10.00">(const char *whyException</text>
<text text-anchor="start" x="216.5" y="-18.5" font-family="Consolas" font-size="10.00">=&quot;calculation get errors</text>
<text text-anchor="start" x="216.5" y="-7.5" font-family="Consolas" font-size="10.00"> when dividing a num with zero&quot;)</text>
</a>
</g>
</g>
<!-- Node4&#45;&gt;Node5 -->
<g id="edge4" class="edge">
<title>Node4&#45;&gt;Node5</title>
<path fill="none" stroke="#63b8ff" d="M301,-116.09C301,-107.53 301,-98.68 301,-90.3"/>
<polygon fill="none" stroke="#63b8ff" points="297.5,-116.02 301,-126.02 304.5,-116.02 297.5,-116.02"/>
</g>
</g>
</svg>
