<?xml version="1.0" encoding="UTF-8" standalone="no"?>
<!DOCTYPE svg PUBLIC "-//W3C//DTD SVG 1.1//EN"
 "http://www.w3.org/Graphics/SVG/1.1/DTD/svg11.dtd">
<!-- Generated by graphviz version 7.1.0 (20230121.1956)
 -->
<!-- Title: fcCalcException Pages: 1 -->
<svg width="193pt" height="436pt"
 viewBox="0.00 0.00 193.00 436.00" xmlns="http://www.w3.org/2000/svg" xmlns:xlink="http://www.w3.org/1999/xlink">
<g id="graph0" class="graph" transform="scale(1 1) rotate(0) translate(4 432)">
<title>fcCalcException</title>
<!-- Node1 -->
<g id="node1" class="node">
<title>Node1</title>
<g id="a_node1"><a xlink:title=" ">
<polygon fill="#999999" stroke="#666666" points="0,-127.5 0,-206.5 185,-206.5 185,-127.5 0,-127.5"/>
<text text-anchor="middle" x="92.5" y="-194.5" font-family="Consolas" font-size="10.00">fcCalcException</text>
<polyline fill="none" stroke="#666666" points="0,-187.5 185,-187.5"/>
<text text-anchor="middle" x="92.5" y="-175.5" font-family="Consolas" font-size="10.00"> </text>
<polyline fill="none" stroke="#666666" points="0,-168.5 185,-168.5"/>
<text text-anchor="start" x="8" y="-156.5" font-family="Consolas" font-size="10.00">+ fcCalcException(const</text>
<text text-anchor="start" x="8" y="-145.5" font-family="Consolas" font-size="10.00"> char *whyException=&quot;calculation</text>
<text text-anchor="start" x="8" y="-134.5" font-family="Consolas" font-size="10.00"> gets errors&quot;)</text>
</a>
</g>
</g>
<!-- Node4 -->
<g id="node4" class="node">
<title>Node4</title>
<g id="a_node4"><a xlink:href="../../d9/dbc/classfc_division_zero_exception.html" target="_top" xlink:title=" ">
<polygon fill="white" stroke="#666666" points="0,-0.5 0,-90.5 185,-90.5 185,-0.5 0,-0.5"/>
<text text-anchor="middle" x="92.5" y="-78.5" font-family="Consolas" font-size="10.00">fcDivisionZeroException</text>
<polyline fill="none" stroke="#666666" points="0,-71.5 185,-71.5"/>
<text text-anchor="middle" x="92.5" y="-59.5" font-family="Consolas" font-size="10.00"> </text>
<polyline fill="none" stroke="#666666" points="0,-52.5 185,-52.5"/>
<text text-anchor="start" x="8" y="-40.5" font-family="Consolas" font-size="10.00">+ fcDivisionZeroException</text>
<text text-anchor="start" x="8" y="-29.5" font-family="Consolas" font-size="10.00">(const char *whyException</text>
<text text-anchor="start" x="8" y="-18.5" font-family="Consolas" font-size="10.00">=&quot;calculation get errors</text>
<text text-anchor="start" x="8" y="-7.5" font-family="Consolas" font-size="10.00"> when dividing a num with zero&quot;)</text>
</a>
</g>
</g>
<!-- Node1&#45;&gt;Node4 -->
<g id="edge3" class="edge">
<title>Node1&#45;&gt;Node4</title>
<path fill="none" stroke="#63b8ff" d="M92.5,-116.09C92.5,-107.53 92.5,-98.68 92.5,-90.3"/>
<polygon fill="none" stroke="#63b8ff" points="89,-116.02 92.5,-126.02 96,-116.02 89,-116.02"/>
</g>
<!-- Node2 -->
<g id="node2" class="node">
<title>Node2</title>
<g id="a_node2"><a xlink:href="../../da/de6/classfc_runtime_exception.html" target="_top" xlink:title=" ">
<polygon fill="white" stroke="#666666" points="8,-243.5 8,-333.5 177,-333.5 177,-243.5 8,-243.5"/>
<text text-anchor="middle" x="92.5" y="-321.5" font-family="Consolas" font-size="10.00">fcRuntimeException</text>
<polyline fill="none" stroke="#666666" points="8,-314.5 177,-314.5"/>
<text text-anchor="start" x="16" y="-302.5" font-family="Consolas" font-size="10.00">&#45; const char * why</text>
<polyline fill="none" stroke="#666666" points="8,-295.5 177,-295.5"/>
<text text-anchor="start" x="16" y="-283.5" font-family="Consolas" font-size="10.00">+ fcRuntimeException</text>
<text text-anchor="start" x="16" y="-272.5" font-family="Consolas" font-size="10.00">(const char *whyException</text>
<text text-anchor="start" x="16" y="-261.5" font-family="Consolas" font-size="10.00">=&quot;runtime exception occured&quot;)</text>
<text text-anchor="start" x="16" y="-250.5" font-family="Consolas" font-size="10.00">+ const char * what()</text>
</a>
</g>
</g>
<!-- Node2&#45;&gt;Node1 -->
<g id="edge1" class="edge">
<title>Node2&#45;&gt;Node1</title>
<path fill="none" stroke="#63b8ff" d="M92.5,-232.27C92.5,-223.49 92.5,-214.57 92.5,-206.29"/>
<polygon fill="none" stroke="#63b8ff" points="89,-232.17 92.5,-242.17 96,-232.17 89,-232.17"/>
</g>
<!-- Node3 -->
<g id="node3" class="node">
<title>Node3</title>
<g id="a_node3"><a xlink:title=" ">
<polygon fill="white" stroke="#666666" points="55.5,-370.5 55.5,-427.5 129.5,-427.5 129.5,-370.5 55.5,-370.5"/>
<text text-anchor="middle" x="92.5" y="-415.5" font-family="Consolas" font-size="10.00">fcexception</text>
<polyline fill="none" stroke="#666666" points="55.5,-408.5 129.5,-408.5"/>
<text text-anchor="middle" x="92.5" y="-396.5" font-family="Consolas" font-size="10.00"> </text>
<polyline fill="none" stroke="#666666" points="55.5,-389.5 129.5,-389.5"/>
<text text-anchor="middle" x="92.5" y="-377.5" font-family="Consolas" font-size="10.00"> </text>
</a>
</g>
</g>
<!-- Node3&#45;&gt;Node2 -->
<g id="edge2" class="edge">
<title>Node3&#45;&gt;Node2</title>
<path fill="none" stroke="#63b8ff" d="M92.5,-359.22C92.5,-350.83 92.5,-341.9 92.5,-333.34"/>
<polygon fill="none" stroke="#63b8ff" points="89,-359.11 92.5,-369.11 96,-359.11 89,-359.11"/>
</g>
</g>
</svg>
