<?xml version="1.0" encoding="UTF-8" standalone="no"?>
<!DOCTYPE svg PUBLIC "-//W3C//DTD SVG 1.1//EN"
 "http://www.w3.org/Graphics/SVG/1.1/DTD/svg11.dtd">
<!-- Generated by graphviz version 7.1.0 (20230121.1956)
 -->
<!-- Title: fcRuntimeException Pages: 1 -->
<svg width="177pt" height="193pt"
 viewBox="0.00 0.00 177.00 193.00" xmlns="http://www.w3.org/2000/svg" xmlns:xlink="http://www.w3.org/1999/xlink">
<g id="graph0" class="graph" transform="scale(1 1) rotate(0) translate(4 189)">
<title>fcRuntimeException</title>
<!-- Node1 -->
<g id="node1" class="node">
<title>Node1</title>
<g id="a_node1"><a xlink:title=" ">
<polygon fill="#999999" stroke="#666666" points="0,-0.5 0,-90.5 169,-90.5 169,-0.5 0,-0.5"/>
<text text-anchor="middle" x="84.5" y="-78.5" font-family="Consolas" font-size="10.00">fcRuntimeException</text>
<polyline fill="none" stroke="#666666" points="0,-71.5 169,-71.5"/>
<text text-anchor="start" x="8" y="-59.5" font-family="Consolas" font-size="10.00">&#45; const char * why</text>
<polyline fill="none" stroke="#666666" points="0,-52.5 169,-52.5"/>
<text text-anchor="start" x="8" y="-40.5" font-family="Consolas" font-size="10.00">+ fcRuntimeException</text>
<text text-anchor="start" x="8" y="-29.5" font-family="Consolas" font-size="10.00">(const char *whyException</text>
<text text-anchor="start" x="8" y="-18.5" font-family="Consolas" font-size="10.00">=&quot;runtime exception occured&quot;)</text>
<text text-anchor="start" x="8" y="-7.5" font-family="Consolas" font-size="10.00">+ const char * what()</text>
</a>
</g>
</g>
<!-- Node2 -->
<g id="node2" class="node">
<title>Node2</title>
<g id="a_node2"><a xlink:title=" ">
<polygon fill="white" stroke="#666666" points="47.5,-127.5 47.5,-184.5 121.5,-184.5 121.5,-127.5 47.5,-127.5"/>
<text text-anchor="middle" x="84.5" y="-172.5" font-family="Consolas" font-size="10.00">fcexception</text>
<polyline fill="none" stroke="#666666" points="47.5,-165.5 121.5,-165.5"/>
<text text-anchor="middle" x="84.5" y="-153.5" font-family="Consolas" font-size="10.00"> </text>
<polyline fill="none" stroke="#666666" points="47.5,-146.5 121.5,-146.5"/>
<text text-anchor="middle" x="84.5" y="-134.5" font-family="Consolas" font-size="10.00"> </text>
</a>
</g>
</g>
<!-- Node2&#45;&gt;Node1 -->
<g id="edge1" class="edge">
<title>Node2&#45;&gt;Node1</title>
<path fill="none" stroke="#63b8ff" d="M84.5,-116.22C84.5,-107.83 84.5,-98.9 84.5,-90.34"/>
<polygon fill="none" stroke="#63b8ff" points="81,-116.11 84.5,-126.11 88,-116.11 81,-116.11"/>
</g>
</g>
</svg>
