<?xml version="1.0" encoding="UTF-8" standalone="no"?>
<!DOCTYPE svg PUBLIC "-//W3C//DTD SVG 1.1//EN"
 "http://www.w3.org/Graphics/SVG/1.1/DTD/svg11.dtd">
<!-- Generated by graphviz version 7.1.0 (20230121.1956)
 -->
<!-- Title: find_extensionsGL Pages: 1 -->
<svg width="214pt" height="101pt"
 viewBox="0.00 0.00 214.00 101.00" xmlns="http://www.w3.org/2000/svg" xmlns:xlink="http://www.w3.org/1999/xlink">
<g id="graph0" class="graph" transform="scale(1 1) rotate(0) translate(4 97)">
<title>find_extensionsGL</title>
<!-- Node1 -->
<g id="node1" class="node">
<title>Node1</title>
<g id="a_node1"><a xlink:title=" ">
<polygon fill="#999999" stroke="#666666" points="106,-56 0,-56 0,-37 106,-37 106,-56"/>
<text text-anchor="middle" x="53" y="-44" font-family="Consolas" font-size="10.00">find_extensionsGL</text>
</a>
</g>
</g>
<!-- Node2 -->
<g id="node2" class="node">
<title>Node2</title>
<g id="a_node2"><a xlink:href="../../de/d21/glad_8c.html#a250a03ed54f517313be3fb311c1d0929" target="_top" xlink:title=" ">
<polygon fill="white" stroke="#666666" points="206,-93 142,-93 142,-74 206,-74 206,-93"/>
<text text-anchor="middle" x="174" y="-81" font-family="Consolas" font-size="10.00">free_exts</text>
</a>
</g>
</g>
<!-- Node1&#45;&gt;Node2 -->
<g id="edge1" class="edge">
<title>Node1&#45;&gt;Node2</title>
<path fill="none" stroke="#63b8ff" d="M85.89,-56.42C99.71,-60.71 116.1,-65.81 130.9,-70.41"/>
<polygon fill="#63b8ff" stroke="#63b8ff" points="129.81,-73.74 140.4,-73.36 131.89,-67.05 129.81,-73.74"/>
</g>
<!-- Node3 -->
<g id="node3" class="node">
<title>Node3</title>
<g id="a_node3"><a xlink:href="../../de/d21/glad_8c.html#abfb50eb07d43a6e366811edf9feff173" target="_top" xlink:title=" ">
<polygon fill="white" stroke="#666666" points="203.5,-56 144.5,-56 144.5,-37 203.5,-37 203.5,-56"/>
<text text-anchor="middle" x="174" y="-44" font-family="Consolas" font-size="10.00">get_exts</text>
</a>
</g>
</g>
<!-- Node1&#45;&gt;Node3 -->
<g id="edge2" class="edge">
<title>Node1&#45;&gt;Node3</title>
<path fill="none" stroke="#63b8ff" d="M106.2,-46.5C115.02,-46.5 124.07,-46.5 132.54,-46.5"/>
<polygon fill="#63b8ff" stroke="#63b8ff" points="132.54,-50 142.54,-46.5 132.54,-43 132.54,-50"/>
</g>
<!-- Node4 -->
<g id="node4" class="node">
<title>Node4</title>
<g id="a_node4"><a xlink:href="../../de/d21/glad_8c.html#abfdc555a06ed44e71045a703a7d43951" target="_top" xlink:title=" ">
<polygon fill="white" stroke="#666666" points="200.5,-19 147.5,-19 147.5,0 200.5,0 200.5,-19"/>
<text text-anchor="middle" x="174" y="-7" font-family="Consolas" font-size="10.00">has_ext</text>
</a>
</g>
</g>
<!-- Node1&#45;&gt;Node4 -->
<g id="edge3" class="edge">
<title>Node1&#45;&gt;Node4</title>
<path fill="none" stroke="#63b8ff" d="M85.89,-36.58C101.44,-31.75 120.22,-25.91 136.36,-20.89"/>
<polygon fill="#63b8ff" stroke="#63b8ff" points="137.08,-24.33 145.59,-18.02 135.01,-17.65 137.08,-24.33"/>
</g>
</g>
</svg>
