<?xml version="1.0" encoding="UTF-8" standalone="no"?>
<!DOCTYPE svg PUBLIC "-//W3C//DTD SVG 1.1//EN"
 "http://www.w3.org/Graphics/SVG/1.1/DTD/svg11.dtd">
<!-- Generated by graphviz version 7.1.0 (20230121.1956)
 -->
<!-- Title: src/glad/glad.c Pages: 1 -->
<svg width="379pt" height="82pt"
 viewBox="0.00 0.00 379.00 82.00" xmlns="http://www.w3.org/2000/svg" xmlns:xlink="http://www.w3.org/1999/xlink">
<g id="graph0" class="graph" transform="scale(1 1) rotate(0) translate(4 78)">
<title>src/glad/glad.c</title>
<!-- Node1 -->
<g id="node1" class="node">
<title>Node1</title>
<g id="a_node1"><a xlink:title=" ">
<polygon fill="#999999" stroke="#666666" points="225,-74 130,-74 130,-55 225,-55 225,-74"/>
<text text-anchor="middle" x="177.5" y="-62" font-family="Consolas" font-size="10.00">src/glad/glad.c</text>
</a>
</g>
</g>
<!-- Node2 -->
<g id="node2" class="node">
<title>Node2</title>
<g id="a_node2"><a xlink:title=" ">
<polygon fill="#e0e0e0" stroke="#999999" points="53,-19 0,-19 0,0 53,0 53,-19"/>
<text text-anchor="middle" x="26.5" y="-7" font-family="Consolas" font-size="10.00">stdio.h</text>
</a>
</g>
</g>
<!-- Node1&#45;&gt;Node2 -->
<g id="edge1" class="edge">
<title>Node1&#45;&gt;Node2</title>
<path fill="none" stroke="#63b8ff" d="M151.88,-54.51C127.41,-45.92 90.26,-32.88 62.75,-23.22"/>
<polygon fill="#63b8ff" stroke="#63b8ff" points="64.01,-19.96 53.42,-19.95 61.69,-26.56 64.01,-19.96"/>
</g>
<!-- Node3 -->
<g id="node3" class="node">
<title>Node3</title>
<g id="a_node3"><a xlink:title=" ">
<polygon fill="#e0e0e0" stroke="#999999" points="130,-19 71,-19 71,0 130,0 130,-19"/>
<text text-anchor="middle" x="100.5" y="-7" font-family="Consolas" font-size="10.00">stdlib.h</text>
</a>
</g>
</g>
<!-- Node1&#45;&gt;Node3 -->
<g id="edge2" class="edge">
<title>Node1&#45;&gt;Node3</title>
<path fill="none" stroke="#63b8ff" d="M164.44,-54.51C152.98,-46.62 136.07,-34.98 122.52,-25.65"/>
<polygon fill="#63b8ff" stroke="#63b8ff" points="124.84,-23 114.62,-20.22 120.87,-28.77 124.84,-23"/>
</g>
<!-- Node4 -->
<g id="node4" class="node">
<title>Node4</title>
<g id="a_node4"><a xlink:title=" ">
<polygon fill="#e0e0e0" stroke="#999999" points="207,-19 148,-19 148,0 207,0 207,-19"/>
<text text-anchor="middle" x="177.5" y="-7" font-family="Consolas" font-size="10.00">string.h</text>
</a>
</g>
</g>
<!-- Node1&#45;&gt;Node4 -->
<g id="edge3" class="edge">
<title>Node1&#45;&gt;Node4</title>
<path fill="none" stroke="#63b8ff" d="M177.5,-54.75C177.5,-48.27 177.5,-39.16 177.5,-30.9"/>
<polygon fill="#63b8ff" stroke="#63b8ff" points="181,-30.96 177.5,-20.96 174,-30.96 181,-30.96"/>
</g>
<!-- Node5 -->
<g id="node5" class="node">
<title>Node5</title>
<g id="a_node5"><a xlink:title=" ">
<polygon fill="#e0e0e0" stroke="#999999" points="299.5,-19 225.5,-19 225.5,0 299.5,0 299.5,-19"/>
<text text-anchor="middle" x="262.5" y="-7" font-family="Consolas" font-size="10.00">glad/glad.h</text>
</a>
</g>
</g>
<!-- Node1&#45;&gt;Node5 -->
<g id="edge4" class="edge">
<title>Node1&#45;&gt;Node5</title>
<path fill="none" stroke="#63b8ff" d="M191.92,-54.51C204.7,-46.54 223.6,-34.75 238.63,-25.38"/>
<polygon fill="#63b8ff" stroke="#63b8ff" points="240.38,-28.42 247.01,-20.16 236.67,-22.48 240.38,-28.42"/>
</g>
<!-- Node6 -->
<g id="node6" class="node">
<title>Node6</title>
<g id="a_node6"><a xlink:title=" ">
<polygon fill="#e0e0e0" stroke="#999999" points="371,-19 318,-19 318,0 371,0 371,-19"/>
<text text-anchor="middle" x="344.5" y="-7" font-family="Consolas" font-size="10.00">dlfcn.h</text>
</a>
</g>
</g>
<!-- Node1&#45;&gt;Node6 -->
<g id="edge5" class="edge">
<title>Node1&#45;&gt;Node6</title>
<path fill="none" stroke="#63b8ff" d="M205.83,-54.51C233.68,-45.67 276.34,-32.13 306.99,-22.4"/>
<polygon fill="#63b8ff" stroke="#63b8ff" points="307.78,-25.83 316.25,-19.47 305.66,-19.15 307.78,-25.83"/>
</g>
</g>
</svg>
