<?xml version="1.0" encoding="UTF-8" standalone="no"?>
<!DOCTYPE svg PUBLIC "-//W3C//DTD SVG 1.1//EN"
 "http://www.w3.org/Graphics/SVG/1.1/DTD/svg11.dtd">
<!-- Generated by graphviz version 7.1.0 (20230121.1956)
 -->
<!-- Title: fcArrayIndexOutOfBoundException Pages: 1 -->
<svg width="198pt" height="309pt"
 viewBox="0.00 0.00 198.00 309.00" xmlns="http://www.w3.org/2000/svg" xmlns:xlink="http://www.w3.org/1999/xlink">
<g id="graph0" class="graph" transform="scale(1 1) rotate(0) translate(4 305)">
<title>fcArrayIndexOutOfBoundException</title>
<!-- Node1 -->
<g id="node1" class="node">
<title>Node1</title>
<g id="a_node1"><a xlink:title=" ">
<polygon fill="#999999" stroke="#666666" points="0,-0.5 0,-79.5 190,-79.5 190,-0.5 0,-0.5"/>
<text text-anchor="middle" x="95" y="-67.5" font-family="Consolas" font-size="10.00">fcArrayIndexOutOfBoundException</text>
<polyline fill="none" stroke="#666666" points="0,-60.5 190,-60.5"/>
<text text-anchor="middle" x="95" y="-48.5" font-family="Consolas" font-size="10.00"> </text>
<polyline fill="none" stroke="#666666" points="0,-41.5 190,-41.5"/>
<text text-anchor="start" x="8" y="-29.5" font-family="Consolas" font-size="10.00">+ fcArrayIndexOutOfBoundException</text>
<text text-anchor="start" x="8" y="-18.5" font-family="Consolas" font-size="10.00">(const char *whyException=&quot;the</text>
<text text-anchor="start" x="8" y="-7.5" font-family="Consolas" font-size="10.00"> array index is out of bound.&quot;)</text>
</a>
</g>
</g>
<!-- Node2 -->
<g id="node2" class="node">
<title>Node2</title>
<g id="a_node2"><a xlink:href="../../da/de6/classfc_runtime_exception.html" target="_top" xlink:title=" ">
<polygon fill="white" stroke="#666666" points="10.5,-116.5 10.5,-206.5 179.5,-206.5 179.5,-116.5 10.5,-116.5"/>
<text text-anchor="middle" x="95" y="-194.5" font-family="Consolas" font-size="10.00">fcRuntimeException</text>
<polyline fill="none" stroke="#666666" points="10.5,-187.5 179.5,-187.5"/>
<text text-anchor="start" x="18.5" y="-175.5" font-family="Consolas" font-size="10.00">&#45; const char * why</text>
<polyline fill="none" stroke="#666666" points="10.5,-168.5 179.5,-168.5"/>
<text text-anchor="start" x="18.5" y="-156.5" font-family="Consolas" font-size="10.00">+ fcRuntimeException</text>
<text text-anchor="start" x="18.5" y="-145.5" font-family="Consolas" font-size="10.00">(const char *whyException</text>
<text text-anchor="start" x="18.5" y="-134.5" font-family="Consolas" font-size="10.00">=&quot;runtime exception occured&quot;)</text>
<text text-anchor="start" x="18.5" y="-123.5" font-family="Consolas" font-size="10.00">+ const char * what()</text>
</a>
</g>
</g>
<!-- Node2&#45;&gt;Node1 -->
<g id="edge1" class="edge">
<title>Node2&#45;&gt;Node1</title>
<path fill="none" stroke="#63b8ff" d="M95,-105.27C95,-96.49 95,-87.57 95,-79.29"/>
<polygon fill="none" stroke="#63b8ff" points="91.5,-105.17 95,-115.17 98.5,-105.17 91.5,-105.17"/>
</g>
<!-- Node3 -->
<g id="node3" class="node">
<title>Node3</title>
<g id="a_node3"><a xlink:title=" ">
<polygon fill="white" stroke="#666666" points="58,-243.5 58,-300.5 132,-300.5 132,-243.5 58,-243.5"/>
<text text-anchor="middle" x="95" y="-288.5" font-family="Consolas" font-size="10.00">fcexception</text>
<polyline fill="none" stroke="#666666" points="58,-281.5 132,-281.5"/>
<text text-anchor="middle" x="95" y="-269.5" font-family="Consolas" font-size="10.00"> </text>
<polyline fill="none" stroke="#666666" points="58,-262.5 132,-262.5"/>
<text text-anchor="middle" x="95" y="-250.5" font-family="Consolas" font-size="10.00"> </text>
</a>
</g>
</g>
<!-- Node3&#45;&gt;Node2 -->
<g id="edge2" class="edge">
<title>Node3&#45;&gt;Node2</title>
<path fill="none" stroke="#63b8ff" d="M95,-232.22C95,-223.83 95,-214.9 95,-206.34"/>
<polygon fill="none" stroke="#63b8ff" points="91.5,-232.11 95,-242.11 98.5,-232.11 91.5,-232.11"/>
</g>
</g>
</svg>
