<?xml version="1.0" encoding="UTF-8" standalone="no"?>
<!DOCTYPE svg PUBLIC "-//W3C//DTD SVG 1.1//EN"
 "http://www.w3.org/Graphics/SVG/1.1/DTD/svg11.dtd">
<!-- Generated by graphviz version 7.1.0 (20230121.1956)
 -->
<!-- Title: src/data/file/gamesave.hpp Pages: 1 -->
<svg width="286pt" height="82pt"
 viewBox="0.00 0.00 286.00 82.00" xmlns="http://www.w3.org/2000/svg" xmlns:xlink="http://www.w3.org/1999/xlink">
<g id="graph0" class="graph" transform="scale(1 1) rotate(0) translate(4 78)">
<title>src/data/file/gamesave.hpp</title>
<!-- Node1 -->
<g id="node1" class="node">
<title>Node1</title>
<g id="a_node1"><a xlink:title="deal with filesystem.">
<polygon fill="#999999" stroke="#666666" points="222,-74 69,-74 69,-55 222,-55 222,-74"/>
<text text-anchor="middle" x="145.5" y="-62" font-family="Consolas" font-size="10.00">src/data/file/gamesave.hpp</text>
</a>
</g>
</g>
<!-- Node2 -->
<g id="node2" class="node">
<title>Node2</title>
<g id="a_node2"><a xlink:title=" ">
<polygon fill="#e0e0e0" stroke="#999999" points="69,-19 0,-19 0,0 69,0 69,-19"/>
<text text-anchor="middle" x="34.5" y="-7" font-family="Consolas" font-size="10.00">filesystem</text>
</a>
</g>
</g>
<!-- Node1&#45;&gt;Node2 -->
<g id="edge1" class="edge">
<title>Node1&#45;&gt;Node2</title>
<path fill="none" stroke="#63b8ff" d="M126.67,-54.51C109.34,-46.24 83.39,-33.84 63.43,-24.31"/>
<polygon fill="#63b8ff" stroke="#63b8ff" points="64.95,-21.16 54.42,-20.01 61.93,-27.48 64.95,-21.16"/>
</g>
<!-- Node3 -->
<g id="node3" class="node">
<title>Node3</title>
<g id="a_node3"><a xlink:title=" ">
<polygon fill="#e0e0e0" stroke="#999999" points="135.5,-19 87.5,-19 87.5,0 135.5,0 135.5,-19"/>
<text text-anchor="middle" x="111.5" y="-7" font-family="Consolas" font-size="10.00">string</text>
</a>
</g>
</g>
<!-- Node1&#45;&gt;Node3 -->
<g id="edge2" class="edge">
<title>Node1&#45;&gt;Node3</title>
<path fill="none" stroke="#63b8ff" d="M139.89,-54.75C135.38,-47.73 128.91,-37.64 123.29,-28.87"/>
<polygon fill="#63b8ff" stroke="#63b8ff" points="126.4,-27.24 118.05,-20.72 120.51,-31.02 126.4,-27.24"/>
</g>
<!-- Node4 -->
<g id="node4" class="node">
<title>Node4</title>
<g id="a_node4"><a xlink:title=" ">
<polygon fill="#e0e0e0" stroke="#999999" points="207,-19 154,-19 154,0 207,0 207,-19"/>
<text text-anchor="middle" x="180.5" y="-7" font-family="Consolas" font-size="10.00">cstdlib</text>
</a>
</g>
</g>
<!-- Node1&#45;&gt;Node4 -->
<g id="edge3" class="edge">
<title>Node1&#45;&gt;Node4</title>
<path fill="none" stroke="#63b8ff" d="M151.28,-54.75C155.91,-47.73 162.57,-37.64 168.37,-28.87"/>
<polygon fill="#63b8ff" stroke="#63b8ff" points="171.17,-30.98 173.76,-20.71 165.33,-27.12 171.17,-30.98"/>
</g>
<!-- Node5 -->
<g id="node5" class="node">
<title>Node5</title>
<g id="a_node5"><a xlink:title=" ">
<polygon fill="#e0e0e0" stroke="#999999" points="278,-19 225,-19 225,0 278,0 278,-19"/>
<text text-anchor="middle" x="251.5" y="-7" font-family="Consolas" font-size="10.00">fstream</text>
</a>
</g>
</g>
<!-- Node1&#45;&gt;Node5 -->
<g id="edge4" class="edge">
<title>Node1&#45;&gt;Node5</title>
<path fill="none" stroke="#63b8ff" d="M163.48,-54.51C179.95,-46.27 204.59,-33.96 223.61,-24.45"/>
<polygon fill="#63b8ff" stroke="#63b8ff" points="225.05,-27.64 232.43,-20.03 221.92,-21.38 225.05,-27.64"/>
</g>
</g>
</svg>
