<?xml version="1.0" encoding="UTF-8" standalone="no"?>
<!DOCTYPE svg PUBLIC "-//W3C//DTD SVG 1.1//EN"
 "http://www.w3.org/Graphics/SVG/1.1/DTD/svg11.dtd">
<!-- Generated by graphviz version 7.1.0 (20230121.1956)
 -->
<!-- Title: gladLoadGLLoader Pages: 1 -->
<!--zoomable 730 -->
<svg id="main" version="1.1" xmlns="http://www.w3.org/2000/svg" xmlns:xlink="http://www.w3.org/1999/xlink" xml:space="preserve" onload="init(evt)">
<style type="text/css"><![CDATA[
.edge:hover path { stroke: red; }
.edge:hover polygon { stroke: red; fill: red; }
]]></style>
<script type="text/javascript"><![CDATA[
var edges = document.getElementsByTagName('g');
if (edges && edges.length) {
  for (var i=0;i<edges.length;i++) {
    if (edges[i].id.substr(0,4)=='edge') {
      edges[i].setAttribute('class','edge');
    }
  }
}
]]></script>
        <defs>
                <circle id="rim" cx="0" cy="0" r="7"/>
                <circle id="rim2" cx="0" cy="0" r="3.5"/>
                <g id="zoomPlus">
                        <use xlink:href="#rim" fill="#404040">
                                <set attributeName="fill" to="#808080" begin="zoomplus.mouseover" end="zoomplus.mouseout"/>
                        </use>
                        <path d="M-4,0h8M0,-4v8" fill="none" stroke="white" stroke-width="1.5" pointer-events="none"/>
                </g>
                <g id="zoomMin">
                        <use xlink:href="#rim" fill="#404040">
                                <set attributeName="fill" to="#808080" begin="zoomminus.mouseover" end="zoomminus.mouseout"/>
                        </use>
                        <path d="M-4,0h8" fill="none" stroke="white" stroke-width="1.5" pointer-events="none"/>
                </g>
                <g id="dirArrow">
                        <path fill="none" stroke="white" stroke-width="1.5" d="M0,-3.0v7 M-2.5,-0.5L0,-3.0L2.5,-0.5"/>
                </g>
               <g id="resetDef">
                       <use xlink:href="#rim2" fill="#404040">
                               <set attributeName="fill" to="#808080" begin="reset.mouseover" end="reset.mouseout"/>
                       </use>
               </g>
        </defs>

<script type="text/javascript">
var viewWidth = 361;
var viewHeight = 730;
var sectionId = 'dynsection-9';
</script>
<script xlink:href="../../svgpan.js"/>
<svg id="graph" class="graph">
<g id="viewport">
<title>gladLoadGLLoader</title>
<!-- Node1 -->
<g id="node1" class="node">
<title>Node1</title>
<g id="a_node1"><a xlink:title=" ">
<polygon fill="#999999" stroke="#666666" points="101,-370 0,-370 0,-351 101,-351 101,-370"/>
<text text-anchor="middle" x="50.5" y="-358" font-family="Consolas" font-size="10.00">gladLoadGLLoader</text>
</a>
</g>
</g>
<!-- Node2 -->
<g id="node2" class="node">
<title>Node2</title>
<g id="a_node2"><a xlink:href="../../de/d21/glad_8c.html#a1e6b94e667c5087bcd17801e4e4942a3" target="_top" xlink:title=" ">
<polygon fill="white" stroke="#666666" points="232,-722 158,-722 158,-703 232,-703 232,-722"/>
<text text-anchor="middle" x="195" y="-710" font-family="Consolas" font-size="10.00">find_coreGL</text>
</a>
</g>
</g>
<!-- Node1&#45;&gt;Node2 -->
<g id="edge1" class="edge">
<title>Node1&#45;&gt;Node2</title>
<path fill="none" stroke="#63b8ff" d="M52.75,-370.49C59.2,-420.71 90.31,-645.15 137,-694.5 139.96,-697.62 143.45,-700.21 147.23,-702.34"/>
<polygon fill="#63b8ff" stroke="#63b8ff" points="145.78,-705.53 156.34,-706.41 148.63,-699.14 145.78,-705.53"/>
</g>
<!-- Node3 -->
<g id="node3" class="node">
<title>Node3</title>
<g id="a_node3"><a xlink:href="../../de/d21/glad_8c.html#aec888869187731b49111dfbea5f7cd56" target="_top" xlink:title=" ">
<polygon fill="white" stroke="#666666" points="248,-685 142,-685 142,-666 248,-666 248,-685"/>
<text text-anchor="middle" x="195" y="-673" font-family="Consolas" font-size="10.00">find_extensionsGL</text>
</a>
</g>
</g>
<!-- Node1&#45;&gt;Node3 -->
<g id="edge2" class="edge">
<title>Node1&#45;&gt;Node3</title>
<path fill="none" stroke="#63b8ff" d="M51.22,-370.31C50.62,-411.49 53.86,-572.2 137,-657.5 137.6,-658.11 138.22,-658.71 138.85,-659.28"/>
<polygon fill="#63b8ff" stroke="#63b8ff" points="136.57,-661.96 146.79,-664.78 140.56,-656.2 136.57,-661.96"/>
</g>
<!-- Node7 -->
<g id="node7" class="node">
<title>Node7</title>
<g id="a_node7"><a xlink:href="../../de/d21/glad_8c.html#ac9cefadc8a6c809297856b3cb546d1d4" target="_top" xlink:title=" ">
<polygon fill="white" stroke="#666666" points="253,-648 137,-648 137,-629 253,-629 253,-648"/>
<text text-anchor="middle" x="195" y="-636" font-family="Consolas" font-size="10.00">load_GL_VERSION_1_0</text>
</a>
</g>
</g>
<!-- Node1&#45;&gt;Node7 -->
<g id="edge6" class="edge">
<title>Node1&#45;&gt;Node7</title>
<path fill="none" stroke="#63b8ff" d="M51.69,-370.38C52.99,-408.45 62.81,-547.19 137,-620.5 137.61,-621.1 138.24,-621.68 138.88,-622.25"/>
<polygon fill="#63b8ff" stroke="#63b8ff" points="136.66,-624.96 146.9,-627.67 140.58,-619.17 136.66,-624.96"/>
</g>
<!-- Node8 -->
<g id="node8" class="node">
<title>Node8</title>
<g id="a_node8"><a xlink:href="../../de/d21/glad_8c.html#a35dbc78b11773681adc60e990fef7005" target="_top" xlink:title=" ">
<polygon fill="white" stroke="#666666" points="253,-611 137,-611 137,-592 253,-592 253,-611"/>
<text text-anchor="middle" x="195" y="-599" font-family="Consolas" font-size="10.00">load_GL_VERSION_1_1</text>
</a>
</g>
</g>
<!-- Node1&#45;&gt;Node8 -->
<g id="edge7" class="edge">
<title>Node1&#45;&gt;Node8</title>
<path fill="none" stroke="#63b8ff" d="M52.29,-370.16C55.61,-404.48 71.49,-521.82 137,-583.5 137.76,-584.22 138.55,-584.9 139.36,-585.56"/>
<polygon fill="#63b8ff" stroke="#63b8ff" points="137.29,-588.39 147.6,-590.83 141.06,-582.49 137.29,-588.39"/>
</g>
<!-- Node9 -->
<g id="node9" class="node">
<title>Node9</title>
<g id="a_node9"><a xlink:href="../../de/d21/glad_8c.html#a577c4b9e1351249c243b007ecc4a975e" target="_top" xlink:title=" ">
<polygon fill="white" stroke="#666666" points="253,-574 137,-574 137,-555 253,-555 253,-574"/>
<text text-anchor="middle" x="195" y="-562" font-family="Consolas" font-size="10.00">load_GL_VERSION_1_2</text>
</a>
</g>
</g>
<!-- Node1&#45;&gt;Node9 -->
<g id="edge8" class="edge">
<title>Node1&#45;&gt;Node9</title>
<path fill="none" stroke="#63b8ff" d="M53.12,-370.24C58.74,-400.91 80.23,-496.42 137,-546.5 137.91,-547.31 138.86,-548.08 139.85,-548.81"/>
<polygon fill="#63b8ff" stroke="#63b8ff" points="137.7,-551.61 148.08,-553.77 141.31,-545.61 137.7,-551.61"/>
</g>
<!-- Node10 -->
<g id="node10" class="node">
<title>Node10</title>
<g id="a_node10"><a xlink:href="../../de/d21/glad_8c.html#a64db1ca3b160134bd85d5121be77ab1c" target="_top" xlink:title=" ">
<polygon fill="white" stroke="#666666" points="253,-537 137,-537 137,-518 253,-518 253,-537"/>
<text text-anchor="middle" x="195" y="-525" font-family="Consolas" font-size="10.00">load_GL_VERSION_1_3</text>
</a>
</g>
</g>
<!-- Node1&#45;&gt;Node10 -->
<g id="edge9" class="edge">
<title>Node1&#45;&gt;Node10</title>
<path fill="none" stroke="#63b8ff" d="M54.29,-370.15C62.44,-396.55 88.68,-470.6 137,-509.5 138.14,-510.42 139.32,-511.28 140.54,-512.11"/>
<polygon fill="#63b8ff" stroke="#63b8ff" points="138.75,-515.12 149.2,-516.88 142.13,-508.99 138.75,-515.12"/>
</g>
<!-- Node11 -->
<g id="node11" class="node">
<title>Node11</title>
<g id="a_node11"><a xlink:href="../../de/d21/glad_8c.html#a3fcc343e68a41abbf2aaf2898ba6c662" target="_top" xlink:title=" ">
<polygon fill="white" stroke="#666666" points="253,-500 137,-500 137,-481 253,-481 253,-500"/>
<text text-anchor="middle" x="195" y="-488" font-family="Consolas" font-size="10.00">load_GL_VERSION_1_4</text>
</a>
</g>
</g>
<!-- Node1&#45;&gt;Node11 -->
<g id="edge10" class="edge">
<title>Node1&#45;&gt;Node11</title>
<path fill="none" stroke="#63b8ff" d="M56.24,-370.2C67.3,-391.84 96.96,-444.38 137,-472.5 138.58,-473.61 140.22,-474.65 141.92,-475.63"/>
<polygon fill="#63b8ff" stroke="#63b8ff" points="140.22,-478.69 150.74,-479.92 143.28,-472.4 140.22,-478.69"/>
</g>
<!-- Node12 -->
<g id="node12" class="node">
<title>Node12</title>
<g id="a_node12"><a xlink:href="../../de/d21/glad_8c.html#a5b8a4ead1fe41911c78f289e1e099c17" target="_top" xlink:title=" ">
<polygon fill="white" stroke="#666666" points="253,-463 137,-463 137,-444 253,-444 253,-463"/>
<text text-anchor="middle" x="195" y="-451" font-family="Consolas" font-size="10.00">load_GL_VERSION_1_5</text>
</a>
</g>
</g>
<!-- Node1&#45;&gt;Node12 -->
<g id="edge11" class="edge">
<title>Node1&#45;&gt;Node12</title>
<path fill="none" stroke="#63b8ff" d="M60.24,-370.47C74.7,-386.39 105.17,-417.57 137,-435.5 139.45,-436.88 142.03,-438.17 144.67,-439.38"/>
<polygon fill="#63b8ff" stroke="#63b8ff" points="143.08,-442.51 153.67,-443.03 145.72,-436.02 143.08,-442.51"/>
</g>
<!-- Node13 -->
<g id="node13" class="node">
<title>Node13</title>
<g id="a_node13"><a xlink:href="../../de/d21/glad_8c.html#ada4838bbc696bf9bd3fee9945ae2fc62" target="_top" xlink:title=" ">
<polygon fill="white" stroke="#666666" points="253,-426 137,-426 137,-407 253,-407 253,-426"/>
<text text-anchor="middle" x="195" y="-414" font-family="Consolas" font-size="10.00">load_GL_VERSION_2_0</text>
</a>
</g>
</g>
<!-- Node1&#45;&gt;Node13 -->
<g id="edge12" class="edge">
<title>Node1&#45;&gt;Node13</title>
<path fill="none" stroke="#63b8ff" d="M71.96,-370.37C89.12,-378.46 114.37,-389.93 137,-398.5 141.09,-400.05 145.37,-401.57 149.68,-403.04"/>
<polygon fill="#63b8ff" stroke="#63b8ff" points="148.3,-406.27 158.89,-406.08 150.49,-399.63 148.3,-406.27"/>
</g>
<!-- Node14 -->
<g id="node14" class="node">
<title>Node14</title>
<g id="a_node14"><a xlink:href="../../de/d21/glad_8c.html#a6b1ddad462fc87b8ca81a8228c81bf9f" target="_top" xlink:title=" ">
<polygon fill="white" stroke="#666666" points="253,-389 137,-389 137,-370 253,-370 253,-389"/>
<text text-anchor="middle" x="195" y="-377" font-family="Consolas" font-size="10.00">load_GL_VERSION_2_1</text>
</a>
</g>
</g>
<!-- Node1&#45;&gt;Node14 -->
<g id="edge13" class="edge">
<title>Node1&#45;&gt;Node14</title>
<path fill="none" stroke="#63b8ff" d="M101.34,-367.15C109.09,-368.18 117.2,-369.26 125.28,-370.34"/>
<polygon fill="#63b8ff" stroke="#63b8ff" points="124.75,-373.8 135.12,-371.65 125.67,-366.86 124.75,-373.8"/>
</g>
<!-- Node15 -->
<g id="node15" class="node">
<title>Node15</title>
<g id="a_node15"><a xlink:href="../../de/d21/glad_8c.html#a66fb68f92ff5be9c41e8fd9e3a0f1f22" target="_top" xlink:title=" ">
<polygon fill="white" stroke="#666666" points="253,-352 137,-352 137,-333 253,-333 253,-352"/>
<text text-anchor="middle" x="195" y="-340" font-family="Consolas" font-size="10.00">load_GL_VERSION_3_0</text>
</a>
</g>
</g>
<!-- Node1&#45;&gt;Node15 -->
<g id="edge14" class="edge">
<title>Node1&#45;&gt;Node15</title>
<path fill="none" stroke="#63b8ff" d="M101.34,-354.2C109.09,-353.23 117.2,-352.2 125.28,-351.18"/>
<polygon fill="#63b8ff" stroke="#63b8ff" points="125.64,-354.66 135.12,-349.94 124.76,-347.72 125.64,-354.66"/>
</g>
<!-- Node16 -->
<g id="node16" class="node">
<title>Node16</title>
<g id="a_node16"><a xlink:href="../../de/d21/glad_8c.html#aa0161dc921d58866d5c9384b365bfae7" target="_top" xlink:title=" ">
<polygon fill="white" stroke="#666666" points="253,-315 137,-315 137,-296 253,-296 253,-315"/>
<text text-anchor="middle" x="195" y="-303" font-family="Consolas" font-size="10.00">load_GL_VERSION_3_1</text>
</a>
</g>
</g>
<!-- Node1&#45;&gt;Node16 -->
<g id="edge15" class="edge">
<title>Node1&#45;&gt;Node16</title>
<path fill="none" stroke="#63b8ff" d="M73.81,-350.55C90.96,-343.04 115.3,-332.67 137,-324.5 141.8,-322.69 146.85,-320.88 151.89,-319.13"/>
<polygon fill="#63b8ff" stroke="#63b8ff" points="153.01,-322.45 161.35,-315.91 150.76,-315.82 153.01,-322.45"/>
</g>
<!-- Node17 -->
<g id="node17" class="node">
<title>Node17</title>
<g id="a_node17"><a xlink:href="../../de/d21/glad_8c.html#aa4ad9ec346eeec0578169e552b802662" target="_top" xlink:title=" ">
<polygon fill="white" stroke="#666666" points="253,-278 137,-278 137,-259 253,-259 253,-278"/>
<text text-anchor="middle" x="195" y="-266" font-family="Consolas" font-size="10.00">load_GL_VERSION_3_2</text>
</a>
</g>
</g>
<!-- Node1&#45;&gt;Node17 -->
<g id="edge16" class="edge">
<title>Node1&#45;&gt;Node17</title>
<path fill="none" stroke="#63b8ff" d="M60.57,-350.62C75.24,-335.15 105.73,-305.16 137,-287.5 140.04,-285.79 143.25,-284.19 146.54,-282.72"/>
<polygon fill="#63b8ff" stroke="#63b8ff" points="147.84,-285.98 155.82,-279 145.23,-279.48 147.84,-285.98"/>
</g>
<!-- Node18 -->
<g id="node18" class="node">
<title>Node18</title>
<g id="a_node18"><a xlink:href="../../de/d21/glad_8c.html#a5b35a05be99645aebc78627b564fb0be" target="_top" xlink:title=" ">
<polygon fill="white" stroke="#666666" points="253,-241 137,-241 137,-222 253,-222 253,-241"/>
<text text-anchor="middle" x="195" y="-229" font-family="Consolas" font-size="10.00">load_GL_VERSION_3_3</text>
</a>
</g>
</g>
<!-- Node1&#45;&gt;Node18 -->
<g id="edge17" class="edge">
<title>Node1&#45;&gt;Node18</title>
<path fill="none" stroke="#63b8ff" d="M56.49,-350.7C67.84,-329.35 97.71,-278.31 137,-250.5 139.08,-249.03 141.27,-247.67 143.55,-246.41"/>
<polygon fill="#63b8ff" stroke="#63b8ff" points="145,-249.59 152.54,-242.15 142.01,-243.27 145,-249.59"/>
</g>
<!-- Node19 -->
<g id="node19" class="node">
<title>Node19</title>
<g id="a_node19"><a xlink:href="../../de/d21/glad_8c.html#afd687e92ccc3435db99eb010fc5565a4" target="_top" xlink:title=" ">
<polygon fill="white" stroke="#666666" points="253,-204 137,-204 137,-185 253,-185 253,-204"/>
<text text-anchor="middle" x="195" y="-192" font-family="Consolas" font-size="10.00">load_GL_VERSION_4_0</text>
</a>
</g>
</g>
<!-- Node1&#45;&gt;Node19 -->
<g id="edge18" class="edge">
<title>Node1&#45;&gt;Node19</title>
<path fill="none" stroke="#63b8ff" d="M54.49,-350.64C62.95,-324.38 89.59,-252.06 137,-213.5 138.7,-212.12 140.5,-210.83 142.38,-209.64"/>
<polygon fill="#63b8ff" stroke="#63b8ff" points="143.74,-212.89 150.95,-205.13 140.47,-206.7 143.74,-212.89"/>
</g>
<!-- Node20 -->
<g id="node20" class="node">
<title>Node20</title>
<g id="a_node20"><a xlink:href="../../de/d21/glad_8c.html#ab46b2b729425b5bb92c402e7b08c90fa" target="_top" xlink:title=" ">
<polygon fill="white" stroke="#666666" points="253,-167 137,-167 137,-148 253,-148 253,-167"/>
<text text-anchor="middle" x="195" y="-155" font-family="Consolas" font-size="10.00">load_GL_VERSION_4_1</text>
</a>
</g>
</g>
<!-- Node1&#45;&gt;Node20 -->
<g id="edge19" class="edge">
<title>Node1&#45;&gt;Node20</title>
<path fill="none" stroke="#63b8ff" d="M53.19,-350.9C59.01,-320.66 81.03,-226.47 137,-176.5 138.42,-175.23 139.92,-174.05 141.49,-172.95"/>
<polygon fill="#63b8ff" stroke="#63b8ff" points="142.85,-176.21 149.78,-168.2 139.37,-170.13 142.85,-176.21"/>
</g>
<!-- Node21 -->
<g id="node21" class="node">
<title>Node21</title>
<g id="a_node21"><a xlink:href="../../de/d21/glad_8c.html#a34c73452306d56278046dd284ec050bd" target="_top" xlink:title=" ">
<polygon fill="white" stroke="#666666" points="253,-130 137,-130 137,-111 253,-111 253,-130"/>
<text text-anchor="middle" x="195" y="-118" font-family="Consolas" font-size="10.00">load_GL_VERSION_4_2</text>
</a>
</g>
</g>
<!-- Node1&#45;&gt;Node21 -->
<g id="edge20" class="edge">
<title>Node1&#45;&gt;Node21</title>
<path fill="none" stroke="#63b8ff" d="M52.35,-350.97C55.88,-317.07 72.4,-201.11 137,-139.5 138.2,-138.35 139.48,-137.27 140.81,-136.26"/>
<polygon fill="#63b8ff" stroke="#63b8ff" points="142.29,-139.46 149,-131.26 138.64,-133.48 142.29,-139.46"/>
</g>
<!-- Node22 -->
<g id="node22" class="node">
<title>Node22</title>
<g id="a_node22"><a xlink:href="../../de/d21/glad_8c.html#ac96c85fb3086e40f55ecc2a85e88f940" target="_top" xlink:title=" ">
<polygon fill="white" stroke="#666666" points="253,-93 137,-93 137,-74 253,-74 253,-93"/>
<text text-anchor="middle" x="195" y="-81" font-family="Consolas" font-size="10.00">load_GL_VERSION_4_3</text>
</a>
</g>
</g>
<!-- Node1&#45;&gt;Node22 -->
<g id="edge21" class="edge">
<title>Node1&#45;&gt;Node22</title>
<path fill="none" stroke="#63b8ff" d="M51.76,-350.73C53.28,-313.08 63.82,-175.8 137,-102.5 138.04,-101.46 139.13,-100.48 140.27,-99.55"/>
<polygon fill="#63b8ff" stroke="#63b8ff" points="142.02,-102.59 148.56,-94.25 138.25,-96.69 142.02,-102.59"/>
</g>
<!-- Node23 -->
<g id="node23" class="node">
<title>Node23</title>
<g id="a_node23"><a xlink:href="../../de/d21/glad_8c.html#a3379f8fef4545548f7508288d9f23d91" target="_top" xlink:title=" ">
<polygon fill="white" stroke="#666666" points="253,-56 137,-56 137,-37 253,-37 253,-56"/>
<text text-anchor="middle" x="195" y="-44" font-family="Consolas" font-size="10.00">load_GL_VERSION_4_4</text>
</a>
</g>
</g>
<!-- Node1&#45;&gt;Node23 -->
<g id="edge22" class="edge">
<title>Node1&#45;&gt;Node23</title>
<path fill="none" stroke="#63b8ff" d="M51.28,-350.51C50.93,-309.3 55.16,-150.66 137,-65.5 138,-64.46 139.05,-63.48 140.15,-62.56"/>
<polygon fill="#63b8ff" stroke="#63b8ff" points="141.73,-65.71 148.15,-57.28 137.87,-59.87 141.73,-65.71"/>
</g>
<!-- Node24 -->
<g id="node24" class="node">
<title>Node24</title>
<g id="a_node24"><a xlink:href="../../de/d21/glad_8c.html#a09519edf390523b7e1eda978dc24fc0e" target="_top" xlink:title=" ">
<polygon fill="white" stroke="#666666" points="253,-19 137,-19 137,0 253,0 253,-19"/>
<text text-anchor="middle" x="195" y="-7" font-family="Consolas" font-size="10.00">load_GL_VERSION_4_5</text>
</a>
</g>
</g>
<!-- Node1&#45;&gt;Node24 -->
<g id="edge23" class="edge">
<title>Node1&#45;&gt;Node24</title>
<path fill="none" stroke="#63b8ff" d="M52.75,-350.54C59.22,-300.47 90.42,-76.69 137,-27.5 137.48,-26.99 137.97,-26.5 138.48,-26.02"/>
<polygon fill="#63b8ff" stroke="#63b8ff" points="140.36,-28.98 146.43,-20.3 136.27,-23.3 140.36,-28.98"/>
</g>
<!-- Node4 -->
<g id="node4" class="node">
<title>Node4</title>
<g id="a_node4"><a xlink:href="../../de/d21/glad_8c.html#a250a03ed54f517313be3fb311c1d0929" target="_top" xlink:title=" ">
<polygon fill="white" stroke="#666666" points="353,-722 289,-722 289,-703 353,-703 353,-722"/>
<text text-anchor="middle" x="321" y="-710" font-family="Consolas" font-size="10.00">free_exts</text>
</a>
</g>
</g>
<!-- Node3&#45;&gt;Node4 -->
<g id="edge3" class="edge">
<title>Node3&#45;&gt;Node4</title>
<path fill="none" stroke="#63b8ff" d="M229.23,-685.42C244.27,-689.9 262.21,-695.26 278.15,-700.01"/>
<polygon fill="#63b8ff" stroke="#63b8ff" points="276.78,-703.26 287.36,-702.76 278.78,-696.55 276.78,-703.26"/>
</g>
<!-- Node5 -->
<g id="node5" class="node">
<title>Node5</title>
<g id="a_node5"><a xlink:href="../../de/d21/glad_8c.html#abfb50eb07d43a6e366811edf9feff173" target="_top" xlink:title=" ">
<polygon fill="white" stroke="#666666" points="350.5,-685 291.5,-685 291.5,-666 350.5,-666 350.5,-685"/>
<text text-anchor="middle" x="321" y="-673" font-family="Consolas" font-size="10.00">get_exts</text>
</a>
</g>
</g>
<!-- Node3&#45;&gt;Node5 -->
<g id="edge4" class="edge">
<title>Node3&#45;&gt;Node5</title>
<path fill="none" stroke="#63b8ff" d="M248.23,-675.5C258.79,-675.5 269.74,-675.5 279.81,-675.5"/>
<polygon fill="#63b8ff" stroke="#63b8ff" points="279.64,-679 289.64,-675.5 279.64,-672 279.64,-679"/>
</g>
<!-- Node6 -->
<g id="node6" class="node">
<title>Node6</title>
<g id="a_node6"><a xlink:href="../../de/d21/glad_8c.html#abfdc555a06ed44e71045a703a7d43951" target="_top" xlink:title=" ">
<polygon fill="white" stroke="#666666" points="347.5,-648 294.5,-648 294.5,-629 347.5,-629 347.5,-648"/>
<text text-anchor="middle" x="321" y="-636" font-family="Consolas" font-size="10.00">has_ext</text>
</a>
</g>
</g>
<!-- Node3&#45;&gt;Node6 -->
<g id="edge5" class="edge">
<title>Node3&#45;&gt;Node6</title>
<path fill="none" stroke="#63b8ff" d="M229.23,-665.58C245.94,-660.6 266.24,-654.54 283.4,-649.42"/>
<polygon fill="#63b8ff" stroke="#63b8ff" points="284.12,-652.86 292.7,-646.65 282.12,-646.15 284.12,-652.86"/>
</g>
</g>
</svg>
        <g id="navigator" transform="translate(0 0)" fill="#404254">
                <rect fill="#f2f5e9" fill-opacity="0.5" stroke="#606060" stroke-width=".5" x="0" y="0" width="60" height="60"/>
                <use id="zoomplus" xlink:href="#zoomPlus" x="17" y="9" onmousedown="handleZoom(evt,'in')"/>
                <use id="zoomminus" xlink:href="#zoomMin" x="42" y="9" onmousedown="handleZoom(evt,'out')"/>
                <use id="reset" xlink:href="#resetDef" x="30" y="36" onmousedown="handleReset()"/>
                <g id="arrowUp" xlink:href="#dirArrow" transform="translate(30 24)" onmousedown="handlePan(0,-1)">
                  <use xlink:href="#rim" fill="#404040">
                        <set attributeName="fill" to="#808080" begin="arrowUp.mouseover" end="arrowUp.mouseout"/>
                  </use>
                  <path fill="none" stroke="white" stroke-width="1.5" d="M0,-3.0v7 M-2.5,-0.5L0,-3.0L2.5,-0.5"/>
                </g>
                <g id="arrowRight" xlink:href="#dirArrow" transform="rotate(90) translate(36 -43)" onmousedown="handlePan(1,0)">
                  <use xlink:href="#rim" fill="#404040">
                        <set attributeName="fill" to="#808080" begin="arrowRight.mouseover" end="arrowRight.mouseout"/>
                  </use>
                  <path fill="none" stroke="white" stroke-width="1.5" d="M0,-3.0v7 M-2.5,-0.5L0,-3.0L2.5,-0.5"/>
                </g>
                <g id="arrowDown" xlink:href="#dirArrow" transform="rotate(180) translate(-30 -48)" onmousedown="handlePan(0,1)">
                  <use xlink:href="#rim" fill="#404040">
                        <set attributeName="fill" to="#808080" begin="arrowDown.mouseover" end="arrowDown.mouseout"/>
                  </use>
                  <path fill="none" stroke="white" stroke-width="1.5" d="M0,-3.0v7 M-2.5,-0.5L0,-3.0L2.5,-0.5"/>
                </g>
                <g id="arrowLeft" xlink:href="#dirArrow" transform="rotate(270) translate(-36 17)" onmousedown="handlePan(-1,0)">
                  <use xlink:href="#rim" fill="#404040">
                        <set attributeName="fill" to="#808080" begin="arrowLeft.mouseover" end="arrowLeft.mouseout"/>
                  </use>
                  <path fill="none" stroke="white" stroke-width="1.5" d="M0,-3.0v7 M-2.5,-0.5L0,-3.0L2.5,-0.5"/>
                </g>
        </g>
        <svg viewBox="0 0 15 15" width="100%" height="30px" preserveAspectRatio="xMaxYMin meet">
         <g id="arrow_out" transform="scale(0.3 0.3)">
          <a xlink:href="glad_8c_af70e4674f75bd3bbfedf7979607c65ef_cgraph_org.svg" target="_base">
           <rect id="button" ry="5" rx="5" y="6" x="6" height="38" width="38"
                fill="#f2f5e9" fill-opacity="0.5" stroke="#606060" stroke-width="1.0"/>
           <path id="arrow"
             d="M 11.500037,31.436501 C 11.940474,20.09759 22.043105,11.32322 32.158766,21.979434 L 37.068811,17.246167 C 37.068811,17.246167 37.088388,32 37.088388,32 L 22.160133,31.978069 C 22.160133,31.978069 26.997745,27.140456 26.997745,27.140456 C 18.528582,18.264221 13.291696,25.230495 11.500037,31.436501 z"
             style="fill:#404040;"/>
          </a>
         </g>
        </svg>
</svg>
