<?xml version="1.0" encoding="UTF-8" standalone="no"?>
<!DOCTYPE svg PUBLIC "-//W3C//DTD SVG 1.1//EN"
 "http://www.w3.org/Graphics/SVG/1.1/DTD/svg11.dtd">
<!-- Generated by graphviz version 7.1.0 (20230121.1956)
 -->
<!-- Title: gladLoadGL Pages: 1 -->
<!--zoomable 730 -->
<svg id="main" version="1.1" xmlns="http://www.w3.org/2000/svg" xmlns:xlink="http://www.w3.org/1999/xlink" xml:space="preserve" onload="init(evt)">
<style type="text/css"><![CDATA[
.edge:hover path { stroke: red; }
.edge:hover polygon { stroke: red; fill: red; }
]]></style>
<script type="text/javascript"><![CDATA[
var edges = document.getElementsByTagName('g');
if (edges && edges.length) {
  for (var i=0;i<edges.length;i++) {
    if (edges[i].id.substr(0,4)=='edge') {
      edges[i].setAttribute('class','edge');
    }
  }
}
]]></script>
        <defs>
                <circle id="rim" cx="0" cy="0" r="7"/>
                <circle id="rim2" cx="0" cy="0" r="3.5"/>
                <g id="zoomPlus">
                        <use xlink:href="#rim" fill="#404040">
                                <set attributeName="fill" to="#808080" begin="zoomplus.mouseover" end="zoomplus.mouseout"/>
                        </use>
                        <path d="M-4,0h8M0,-4v8" fill="none" stroke="white" stroke-width="1.5" pointer-events="none"/>
                </g>
                <g id="zoomMin">
                        <use xlink:href="#rim" fill="#404040">
                                <set attributeName="fill" to="#808080" begin="zoomminus.mouseover" end="zoomminus.mouseout"/>
                        </use>
                        <path d="M-4,0h8" fill="none" stroke="white" stroke-width="1.5" pointer-events="none"/>
                </g>
                <g id="dirArrow">
                        <path fill="none" stroke="white" stroke-width="1.5" d="M0,-3.0v7 M-2.5,-0.5L0,-3.0L2.5,-0.5"/>
                </g>
               <g id="resetDef">
                       <use xlink:href="#rim2" fill="#404040">
                               <set attributeName="fill" to="#808080" begin="reset.mouseover" end="reset.mouseout"/>
                       </use>
               </g>
        </defs>

<script type="text/javascript">
var viewWidth = 466;
var viewHeight = 730;
var sectionId = 'dynsection-8';
</script>
<script xlink:href="../../svgpan.js"/>
<svg id="graph" class="graph">
<g id="viewport">
<title>gladLoadGL</title>
<!-- Node1 -->
<g id="node1" class="node">
<title>Node1</title>
<g id="a_node1"><a xlink:title=" ">
<polygon fill="#999999" stroke="#666666" points="69,-388 0,-388 0,-369 69,-369 69,-388"/>
<text text-anchor="middle" x="34.5" y="-376" font-family="Consolas" font-size="10.00">gladLoadGL</text>
</a>
</g>
</g>
<!-- Node2 -->
<g id="node2" class="node">
<title>Node2</title>
<g id="a_node2"><a xlink:href="../../de/d21/glad_8c.html#a65e771045aef12df13f0279dd9a01ecf" target="_top" xlink:title=" ">
<polygon fill="white" stroke="#666666" points="185,-444 126,-444 126,-425 185,-425 185,-444"/>
<text text-anchor="middle" x="155.5" y="-432" font-family="Consolas" font-size="10.00">close_gl</text>
</a>
</g>
</g>
<!-- Node1&#45;&gt;Node2 -->
<g id="edge1" class="edge">
<title>Node1&#45;&gt;Node2</title>
<path fill="none" stroke="#63b8ff" d="M51.99,-388.44C65.85,-396.57 86.33,-408.06 105,-416.5 108.29,-417.99 111.75,-419.45 115.23,-420.85"/>
<polygon fill="#63b8ff" stroke="#63b8ff" points="113.67,-423.99 124.26,-424.31 116.18,-417.46 113.67,-423.99"/>
</g>
<!-- Node3 -->
<g id="node3" class="node">
<title>Node3</title>
<g id="a_node3"><a xlink:href="../../de/d21/glad_8c.html#ad63f2bf7c845fd310286b42a454ba71d" target="_top" xlink:title=" ">
<polygon fill="white" stroke="#666666" points="185,-407 126,-407 126,-388 185,-388 185,-407"/>
<text text-anchor="middle" x="155.5" y="-395" font-family="Consolas" font-size="10.00">get_proc</text>
</a>
</g>
</g>
<!-- Node1&#45;&gt;Node3 -->
<g id="edge2" class="edge">
<title>Node1&#45;&gt;Node3</title>
<path fill="none" stroke="#63b8ff" d="M69.28,-383.89C83.38,-386.14 99.86,-388.78 114.55,-391.12"/>
<polygon fill="#63b8ff" stroke="#63b8ff" points="113.95,-394.57 124.38,-392.69 115.06,-387.66 113.95,-394.57"/>
</g>
<!-- Node4 -->
<g id="node4" class="node">
<title>Node4</title>
<g id="a_node4"><a xlink:href="../../de/d21/glad_8c.html#af70e4674f75bd3bbfedf7979607c65ef" target="_top" xlink:title=" ">
<polygon fill="white" stroke="#666666" points="206,-370 105,-370 105,-351 206,-351 206,-370"/>
<text text-anchor="middle" x="155.5" y="-358" font-family="Consolas" font-size="10.00">gladLoadGLLoader</text>
</a>
</g>
</g>
<!-- Node1&#45;&gt;Node4 -->
<g id="edge3" class="edge">
<title>Node1&#45;&gt;Node4</title>
<path fill="none" stroke="#63b8ff" d="M69.28,-373.39C76.84,-372.25 85.09,-371 93.37,-369.75"/>
<polygon fill="#63b8ff" stroke="#63b8ff" points="93.78,-373.23 103.14,-368.27 92.73,-366.3 93.78,-373.23"/>
</g>
<!-- Node28 -->
<g id="node28" class="node">
<title>Node28</title>
<g id="a_node28"><a xlink:href="../../de/d21/glad_8c.html#a538b0e09de5780f026ad62462fade0a6" target="_top" xlink:title=" ">
<polygon fill="white" stroke="#666666" points="182,-333 129,-333 129,-314 182,-314 182,-333"/>
<text text-anchor="middle" x="155.5" y="-321" font-family="Consolas" font-size="10.00">open_gl</text>
</a>
</g>
</g>
<!-- Node1&#45;&gt;Node28 -->
<g id="edge27" class="edge">
<title>Node1&#45;&gt;Node28</title>
<path fill="none" stroke="#63b8ff" d="M53.23,-368.62C67.12,-361.05 87.03,-350.57 105,-342.5 109.13,-340.64 113.51,-338.8 117.87,-337.03"/>
<polygon fill="#63b8ff" stroke="#63b8ff" points="119.15,-340.29 127.18,-333.38 116.59,-333.77 119.15,-340.29"/>
</g>
<!-- Node5 -->
<g id="node5" class="node">
<title>Node5</title>
<g id="a_node5"><a xlink:href="../../de/d21/glad_8c.html#a1e6b94e667c5087bcd17801e4e4942a3" target="_top" xlink:title=" ">
<polygon fill="white" stroke="#666666" points="337,-722 263,-722 263,-703 337,-703 337,-722"/>
<text text-anchor="middle" x="300" y="-710" font-family="Consolas" font-size="10.00">find_coreGL</text>
</a>
</g>
</g>
<!-- Node4&#45;&gt;Node5 -->
<g id="edge4" class="edge">
<title>Node4&#45;&gt;Node5</title>
<path fill="none" stroke="#63b8ff" d="M195.12,-370.26C199.29,-372.68 203.07,-375.72 206,-379.5 292.29,-490.9 152.37,-585.76 242,-694.5 244.89,-698 248.45,-700.84 252.38,-703.12"/>
<polygon fill="#63b8ff" stroke="#63b8ff" points="250.77,-706.24 261.33,-707.14 253.64,-699.85 250.77,-706.24"/>
</g>
<!-- Node6 -->
<g id="node6" class="node">
<title>Node6</title>
<g id="a_node6"><a xlink:href="../../de/d21/glad_8c.html#aec888869187731b49111dfbea5f7cd56" target="_top" xlink:title=" ">
<polygon fill="white" stroke="#666666" points="353,-685 247,-685 247,-666 353,-666 353,-685"/>
<text text-anchor="middle" x="300" y="-673" font-family="Consolas" font-size="10.00">find_extensionsGL</text>
</a>
</g>
</g>
<!-- Node4&#45;&gt;Node6 -->
<g id="edge5" class="edge">
<title>Node4&#45;&gt;Node6</title>
<path fill="none" stroke="#63b8ff" d="M195.06,-370.3C199.24,-372.72 203.04,-375.74 206,-379.5 283.03,-477.42 162.04,-561.96 242,-657.5 242.26,-657.81 242.52,-658.11 242.78,-658.4"/>
<polygon fill="#63b8ff" stroke="#63b8ff" points="240.55,-661.1 250.52,-664.69 244.97,-655.67 240.55,-661.1"/>
</g>
<!-- Node10 -->
<g id="node10" class="node">
<title>Node10</title>
<g id="a_node10"><a xlink:href="../../de/d21/glad_8c.html#ac9cefadc8a6c809297856b3cb546d1d4" target="_top" xlink:title=" ">
<polygon fill="white" stroke="#666666" points="358,-648 242,-648 242,-629 358,-629 358,-648"/>
<text text-anchor="middle" x="300" y="-636" font-family="Consolas" font-size="10.00">load_GL_VERSION_1_0</text>
</a>
</g>
</g>
<!-- Node4&#45;&gt;Node10 -->
<g id="edge9" class="edge">
<title>Node4&#45;&gt;Node10</title>
<path fill="none" stroke="#63b8ff" d="M195,-370.36C199.18,-372.77 203,-375.77 206,-379.5 273.79,-463.96 171.69,-538.13 242,-620.5 242.26,-620.8 242.52,-621.1 242.79,-621.4"/>
<polygon fill="#63b8ff" stroke="#63b8ff" points="240.59,-624.12 250.58,-627.64 244.97,-618.65 240.59,-624.12"/>
</g>
<!-- Node11 -->
<g id="node11" class="node">
<title>Node11</title>
<g id="a_node11"><a xlink:href="../../de/d21/glad_8c.html#a35dbc78b11773681adc60e990fef7005" target="_top" xlink:title=" ">
<polygon fill="white" stroke="#666666" points="358,-611 242,-611 242,-592 358,-592 358,-611"/>
<text text-anchor="middle" x="300" y="-599" font-family="Consolas" font-size="10.00">load_GL_VERSION_1_1</text>
</a>
</g>
</g>
<!-- Node4&#45;&gt;Node11 -->
<g id="edge10" class="edge">
<title>Node4&#45;&gt;Node11</title>
<path fill="none" stroke="#63b8ff" d="M194.9,-370.43C199.1,-372.83 202.96,-375.81 206,-379.5 264.57,-450.54 181.31,-514.27 242,-583.5 242.35,-583.9 242.71,-584.29 243.08,-584.67"/>
<polygon fill="#63b8ff" stroke="#63b8ff" points="240.62,-587.19 250.66,-590.58 244.92,-581.67 240.62,-587.19"/>
</g>
<!-- Node12 -->
<g id="node12" class="node">
<title>Node12</title>
<g id="a_node12"><a xlink:href="../../de/d21/glad_8c.html#a577c4b9e1351249c243b007ecc4a975e" target="_top" xlink:title=" ">
<polygon fill="white" stroke="#666666" points="358,-574 242,-574 242,-555 358,-555 358,-574"/>
<text text-anchor="middle" x="300" y="-562" font-family="Consolas" font-size="10.00">load_GL_VERSION_1_2</text>
</a>
</g>
</g>
<!-- Node4&#45;&gt;Node12 -->
<g id="edge11" class="edge">
<title>Node4&#45;&gt;Node12</title>
<path fill="none" stroke="#63b8ff" d="M194.28,-370.27C198.69,-372.7 202.77,-375.72 206,-379.5 255.39,-437.16 190.88,-490.36 242,-546.5 242.37,-546.9 242.74,-547.3 243.13,-547.68"/>
<polygon fill="#63b8ff" stroke="#63b8ff" points="240.95,-550.42 251.04,-553.64 245.16,-544.83 240.95,-550.42"/>
</g>
<!-- Node13 -->
<g id="node13" class="node">
<title>Node13</title>
<g id="a_node13"><a xlink:href="../../de/d21/glad_8c.html#a64db1ca3b160134bd85d5121be77ab1c" target="_top" xlink:title=" ">
<polygon fill="white" stroke="#666666" points="358,-537 242,-537 242,-518 358,-518 358,-537"/>
<text text-anchor="middle" x="300" y="-525" font-family="Consolas" font-size="10.00">load_GL_VERSION_1_3</text>
</a>
</g>
</g>
<!-- Node4&#45;&gt;Node13 -->
<g id="edge12" class="edge">
<title>Node4&#45;&gt;Node13</title>
<path fill="none" stroke="#63b8ff" d="M194.08,-370.45C198.52,-372.85 202.66,-375.82 206,-379.5 246.3,-423.88 200.37,-466.36 242,-509.5 242.48,-510 242.98,-510.49 243.49,-510.96"/>
<polygon fill="#63b8ff" stroke="#63b8ff" points="241.31,-513.7 251.49,-516.65 245.36,-508 241.31,-513.7"/>
</g>
<!-- Node14 -->
<g id="node14" class="node">
<title>Node14</title>
<g id="a_node14"><a xlink:href="../../de/d21/glad_8c.html#a3fcc343e68a41abbf2aaf2898ba6c662" target="_top" xlink:title=" ">
<polygon fill="white" stroke="#666666" points="358,-500 242,-500 242,-481 358,-481 358,-500"/>
<text text-anchor="middle" x="300" y="-488" font-family="Consolas" font-size="10.00">load_GL_VERSION_1_4</text>
</a>
</g>
</g>
<!-- Node4&#45;&gt;Node14 -->
<g id="edge13" class="edge">
<title>Node4&#45;&gt;Node14</title>
<path fill="none" stroke="#63b8ff" d="M193,-370.38C197.77,-372.8 202.28,-375.8 206,-379.5 237.38,-410.8 209.68,-442.17 242,-472.5 242.76,-473.21 243.55,-473.9 244.37,-474.56"/>
<polygon fill="#63b8ff" stroke="#63b8ff" points="242.3,-477.39 252.61,-479.82 246.06,-471.49 242.3,-477.39"/>
</g>
<!-- Node15 -->
<g id="node15" class="node">
<title>Node15</title>
<g id="a_node15"><a xlink:href="../../de/d21/glad_8c.html#a5b8a4ead1fe41911c78f289e1e099c17" target="_top" xlink:title=" ">
<polygon fill="white" stroke="#666666" points="358,-463 242,-463 242,-444 358,-444 358,-463"/>
<text text-anchor="middle" x="300" y="-451" font-family="Consolas" font-size="10.00">load_GL_VERSION_1_5</text>
</a>
</g>
</g>
<!-- Node4&#45;&gt;Node15 -->
<g id="edge14" class="edge">
<title>Node4&#45;&gt;Node15</title>
<path fill="none" stroke="#63b8ff" d="M191.07,-370.49C196.39,-372.93 201.57,-375.9 206,-379.5 228.95,-398.17 218.49,-417.53 242,-435.5 243.31,-436.5 244.69,-437.45 246.1,-438.35"/>
<polygon fill="#63b8ff" stroke="#63b8ff" points="244.15,-441.28 254.63,-442.84 247.41,-435.09 244.15,-441.28"/>
</g>
<!-- Node16 -->
<g id="node16" class="node">
<title>Node16</title>
<g id="a_node16"><a xlink:href="../../de/d21/glad_8c.html#ada4838bbc696bf9bd3fee9945ae2fc62" target="_top" xlink:title=" ">
<polygon fill="white" stroke="#666666" points="358,-426 242,-426 242,-407 358,-407 358,-426"/>
<text text-anchor="middle" x="300" y="-414" font-family="Consolas" font-size="10.00">load_GL_VERSION_2_0</text>
</a>
</g>
</g>
<!-- Node4&#45;&gt;Node16 -->
<g id="edge15" class="edge">
<title>Node4&#45;&gt;Node16</title>
<path fill="none" stroke="#63b8ff" d="M184.23,-370.48C191.39,-373.24 199.04,-376.34 206,-379.5 222.47,-386.98 225.31,-391.53 242,-398.5 245.6,-400.01 249.38,-401.46 253.2,-402.84"/>
<polygon fill="#63b8ff" stroke="#63b8ff" points="251.95,-406.11 262.55,-406.04 254.22,-399.49 251.95,-406.11"/>
</g>
<!-- Node17 -->
<g id="node17" class="node">
<title>Node17</title>
<g id="a_node17"><a xlink:href="../../de/d21/glad_8c.html#a6b1ddad462fc87b8ca81a8228c81bf9f" target="_top" xlink:title=" ">
<polygon fill="white" stroke="#666666" points="358,-389 242,-389 242,-370 358,-370 358,-389"/>
<text text-anchor="middle" x="300" y="-377" font-family="Consolas" font-size="10.00">load_GL_VERSION_2_1</text>
</a>
</g>
</g>
<!-- Node4&#45;&gt;Node17 -->
<g id="edge16" class="edge">
<title>Node4&#45;&gt;Node17</title>
<path fill="none" stroke="#63b8ff" d="M206.34,-367.15C214.09,-368.18 222.2,-369.26 230.28,-370.34"/>
<polygon fill="#63b8ff" stroke="#63b8ff" points="229.75,-373.8 240.12,-371.65 230.67,-366.86 229.75,-373.8"/>
</g>
<!-- Node18 -->
<g id="node18" class="node">
<title>Node18</title>
<g id="a_node18"><a xlink:href="../../de/d21/glad_8c.html#a66fb68f92ff5be9c41e8fd9e3a0f1f22" target="_top" xlink:title=" ">
<polygon fill="white" stroke="#666666" points="358,-352 242,-352 242,-333 358,-333 358,-352"/>
<text text-anchor="middle" x="300" y="-340" font-family="Consolas" font-size="10.00">load_GL_VERSION_3_0</text>
</a>
</g>
</g>
<!-- Node4&#45;&gt;Node18 -->
<g id="edge17" class="edge">
<title>Node4&#45;&gt;Node18</title>
<path fill="none" stroke="#63b8ff" d="M206.34,-354.2C214.09,-353.23 222.2,-352.2 230.28,-351.18"/>
<polygon fill="#63b8ff" stroke="#63b8ff" points="230.64,-354.66 240.12,-349.94 229.76,-347.72 230.64,-354.66"/>
</g>
<!-- Node19 -->
<g id="node19" class="node">
<title>Node19</title>
<g id="a_node19"><a xlink:href="../../de/d21/glad_8c.html#aa0161dc921d58866d5c9384b365bfae7" target="_top" xlink:title=" ">
<polygon fill="white" stroke="#666666" points="358,-315 242,-315 242,-296 358,-296 358,-315"/>
<text text-anchor="middle" x="300" y="-303" font-family="Consolas" font-size="10.00">load_GL_VERSION_3_1</text>
</a>
</g>
</g>
<!-- Node4&#45;&gt;Node19 -->
<g id="edge18" class="edge">
<title>Node4&#45;&gt;Node19</title>
<path fill="none" stroke="#63b8ff" d="M185.51,-350.58C192.29,-348.09 199.45,-345.32 206,-342.5 222.43,-335.43 225.47,-331.35 242,-324.5 246.39,-322.68 251.02,-320.91 255.68,-319.22"/>
<polygon fill="#63b8ff" stroke="#63b8ff" points="256.73,-322.56 265.02,-315.96 254.43,-315.95 256.73,-322.56"/>
</g>
<!-- Node20 -->
<g id="node20" class="node">
<title>Node20</title>
<g id="a_node20"><a xlink:href="../../de/d21/glad_8c.html#aa4ad9ec346eeec0578169e552b802662" target="_top" xlink:title=" ">
<polygon fill="white" stroke="#666666" points="358,-278 242,-278 242,-259 358,-259 358,-278"/>
<text text-anchor="middle" x="300" y="-266" font-family="Consolas" font-size="10.00">load_GL_VERSION_3_2</text>
</a>
</g>
</g>
<!-- Node4&#45;&gt;Node20 -->
<g id="edge19" class="edge">
<title>Node4&#45;&gt;Node20</title>
<path fill="none" stroke="#63b8ff" d="M192.58,-350.53C197.36,-348.33 201.99,-345.68 206,-342.5 228.9,-324.36 218.86,-305.33 242,-287.5 243.95,-286 246.02,-284.61 248.17,-283.34"/>
<polygon fill="#63b8ff" stroke="#63b8ff" points="249.33,-286.67 256.7,-279.07 246.19,-280.42 249.33,-286.67"/>
</g>
<!-- Node21 -->
<g id="node21" class="node">
<title>Node21</title>
<g id="a_node21"><a xlink:href="../../de/d21/glad_8c.html#a5b35a05be99645aebc78627b564fb0be" target="_top" xlink:title=" ">
<polygon fill="white" stroke="#666666" points="358,-241 242,-241 242,-222 358,-222 358,-241"/>
<text text-anchor="middle" x="300" y="-229" font-family="Consolas" font-size="10.00">load_GL_VERSION_3_3</text>
</a>
</g>
</g>
<!-- Node4&#45;&gt;Node21 -->
<g id="edge20" class="edge">
<title>Node4&#45;&gt;Node21</title>
<path fill="none" stroke="#63b8ff" d="M194.22,-350.75C198.53,-348.54 202.6,-345.82 206,-342.5 237.42,-311.83 210.17,-280.74 242,-250.5 243.21,-249.35 244.48,-248.28 245.81,-247.27"/>
<polygon fill="#63b8ff" stroke="#63b8ff" points="247.29,-250.47 254.01,-242.28 243.65,-244.49 247.29,-250.47"/>
</g>
<!-- Node22 -->
<g id="node22" class="node">
<title>Node22</title>
<g id="a_node22"><a xlink:href="../../de/d21/glad_8c.html#afd687e92ccc3435db99eb010fc5565a4" target="_top" xlink:title=" ">
<polygon fill="white" stroke="#666666" points="358,-204 242,-204 242,-185 358,-185 358,-204"/>
<text text-anchor="middle" x="300" y="-192" font-family="Consolas" font-size="10.00">load_GL_VERSION_4_0</text>
</a>
</g>
</g>
<!-- Node4&#45;&gt;Node22 -->
<g id="edge21" class="edge">
<title>Node4&#45;&gt;Node22</title>
<path fill="none" stroke="#63b8ff" d="M195.53,-350.54C199.41,-348.37 203.02,-345.72 206,-342.5 246.45,-298.83 200.97,-256.62 242,-213.5 242.99,-212.46 244.04,-211.47 245.14,-210.54"/>
<polygon fill="#63b8ff" stroke="#63b8ff" points="246.72,-213.7 253.12,-205.25 242.85,-207.86 246.72,-213.7"/>
</g>
<!-- Node23 -->
<g id="node23" class="node">
<title>Node23</title>
<g id="a_node23"><a xlink:href="../../de/d21/glad_8c.html#ab46b2b729425b5bb92c402e7b08c90fa" target="_top" xlink:title=" ">
<polygon fill="white" stroke="#666666" points="358,-167 242,-167 242,-148 358,-148 358,-167"/>
<text text-anchor="middle" x="300" y="-155" font-family="Consolas" font-size="10.00">load_GL_VERSION_4_1</text>
</a>
</g>
</g>
<!-- Node4&#45;&gt;Node23 -->
<g id="edge22" class="edge">
<title>Node4&#45;&gt;Node23</title>
<path fill="none" stroke="#63b8ff" d="M195.71,-350.71C199.57,-348.51 203.11,-345.81 206,-342.5 255.65,-285.63 191.58,-232.69 242,-176.5 242.84,-175.57 243.72,-174.68 244.64,-173.84"/>
<polygon fill="#63b8ff" stroke="#63b8ff" points="246.46,-176.84 252.64,-168.23 242.44,-171.11 246.46,-176.84"/>
</g>
<!-- Node24 -->
<g id="node24" class="node">
<title>Node24</title>
<g id="a_node24"><a xlink:href="../../de/d21/glad_8c.html#a34c73452306d56278046dd284ec050bd" target="_top" xlink:title=" ">
<polygon fill="white" stroke="#666666" points="358,-130 242,-130 242,-111 358,-111 358,-130"/>
<text text-anchor="middle" x="300" y="-118" font-family="Consolas" font-size="10.00">load_GL_VERSION_4_2</text>
</a>
</g>
</g>
<!-- Node4&#45;&gt;Node24 -->
<g id="edge23" class="edge">
<title>Node4&#45;&gt;Node24</title>
<path fill="none" stroke="#63b8ff" d="M196.32,-350.54C199.96,-348.36 203.29,-345.72 206,-342.5 264.94,-272.35 182.11,-208.85 242,-139.5 242.7,-138.69 243.44,-137.91 244.21,-137.17"/>
<polygon fill="#63b8ff" stroke="#63b8ff" points="246.24,-140.02 252.24,-131.29 242.11,-134.37 246.24,-140.02"/>
</g>
<!-- Node25 -->
<g id="node25" class="node">
<title>Node25</title>
<g id="a_node25"><a xlink:href="../../de/d21/glad_8c.html#ac96c85fb3086e40f55ecc2a85e88f940" target="_top" xlink:title=" ">
<polygon fill="white" stroke="#666666" points="358,-93 242,-93 242,-74 358,-74 358,-93"/>
<text text-anchor="middle" x="300" y="-81" font-family="Consolas" font-size="10.00">load_GL_VERSION_4_3</text>
</a>
</g>
</g>
<!-- Node4&#45;&gt;Node25 -->
<g id="edge24" class="edge">
<title>Node4&#45;&gt;Node25</title>
<path fill="none" stroke="#63b8ff" d="M196.4,-350.61C200.03,-348.42 203.34,-345.76 206,-342.5 274.28,-259 172.6,-185.07 242,-102.5 242.68,-101.7 243.39,-100.93 244.13,-100.19"/>
<polygon fill="#63b8ff" stroke="#63b8ff" points="245.98,-103.17 251.88,-94.37 241.78,-97.57 245.98,-103.17"/>
</g>
<!-- Node26 -->
<g id="node26" class="node">
<title>Node26</title>
<g id="a_node26"><a xlink:href="../../de/d21/glad_8c.html#a3379f8fef4545548f7508288d9f23d91" target="_top" xlink:title=" ">
<polygon fill="white" stroke="#666666" points="358,-56 242,-56 242,-37 358,-37 358,-56"/>
<text text-anchor="middle" x="300" y="-44" font-family="Consolas" font-size="10.00">load_GL_VERSION_4_4</text>
</a>
</g>
</g>
<!-- Node4&#45;&gt;Node26 -->
<g id="edge25" class="edge">
<title>Node4&#45;&gt;Node26</title>
<path fill="none" stroke="#63b8ff" d="M196.47,-350.66C200.09,-348.47 203.37,-345.78 206,-342.5 283.64,-245.63 163.06,-161.32 242,-65.5 242.67,-64.69 243.37,-63.91 244.11,-63.17"/>
<polygon fill="#63b8ff" stroke="#63b8ff" points="245.97,-66.15 251.81,-57.32 241.73,-60.58 245.97,-66.15"/>
</g>
<!-- Node27 -->
<g id="node27" class="node">
<title>Node27</title>
<g id="a_node27"><a xlink:href="../../de/d21/glad_8c.html#a09519edf390523b7e1eda978dc24fc0e" target="_top" xlink:title=" ">
<polygon fill="white" stroke="#666666" points="358,-19 242,-19 242,0 358,0 358,-19"/>
<text text-anchor="middle" x="300" y="-7" font-family="Consolas" font-size="10.00">load_GL_VERSION_4_5</text>
</a>
</g>
</g>
<!-- Node4&#45;&gt;Node27 -->
<g id="edge26" class="edge">
<title>Node4&#45;&gt;Node27</title>
<path fill="none" stroke="#63b8ff" d="M196.52,-350.7C200.13,-348.5 203.39,-345.8 206,-342.5 293.27,-231.87 152.37,-136.24 242,-27.5 242.25,-27.2 242.5,-26.9 242.76,-26.61"/>
<polygon fill="#63b8ff" stroke="#63b8ff" points="244.74,-29.52 250.21,-20.44 240.28,-24.12 244.74,-29.52"/>
</g>
<!-- Node7 -->
<g id="node7" class="node">
<title>Node7</title>
<g id="a_node7"><a xlink:href="../../de/d21/glad_8c.html#a250a03ed54f517313be3fb311c1d0929" target="_top" xlink:title=" ">
<polygon fill="white" stroke="#666666" points="458,-722 394,-722 394,-703 458,-703 458,-722"/>
<text text-anchor="middle" x="426" y="-710" font-family="Consolas" font-size="10.00">free_exts</text>
</a>
</g>
</g>
<!-- Node6&#45;&gt;Node7 -->
<g id="edge6" class="edge">
<title>Node6&#45;&gt;Node7</title>
<path fill="none" stroke="#63b8ff" d="M334.23,-685.42C349.27,-689.9 367.21,-695.26 383.15,-700.01"/>
<polygon fill="#63b8ff" stroke="#63b8ff" points="381.78,-703.26 392.36,-702.76 383.78,-696.55 381.78,-703.26"/>
</g>
<!-- Node8 -->
<g id="node8" class="node">
<title>Node8</title>
<g id="a_node8"><a xlink:href="../../de/d21/glad_8c.html#abfb50eb07d43a6e366811edf9feff173" target="_top" xlink:title=" ">
<polygon fill="white" stroke="#666666" points="455.5,-685 396.5,-685 396.5,-666 455.5,-666 455.5,-685"/>
<text text-anchor="middle" x="426" y="-673" font-family="Consolas" font-size="10.00">get_exts</text>
</a>
</g>
</g>
<!-- Node6&#45;&gt;Node8 -->
<g id="edge7" class="edge">
<title>Node6&#45;&gt;Node8</title>
<path fill="none" stroke="#63b8ff" d="M353.23,-675.5C363.79,-675.5 374.74,-675.5 384.81,-675.5"/>
<polygon fill="#63b8ff" stroke="#63b8ff" points="384.64,-679 394.64,-675.5 384.64,-672 384.64,-679"/>
</g>
<!-- Node9 -->
<g id="node9" class="node">
<title>Node9</title>
<g id="a_node9"><a xlink:href="../../de/d21/glad_8c.html#abfdc555a06ed44e71045a703a7d43951" target="_top" xlink:title=" ">
<polygon fill="white" stroke="#666666" points="452.5,-648 399.5,-648 399.5,-629 452.5,-629 452.5,-648"/>
<text text-anchor="middle" x="426" y="-636" font-family="Consolas" font-size="10.00">has_ext</text>
</a>
</g>
</g>
<!-- Node6&#45;&gt;Node9 -->
<g id="edge8" class="edge">
<title>Node6&#45;&gt;Node9</title>
<path fill="none" stroke="#63b8ff" d="M334.23,-665.58C350.94,-660.6 371.24,-654.54 388.4,-649.42"/>
<polygon fill="#63b8ff" stroke="#63b8ff" points="389.12,-652.86 397.7,-646.65 387.12,-646.15 389.12,-652.86"/>
</g>
</g>
</svg>
        <g id="navigator" transform="translate(0 0)" fill="#404254">
                <rect fill="#f2f5e9" fill-opacity="0.5" stroke="#606060" stroke-width=".5" x="0" y="0" width="60" height="60"/>
                <use id="zoomplus" xlink:href="#zoomPlus" x="17" y="9" onmousedown="handleZoom(evt,'in')"/>
                <use id="zoomminus" xlink:href="#zoomMin" x="42" y="9" onmousedown="handleZoom(evt,'out')"/>
                <use id="reset" xlink:href="#resetDef" x="30" y="36" onmousedown="handleReset()"/>
                <g id="arrowUp" xlink:href="#dirArrow" transform="translate(30 24)" onmousedown="handlePan(0,-1)">
                  <use xlink:href="#rim" fill="#404040">
                        <set attributeName="fill" to="#808080" begin="arrowUp.mouseover" end="arrowUp.mouseout"/>
                  </use>
                  <path fill="none" stroke="white" stroke-width="1.5" d="M0,-3.0v7 M-2.5,-0.5L0,-3.0L2.5,-0.5"/>
                </g>
                <g id="arrowRight" xlink:href="#dirArrow" transform="rotate(90) translate(36 -43)" onmousedown="handlePan(1,0)">
                  <use xlink:href="#rim" fill="#404040">
                        <set attributeName="fill" to="#808080" begin="arrowRight.mouseover" end="arrowRight.mouseout"/>
                  </use>
                  <path fill="none" stroke="white" stroke-width="1.5" d="M0,-3.0v7 M-2.5,-0.5L0,-3.0L2.5,-0.5"/>
                </g>
                <g id="arrowDown" xlink:href="#dirArrow" transform="rotate(180) translate(-30 -48)" onmousedown="handlePan(0,1)">
                  <use xlink:href="#rim" fill="#404040">
                        <set attributeName="fill" to="#808080" begin="arrowDown.mouseover" end="arrowDown.mouseout"/>
                  </use>
                  <path fill="none" stroke="white" stroke-width="1.5" d="M0,-3.0v7 M-2.5,-0.5L0,-3.0L2.5,-0.5"/>
                </g>
                <g id="arrowLeft" xlink:href="#dirArrow" transform="rotate(270) translate(-36 17)" onmousedown="handlePan(-1,0)">
                  <use xlink:href="#rim" fill="#404040">
                        <set attributeName="fill" to="#808080" begin="arrowLeft.mouseover" end="arrowLeft.mouseout"/>
                  </use>
                  <path fill="none" stroke="white" stroke-width="1.5" d="M0,-3.0v7 M-2.5,-0.5L0,-3.0L2.5,-0.5"/>
                </g>
        </g>
        <svg viewBox="0 0 15 15" width="100%" height="30px" preserveAspectRatio="xMaxYMin meet">
         <g id="arrow_out" transform="scale(0.3 0.3)">
          <a xlink:href="glad_8c_a137453294a2756a898902ef399b3d437_cgraph_org.svg" target="_base">
           <rect id="button" ry="5" rx="5" y="6" x="6" height="38" width="38"
                fill="#f2f5e9" fill-opacity="0.5" stroke="#606060" stroke-width="1.0"/>
           <path id="arrow"
             d="M 11.500037,31.436501 C 11.940474,20.09759 22.043105,11.32322 32.158766,21.979434 L 37.068811,17.246167 C 37.068811,17.246167 37.088388,32 37.088388,32 L 22.160133,31.978069 C 22.160133,31.978069 26.997745,27.140456 26.997745,27.140456 C 18.528582,18.264221 13.291696,25.230495 11.500037,31.436501 z"
             style="fill:#404040;"/>
          </a>
         </g>
        </svg>
</svg>
