<?xml version="1.0" encoding="UTF-8" standalone="no"?>
<!DOCTYPE svg PUBLIC "-//W3C//DTD SVG 1.1//EN"
 "http://www.w3.org/Graphics/SVG/1.1/DTD/svg11.dtd">
<!-- Generated by graphviz version 7.0.6 (20230106.0513)
 -->
<!-- Title: Graph Legend Pages: 1 -->
<svg width="545pt" height="159pt"
 viewBox="0.00 0.00 544.50 159.00" xmlns="http://www.w3.org/2000/svg" xmlns:xlink="http://www.w3.org/1999/xlink">
<g id="graph0" class="graph" transform="scale(1 1) rotate(0) translate(4 155)">
<title>Graph Legend</title>
<!-- Node9 -->
<g id="node1" class="node">
<title>Node9</title>
<g id="a_node1"><a xlink:title=" ">
<polygon fill="#999999" stroke="#666666" points="306.5,-19 242.5,-19 242.5,0 306.5,0 306.5,-19"/>
<text text-anchor="middle" x="274.5" y="-7" font-family="Consolas" font-size="10.00">Inherited</text>
</a>
</g>
</g>
<!-- Node10 -->
<g id="node2" class="node">
<title>Node10</title>
<g id="a_node2"><a xlink:href="url.html" xlink:title=" ">
<polygon fill="white" stroke="#666666" points="69,-85 0,-85 0,-66 69,-66 69,-85"/>
<text text-anchor="middle" x="34.5" y="-73" font-family="Consolas" font-size="10.00">PublicBase</text>
</a>
</g>
</g>
<!-- Node10&#45;&gt;Node9 -->
<g id="edge1" class="edge">
<title>Node10&#45;&gt;Node9</title>
<path fill="none" stroke="#63b8ff" d="M78.98,-62.64C126.35,-50.01 200.18,-30.32 242.25,-19.1"/>
<polygon fill="#63b8ff" stroke="#63b8ff" points="78.35,-59.19 69.59,-65.14 80.15,-65.95 78.35,-59.19"/>
</g>
<!-- Node11 -->
<g id="node3" class="node">
<title>Node11</title>
<g id="a_node3"><a xlink:href="url.html" xlink:title=" ">
<polygon fill="#fff0f0" stroke="red" points="66.5,-151 2.5,-151 2.5,-132 66.5,-132 66.5,-151"/>
<text text-anchor="middle" x="34.5" y="-139" font-family="Consolas" font-size="10.00">Truncated</text>
</a>
</g>
</g>
<!-- Node11&#45;&gt;Node10 -->
<g id="edge2" class="edge">
<title>Node11&#45;&gt;Node10</title>
<path fill="none" stroke="#63b8ff" d="M34.5,-120.18C34.5,-108.44 34.5,-94.27 34.5,-85.32"/>
<polygon fill="#63b8ff" stroke="#63b8ff" points="31,-120.09 34.5,-130.09 38,-120.09 31,-120.09"/>
</g>
<!-- Node13 -->
<g id="node4" class="node">
<title>Node13</title>
<polygon fill="white" stroke="#666666" points="172,-85 87,-85 87,-66 172,-66 172,-85"/>
<text text-anchor="middle" x="129.5" y="-73" font-family="Consolas" font-size="10.00">ProtectedBase</text>
</g>
<!-- Node13&#45;&gt;Node9 -->
<g id="edge3" class="edge">
<title>Node13&#45;&gt;Node9</title>
<path fill="none" stroke="darkgreen" d="M159.85,-61.1C188.31,-48.54 230.03,-30.13 254.51,-19.32"/>
<polygon fill="darkgreen" stroke="darkgreen" points="158.78,-57.75 151.05,-64.99 161.61,-64.15 158.78,-57.75"/>
</g>
<!-- Node14 -->
<g id="node5" class="node">
<title>Node14</title>
<polygon fill="white" stroke="#666666" points="264.5,-85 190.5,-85 190.5,-66 264.5,-66 264.5,-85"/>
<text text-anchor="middle" x="227.5" y="-73" font-family="Consolas" font-size="10.00">PrivateBase</text>
</g>
<!-- Node14&#45;&gt;Node9 -->
<g id="edge4" class="edge">
<title>Node14&#45;&gt;Node9</title>
<path fill="none" stroke="#8b1a1a" d="M240.8,-56.4C249.7,-44.27 261.03,-28.84 268.02,-19.32"/>
<polygon fill="#8b1a1a" stroke="#8b1a1a" points="238.03,-54.25 234.93,-64.38 243.67,-58.39 238.03,-54.25"/>
</g>
<!-- Node15 -->
<g id="node6" class="node">
<title>Node15</title>
<g id="a_node6"><a xlink:title=" ">
<polygon fill="#e0e0e0" stroke="#999999" points="362.5,-85 282.5,-85 282.5,-66 362.5,-66 362.5,-85"/>
<text text-anchor="middle" x="322.5" y="-73" font-family="Consolas" font-size="10.00">Undocumented</text>
</a>
</g>
</g>
<!-- Node15&#45;&gt;Node9 -->
<g id="edge5" class="edge">
<title>Node15&#45;&gt;Node9</title>
<path fill="none" stroke="#63b8ff" d="M308.92,-56.4C299.83,-44.27 288.26,-28.84 281.12,-19.32"/>
<polygon fill="#63b8ff" stroke="#63b8ff" points="306.12,-58.49 314.92,-64.39 311.72,-54.29 306.12,-58.49"/>
</g>
<!-- Node16 -->
<g id="node7" class="node">
<title>Node16</title>
<polygon fill="white" stroke="#666666" points="460.5,-85 380.5,-85 380.5,-66 460.5,-66 460.5,-85"/>
<text text-anchor="middle" x="420.5" y="-73" font-family="Consolas" font-size="10.00">Templ&lt; int &gt;</text>
</g>
<!-- Node16&#45;&gt;Node9 -->
<g id="edge6" class="edge">
<title>Node16&#45;&gt;Node9</title>
<path fill="none" stroke="#63b8ff" d="M389.94,-61.1C361.29,-48.54 319.28,-30.13 294.63,-19.32"/>
<polygon fill="#63b8ff" stroke="#63b8ff" points="388.25,-64.18 398.81,-64.99 391.06,-57.77 388.25,-64.18"/>
</g>
<!-- Node17 -->
<g id="node8" class="node">
<title>Node17</title>
<polygon fill="white" stroke="#666666" points="455,-151 386,-151 386,-132 455,-132 455,-151"/>
<text text-anchor="middle" x="420.5" y="-139" font-family="Consolas" font-size="10.00">Templ&lt; T &gt;</text>
</g>
<!-- Node17&#45;&gt;Node16 -->
<g id="edge7" class="edge">
<title>Node17&#45;&gt;Node16</title>
<path fill="none" stroke="orange" stroke-dasharray="5,2" d="M420.5,-120.18C420.5,-108.44 420.5,-94.27 420.5,-85.32"/>
<polygon fill="orange" stroke="orange" points="417,-120.09 420.5,-130.09 424,-120.09 417,-120.09"/>
<text text-anchor="middle" x="439" y="-106" font-family="Consolas" font-size="10.00">&lt; int &gt;</text>
</g>
<!-- Node18 -->
<g id="node9" class="node">
<title>Node18</title>
<polygon fill="white" stroke="#666666" points="536.5,-85 478.5,-85 478.5,-66 536.5,-66 536.5,-85"/>
<text text-anchor="middle" x="507.5" y="-73" font-family="Consolas" font-size="10.00">Used</text>
</g>
<!-- Node18&#45;&gt;Node9 -->
<g id="edge8" class="edge">
<title>Node18&#45;&gt;Node9</title>
<path fill="none" stroke="#9a32cd" stroke-dasharray="5,2" d="M467.55,-63.53C422.15,-51.06 348.91,-30.94 306.9,-19.4"/>
<polygon fill="#9a32cd" stroke="#9a32cd" points="466.43,-66.85 477,-66.12 468.29,-60.1 466.43,-66.85"/>
<text text-anchor="middle" x="433.5" y="-40" font-family="Consolas" font-size="10.00">m_usedClass</text>
</g>
</g>
</svg>
