<?xml version="1.0" encoding="UTF-8" standalone="no"?>
<!DOCTYPE svg PUBLIC "-//W3C//DTD SVG 1.1//EN"
 "http://www.w3.org/Graphics/SVG/1.1/DTD/svg11.dtd">
<!-- Generated by graphviz version 7.0.6 (20230106.0513)
 -->
<!-- Title: Graphical Class Hierarchy Pages: 1 -->
<svg width="157pt" height="101pt"
 viewBox="0.00 0.00 157.00 101.00" xmlns="http://www.w3.org/2000/svg" xmlns:xlink="http://www.w3.org/1999/xlink">
<g id="graph0" class="graph" transform="scale(1 1) rotate(0) translate(4 97)">
<title>Graphical Class Hierarchy</title>
<!-- Node0 -->
<g id="node1" class="node">
<title>Node0</title>
<g id="a_node1"><a xlink:href="d3/d1f/class_f_d_t_data.html" target="_top" xlink:title="base class of data.">
<polygon fill="white" stroke="#666666" points="55,-56 0,-56 0,-37 55,-37 55,-56"/>
<text text-anchor="middle" x="27.5" y="-44" font-family="Helvetica,sans-Serif" font-size="10.00">FDTData</text>
</a>
</g>
</g>
<!-- Node1 -->
<g id="node2" class="node">
<title>Node1</title>
<g id="a_node2"><a xlink:href="df/db4/class_f_d_t_float.html" target="_top" xlink:title=" ">
<polygon fill="white" stroke="#666666" points="148,-93 92,-93 92,-74 148,-74 148,-93"/>
<text text-anchor="middle" x="120" y="-81" font-family="Helvetica,sans-Serif" font-size="10.00">FDTFloat</text>
</a>
</g>
</g>
<!-- Node0&#45;&gt;Node1 -->
<g id="edge1" class="edge">
<title>Node0&#45;&gt;Node1</title>
<path fill="none" stroke="#63b8ff" d="M63.28,-60.72C73.76,-65.01 85.04,-69.61 94.68,-73.56"/>
<polygon fill="#63b8ff" stroke="#63b8ff" points="64.73,-57.53 54.15,-56.99 62.09,-64.01 64.73,-57.53"/>
</g>
<!-- Node2 -->
<g id="node3" class="node">
<title>Node2</title>
<g id="a_node3"><a xlink:href="d2/d1e/class_f_d_t_int.html" target="_top" xlink:title=" ">
<polygon fill="white" stroke="#666666" points="142.5,-56 97.5,-56 97.5,-37 142.5,-37 142.5,-56"/>
<text text-anchor="middle" x="120" y="-44" font-family="Helvetica,sans-Serif" font-size="10.00">FDTInt</text>
</a>
</g>
</g>
<!-- Node0&#45;&gt;Node2 -->
<g id="edge2" class="edge">
<title>Node0&#45;&gt;Node2</title>
<path fill="none" stroke="#63b8ff" d="M66.58,-46.5C76.99,-46.5 87.92,-46.5 97.09,-46.5"/>
<polygon fill="#63b8ff" stroke="#63b8ff" points="66.68,-43 56.68,-46.5 66.68,-50 66.68,-43"/>
</g>
<!-- Node3 -->
<g id="node4" class="node">
<title>Node3</title>
<g id="a_node4"><a xlink:href="dc/deb/class_f_d_t_short.html" target="_top" xlink:title=" ">
<polygon fill="white" stroke="#666666" points="149,-19 91,-19 91,0 149,0 149,-19"/>
<text text-anchor="middle" x="120" y="-7" font-family="Helvetica,sans-Serif" font-size="10.00">FDTShort</text>
</a>
</g>
</g>
<!-- Node0&#45;&gt;Node3 -->
<g id="edge3" class="edge">
<title>Node0&#45;&gt;Node3</title>
<path fill="none" stroke="#63b8ff" d="M63.28,-32.28C73.76,-27.99 85.04,-23.39 94.68,-19.44"/>
<polygon fill="#63b8ff" stroke="#63b8ff" points="62.09,-28.99 54.15,-36.01 64.73,-35.47 62.09,-28.99"/>
</g>
</g>
</svg>
