<?xml version="1.0" encoding="UTF-8" standalone="no"?>
<!DOCTYPE svg PUBLIC "-//W3C//DTD SVG 1.1//EN"
 "http://www.w3.org/Graphics/SVG/1.1/DTD/svg11.dtd">
<!-- Generated by graphviz version 7.0.6 (20230106.0513)
 -->
<!-- Title: Graphical Class Hierarchy Pages: 1 -->
<svg width="156pt" height="101pt"
 viewBox="0.00 0.00 156.00 101.00" xmlns="http://www.w3.org/2000/svg" xmlns:xlink="http://www.w3.org/1999/xlink">
<g id="graph0" class="graph" transform="scale(1 1) rotate(0) translate(4 97)">
<title>Graphical Class Hierarchy</title>
<!-- Node0 -->
<g id="node1" class="node">
<title>Node0</title>
<g id="a_node1"><a xlink:href="d3/d1f/class_f_d_t_data.html" target="_top" xlink:title="base class of data.">
<polygon fill="white" stroke="#666666" points="53,-56 0,-56 0,-37 53,-37 53,-56"/>
<text text-anchor="middle" x="26.5" y="-44" font-family="Consolas" font-size="10.00">FDTData</text>
</a>
</g>
</g>
<!-- Node1 -->
<g id="node2" class="node">
<title>Node1</title>
<g id="a_node2"><a xlink:href="df/db4/class_f_d_t_float.html" target="_top" xlink:title=" ">
<polygon fill="white" stroke="#666666" points="148,-93 89,-93 89,-74 148,-74 148,-93"/>
<text text-anchor="middle" x="118.5" y="-81" font-family="Consolas" font-size="10.00">FDTFloat</text>
</a>
</g>
</g>
<!-- Node0&#45;&gt;Node1 -->
<g id="edge1" class="edge">
<title>Node0&#45;&gt;Node1</title>
<path fill="none" stroke="#63b8ff" d="M62.09,-60.72C72.51,-65.01 83.72,-69.61 93.32,-73.56"/>
<polygon fill="#63b8ff" stroke="#63b8ff" points="63.6,-57.56 53.02,-56.99 60.94,-64.03 63.6,-57.56"/>
</g>
<!-- Node2 -->
<g id="node3" class="node">
<title>Node2</title>
<g id="a_node3"><a xlink:href="d2/d1e/class_f_d_t_int.html" target="_top" xlink:title=" ">
<polygon fill="white" stroke="#666666" points="142.5,-56 94.5,-56 94.5,-37 142.5,-37 142.5,-56"/>
<text text-anchor="middle" x="118.5" y="-44" font-family="Consolas" font-size="10.00">FDTInt</text>
</a>
</g>
</g>
<!-- Node0&#45;&gt;Node2 -->
<g id="edge2" class="edge">
<title>Node0&#45;&gt;Node2</title>
<path fill="none" stroke="#63b8ff" d="M64.43,-46.5C74.44,-46.5 85,-46.5 94.04,-46.5"/>
<polygon fill="#63b8ff" stroke="#63b8ff" points="64.56,-43 54.56,-46.5 64.56,-50 64.56,-43"/>
</g>
<!-- Node3 -->
<g id="node4" class="node">
<title>Node3</title>
<g id="a_node4"><a xlink:href="dc/deb/class_f_d_t_short.html" target="_top" xlink:title=" ">
<polygon fill="white" stroke="#666666" points="148,-19 89,-19 89,0 148,0 148,-19"/>
<text text-anchor="middle" x="118.5" y="-7" font-family="Consolas" font-size="10.00">FDTShort</text>
</a>
</g>
</g>
<!-- Node0&#45;&gt;Node3 -->
<g id="edge3" class="edge">
<title>Node0&#45;&gt;Node3</title>
<path fill="none" stroke="#63b8ff" d="M62.09,-32.28C72.51,-27.99 83.72,-23.39 93.32,-19.44"/>
<polygon fill="#63b8ff" stroke="#63b8ff" points="60.94,-28.97 53.02,-36.01 63.6,-35.44 60.94,-28.97"/>
</g>
</g>
</svg>
