<?xml version="1.0" encoding="UTF-8" standalone="no"?>
<!DOCTYPE svg PUBLIC "-//W3C//DTD SVG 1.1//EN"
 "http://www.w3.org/Graphics/SVG/1.1/DTD/svg11.dtd">
<!-- Generated by graphviz version 7.1.0 (20230121.1956)
 -->
<!-- Title: Graphical Class Hierarchy Pages: 1 -->
<svg width="617pt" height="101pt"
 viewBox="0.00 0.00 617.00 101.00" xmlns="http://www.w3.org/2000/svg" xmlns:xlink="http://www.w3.org/1999/xlink">
<g id="graph0" class="graph" transform="scale(1 1) rotate(0) translate(4 97)">
<title>Graphical Class Hierarchy</title>
<!-- Node0 -->
<g id="node1" class="node">
<title>Node0</title>
<g id="a_node1"><a xlink:title=" ">
<polygon fill="#e0e0e0" stroke="#999999" points="74,-74 0,-74 0,-55 74,-55 74,-74"/>
<text text-anchor="middle" x="37" y="-62" font-family="Consolas" font-size="10.00">fcexception</text>
</a>
</g>
</g>
<!-- Node1 -->
<g id="node2" class="node">
<title>Node1</title>
<g id="a_node2"><a xlink:href="d7/d02/classfc_runtime_error.html" target="_top" xlink:title=" ">
<polygon fill="white" stroke="#666666" points="210.5,-93 120.5,-93 120.5,-74 210.5,-74 210.5,-93"/>
<text text-anchor="middle" x="165.5" y="-81" font-family="Consolas" font-size="10.00">fcRuntimeError</text>
</a>
</g>
</g>
<!-- Node0&#45;&gt;Node1 -->
<g id="edge1" class="edge">
<title>Node0&#45;&gt;Node1</title>
<path fill="none" stroke="#63b8ff" d="M85.35,-71.61C96.75,-73.32 108.89,-75.15 120.15,-76.84"/>
<polygon fill="#63b8ff" stroke="#63b8ff" points="86.16,-68.19 75.75,-70.17 85.12,-75.12 86.16,-68.19"/>
</g>
<!-- Node2 -->
<g id="node3" class="node">
<title>Node2</title>
<g id="a_node3"><a xlink:href="da/de6/classfc_runtime_exception.html" target="_top" xlink:title=" ">
<polygon fill="white" stroke="#666666" points="221,-56 110,-56 110,-37 221,-37 221,-56"/>
<text text-anchor="middle" x="165.5" y="-44" font-family="Consolas" font-size="10.00">fcRuntimeException</text>
</a>
</g>
</g>
<!-- Node0&#45;&gt;Node2 -->
<g id="edge2" class="edge">
<title>Node0&#45;&gt;Node2</title>
<path fill="none" stroke="#63b8ff" d="M85.55,-57.73C93.48,-56.61 101.76,-55.43 109.85,-54.28"/>
<polygon fill="#63b8ff" stroke="#63b8ff" points="85.16,-54.25 75.75,-59.13 86.14,-61.18 85.16,-54.25"/>
</g>
<!-- Node3 -->
<g id="node4" class="node">
<title>Node3</title>
<g id="a_node4"><a xlink:href="d2/d2a/classfc_array_index_out_of_bound_exception.html" target="_top" xlink:title=" ">
<polygon fill="white" stroke="#666666" points="436,-93 257,-93 257,-74 436,-74 436,-93"/>
<text text-anchor="middle" x="346.5" y="-81" font-family="Consolas" font-size="10.00">fcArrayIndexOutOfBoundException</text>
</a>
</g>
</g>
<!-- Node2&#45;&gt;Node3 -->
<g id="edge3" class="edge">
<title>Node2&#45;&gt;Node3</title>
<path fill="none" stroke="#63b8ff" d="M224.52,-58.74C235.32,-61 246.5,-63.33 257,-65.5 269.74,-68.13 283.53,-70.95 296.34,-73.56"/>
<polygon fill="#63b8ff" stroke="#63b8ff" points="225.45,-55.36 214.94,-56.73 224.01,-62.21 225.45,-55.36"/>
</g>
<!-- Node4 -->
<g id="node5" class="node">
<title>Node4</title>
<g id="a_node5"><a xlink:href="d5/df9/classfc_calc_exception.html" target="_top" xlink:title=" ">
<polygon fill="white" stroke="#666666" points="394,-56 299,-56 299,-37 394,-37 394,-56"/>
<text text-anchor="middle" x="346.5" y="-44" font-family="Consolas" font-size="10.00">fcCalcException</text>
</a>
</g>
</g>
<!-- Node2&#45;&gt;Node4 -->
<g id="edge4" class="edge">
<title>Node2&#45;&gt;Node4</title>
<path fill="none" stroke="#63b8ff" d="M232.46,-46.5C254.45,-46.5 278.48,-46.5 298.71,-46.5"/>
<polygon fill="#63b8ff" stroke="#63b8ff" points="232.69,-43 222.69,-46.5 232.69,-50 232.69,-43"/>
</g>
<!-- Node6 -->
<g id="node7" class="node">
<title>Node6</title>
<g id="a_node7"><a xlink:href="dc/dc4/classfc_syntax_exception.html" target="_top" xlink:title=" ">
<polygon fill="white" stroke="#666666" points="399.5,-19 293.5,-19 293.5,0 399.5,0 399.5,-19"/>
<text text-anchor="middle" x="346.5" y="-7" font-family="Consolas" font-size="10.00">fcSyntaxException</text>
</a>
</g>
</g>
<!-- Node2&#45;&gt;Node6 -->
<g id="edge6" class="edge">
<title>Node2&#45;&gt;Node6</title>
<path fill="none" stroke="#63b8ff" d="M225.62,-34.28C248.91,-29.47 275.31,-24.01 297.4,-19.44"/>
<polygon fill="#63b8ff" stroke="#63b8ff" points="225.04,-30.83 215.95,-36.28 226.45,-37.68 225.04,-30.83"/>
</g>
<!-- Node5 -->
<g id="node6" class="node">
<title>Node5</title>
<g id="a_node6"><a xlink:href="d9/dbc/classfc_division_zero_exception.html" target="_top" xlink:title=" ">
<polygon fill="white" stroke="#666666" points="609,-56 472,-56 472,-37 609,-37 609,-56"/>
<text text-anchor="middle" x="540.5" y="-44" font-family="Consolas" font-size="10.00">fcDivisionZeroException</text>
</a>
</g>
</g>
<!-- Node4&#45;&gt;Node5 -->
<g id="edge5" class="edge">
<title>Node4&#45;&gt;Node5</title>
<path fill="none" stroke="#63b8ff" d="M405.7,-46.5C426.48,-46.5 450.09,-46.5 471.62,-46.5"/>
<polygon fill="#63b8ff" stroke="#63b8ff" points="405.98,-43 395.98,-46.5 405.98,-50 405.98,-43"/>
</g>
</g>
</svg>
