<?xml version="1.0" encoding="UTF-8" standalone="no"?>
<!DOCTYPE svg PUBLIC "-//W3C//DTD SVG 1.1//EN"
 "http://www.w3.org/Graphics/SVG/1.1/DTD/svg11.dtd">
<!-- Generated by graphviz version 7.1.0 (20230121.1956)
 -->
<!-- Title: free_exts Pages: 1 -->
<svg width="456pt" height="64pt"
 viewBox="0.00 0.00 456.00 64.00" xmlns="http://www.w3.org/2000/svg" xmlns:xlink="http://www.w3.org/1999/xlink">
<g id="graph0" class="graph" transform="scale(1 1) rotate(0) translate(4 60)">
<title>free_exts</title>
<!-- Node1 -->
<g id="node1" class="node">
<title>Node1</title>
<g id="a_node1"><a xlink:title=" ">
<polygon fill="#999999" stroke="#666666" points="448,-37 384,-37 384,-18 448,-18 448,-37"/>
<text text-anchor="middle" x="416" y="-25" font-family="Consolas" font-size="10.00">free_exts</text>
</a>
</g>
</g>
<!-- Node2 -->
<g id="node2" class="node">
<title>Node2</title>
<g id="a_node2"><a xlink:href="$de/d21/glad_8c.html#aec888869187731b49111dfbea5f7cd56" xlink:title=" ">
<polygon fill="white" stroke="#666666" points="348,-37 242,-37 242,-18 348,-18 348,-37"/>
<text text-anchor="middle" x="295" y="-25" font-family="Consolas" font-size="10.00">find_extensionsGL</text>
</a>
</g>
</g>
<!-- Node1&#45;&gt;Node2 -->
<g id="edge1" class="edge">
<title>Node1&#45;&gt;Node2</title>
<path fill="none" stroke="#63b8ff" d="M372.29,-27.5C364.49,-27.5 356.27,-27.5 348.22,-27.5"/>
<polygon fill="#63b8ff" stroke="#63b8ff" points="372.22,-31 382.22,-27.5 372.22,-24 372.22,-31"/>
</g>
<!-- Node3 -->
<g id="node3" class="node">
<title>Node3</title>
<g id="a_node3"><a xlink:href="$de/d21/glad_8c.html#af70e4674f75bd3bbfedf7979607c65ef" xlink:title=" ">
<polygon fill="white" stroke="#666666" points="206,-37 105,-37 105,-18 206,-18 206,-37"/>
<text text-anchor="middle" x="155.5" y="-25" font-family="Consolas" font-size="10.00">gladLoadGLLoader</text>
</a>
</g>
</g>
<!-- Node2&#45;&gt;Node3 -->
<g id="edge2" class="edge">
<title>Node2&#45;&gt;Node3</title>
<path fill="none" stroke="#63b8ff" d="M230.38,-27.5C222.36,-27.5 214.24,-27.5 206.46,-27.5"/>
<polygon fill="#63b8ff" stroke="#63b8ff" points="230.11,-31 240.11,-27.5 230.11,-24 230.11,-31"/>
</g>
<!-- Node4 -->
<g id="node4" class="node">
<title>Node4</title>
<g id="a_node4"><a xlink:href="$de/d21/glad_8c.html#a137453294a2756a898902ef399b3d437" xlink:title=" ">
<polygon fill="white" stroke="#666666" points="69,-56 0,-56 0,-37 69,-37 69,-56"/>
<text text-anchor="middle" x="34.5" y="-44" font-family="Consolas" font-size="10.00">gladLoadGL</text>
</a>
</g>
</g>
<!-- Node3&#45;&gt;Node4 -->
<g id="edge3" class="edge">
<title>Node3&#45;&gt;Node4</title>
<path fill="none" stroke="#63b8ff" d="M93.4,-37.26C85.07,-38.59 76.78,-39.91 69.19,-41.12"/>
<polygon fill="#63b8ff" stroke="#63b8ff" points="93.91,-40.72 103.23,-35.69 92.8,-33.81 93.91,-40.72"/>
</g>
<!-- Node5 -->
<g id="node5" class="node">
<title>Node5</title>
<g id="a_node5"><a xlink:href="$df/d0a/main_8cpp.html#a3c04138a5bfe5d72780bb7e82a18e627" xlink:title=" ">
<polygon fill="white" stroke="#666666" points="53.5,-19 15.5,-19 15.5,0 53.5,0 53.5,-19"/>
<text text-anchor="middle" x="34.5" y="-7" font-family="Consolas" font-size="10.00">main</text>
</a>
</g>
</g>
<!-- Node3&#45;&gt;Node5 -->
<g id="edge4" class="edge">
<title>Node3&#45;&gt;Node5</title>
<path fill="none" stroke="#63b8ff" d="M93.68,-18.3C79.2,-16.11 64.82,-13.94 53.98,-12.3"/>
<polygon fill="#63b8ff" stroke="#63b8ff" points="92.82,-21.71 103.23,-19.74 93.86,-14.79 92.82,-21.71"/>
</g>
</g>
</svg>
