<?xml version="1.0" encoding="UTF-8" standalone="no"?>
<!DOCTYPE svg PUBLIC "-//W3C//DTD SVG 1.1//EN"
 "http://www.w3.org/Graphics/SVG/1.1/DTD/svg11.dtd">
<!-- Generated by graphviz version 7.1.0 (20230121.1956)
 -->
<!-- Title: src/data Pages: 1 -->
<svg width="266pt" height="204pt"
 viewBox="0.00 0.00 266.00 204.00" xmlns="http://www.w3.org/2000/svg" xmlns:xlink="http://www.w3.org/1999/xlink">
<g id="graph0" class="graph" transform="scale(1 1) rotate(0) translate(4 200)">
<title>src/data</title>
<g id="clust1" class="cluster">
<title>clusterdir_68267d1309a1af8e8297ef4c3efbcdba</title>
<g id="a_clust1"><a xlink:href="dir_68267d1309a1af8e8297ef4c3efbcdba.html" target="_top" xlink:title="src">
<polygon fill="#eff5ee" stroke="#404040" stroke-dasharray="5,2" points="8,-8 8,-188 250,-188 250,-8 8,-8"/>
<text text-anchor="middle" x="129" y="-176" font-family="Consolas" font-size="10.00">src</text>
</a>
</g>
</g>
<g id="clust2" class="cluster">
<title>clusterdir_c1be8d27e7f84178e95f152701110b19</title>
<g id="a_clust2"><a xlink:href="dir_c1be8d27e7f84178e95f152701110b19.html" target="_top">
<polygon fill="#eff5ee" stroke="#404040" stroke-width="2" points="16,-16 16,-161 242,-161 242,-16 16,-16"/>
</a>
</g>
</g>
<!-- dir_c1be8d27e7f84178e95f152701110b19 -->
<g id="node1" class="node">
<title>dir_c1be8d27e7f84178e95f152701110b19</title>
<text text-anchor="middle" x="205" y="-141" font-family="Consolas" font-size="10.00">data</text>
</g>
<!-- dir_3e3e364c7cb178d9ad02ad88ddd73d94 -->
<g id="node2" class="node">
<title>dir_3e3e364c7cb178d9ad02ad88ddd73d94</title>
<g id="a_node2"><a xlink:href="dir_3e3e364c7cb178d9ad02ad88ddd73d94.html" target="_top" xlink:title="block">
<polygon fill="#afd0ab" stroke="#404040" points="158,-153 100,-153 100,-134 158,-134 158,-153"/>
<text text-anchor="middle" x="129" y="-141" font-family="Consolas" font-size="10.00">block</text>
</a>
</g>
</g>
<!-- dir_953ade595e88858a65cb6b33ae6160b2 -->
<g id="node4" class="node">
<title>dir_953ade595e88858a65cb6b33ae6160b2</title>
<g id="a_node4"><a xlink:href="dir_953ade595e88858a65cb6b33ae6160b2.html" target="_top" xlink:title="item">
<polygon fill="#afd0ab" stroke="#404040" points="158,-98 100,-98 100,-79 158,-79 158,-98"/>
<text text-anchor="middle" x="129" y="-86" font-family="Consolas" font-size="10.00">item</text>
</a>
</g>
</g>
<!-- dir_3e3e364c7cb178d9ad02ad88ddd73d94&#45;&gt;dir_953ade595e88858a65cb6b33ae6160b2 -->
<g id="edge1" class="edge">
<title>dir_3e3e364c7cb178d9ad02ad88ddd73d94&#45;&gt;dir_953ade595e88858a65cb6b33ae6160b2</title>
<path fill="none" stroke="#63b8ff" d="M129,-133.75C129,-127.27 129,-118.16 129,-109.9"/>
<polygon fill="#63b8ff" stroke="#63b8ff" points="132.5,-109.96 129,-99.96 125.5,-109.96 132.5,-109.96"/>
<g id="a_edge1&#45;headlabel"><a xlink:href="dir_000000_000005.html" target="_top" xlink:title="1">
<text text-anchor="middle" x="135.34" y="-109.54" font-family="Calibri" font-size="10.00" fill="#63b8ff">1</text>
</a>
</g>
</g>
<!-- dir_8102366fe802bf7b0bdcf67ea8d3daab -->
<g id="node3" class="node">
<title>dir_8102366fe802bf7b0bdcf67ea8d3daab</title>
<g id="a_node3"><a xlink:href="dir_8102366fe802bf7b0bdcf67ea8d3daab.html" target="_top" xlink:title="file">
<polygon fill="#afd0ab" stroke="#404040" points="82,-153 24,-153 24,-134 82,-134 82,-153"/>
<text text-anchor="middle" x="53" y="-141" font-family="Consolas" font-size="10.00">file</text>
</a>
</g>
</g>
<!-- dir_06bde3aa094373782f478dac85588db7 -->
<g id="node5" class="node">
<title>dir_06bde3aa094373782f478dac85588db7</title>
<g id="a_node5"><a xlink:href="dir_06bde3aa094373782f478dac85588db7.html" target="_top" xlink:title="uuid">
<polygon fill="#afd0ab" stroke="#404040" points="158,-43 100,-43 100,-24 158,-24 158,-43"/>
<text text-anchor="middle" x="129" y="-31" font-family="Consolas" font-size="10.00">uuid</text>
</a>
</g>
</g>
<!-- dir_953ade595e88858a65cb6b33ae6160b2&#45;&gt;dir_06bde3aa094373782f478dac85588db7 -->
<g id="edge2" class="edge">
<title>dir_953ade595e88858a65cb6b33ae6160b2&#45;&gt;dir_06bde3aa094373782f478dac85588db7</title>
<path fill="none" stroke="#63b8ff" d="M129,-78.75C129,-72.27 129,-63.16 129,-54.9"/>
<polygon fill="#63b8ff" stroke="#63b8ff" points="132.5,-54.96 129,-44.96 125.5,-54.96 132.5,-54.96"/>
<g id="a_edge2&#45;headlabel"><a xlink:href="dir_000005_000007.html" target="_top" xlink:title="1">
<text text-anchor="middle" x="135.34" y="-54.54" font-family="Calibri" font-size="10.00" fill="#63b8ff">1</text>
</a>
</g>
</g>
</g>
</svg>
