<?xml version="1.0" encoding="UTF-8" standalone="no"?>
<!DOCTYPE svg PUBLIC "-//W3C//DTD SVG 1.1//EN"
 "http://www.w3.org/Graphics/SVG/1.1/DTD/svg11.dtd">
<!-- Generated by graphviz version 7.1.0 (20230121.1956)
 -->
<!-- Title: src/data/uuid/uuid.hpp Pages: 1 -->
<svg width="364pt" height="137pt"
 viewBox="0.00 0.00 364.00 137.00" xmlns="http://www.w3.org/2000/svg" xmlns:xlink="http://www.w3.org/1999/xlink">
<g id="graph0" class="graph" transform="scale(1 1) rotate(0) translate(4 133)">
<title>src/data/uuid/uuid.hpp</title>
<!-- Node1 -->
<g id="node1" class="node">
<title>Node1</title>
<g id="a_node1"><a xlink:title=" ">
<polygon fill="#999999" stroke="#666666" points="278,-129 146,-129 146,-110 278,-110 278,-129"/>
<text text-anchor="middle" x="212" y="-117" font-family="Consolas" font-size="10.00">src/data/uuid/uuid.hpp</text>
</a>
</g>
</g>
<!-- Node2 -->
<g id="node2" class="node">
<title>Node2</title>
<g id="a_node2"><a xlink:title=" ">
<polygon fill="#e0e0e0" stroke="#999999" points="74,-74 0,-74 0,-55 74,-55 74,-74"/>
<text text-anchor="middle" x="37" y="-62" font-family="Consolas" font-size="10.00">json/json.h</text>
</a>
</g>
</g>
<!-- Node1&#45;&gt;Node2 -->
<g id="edge1" class="edge">
<title>Node1&#45;&gt;Node2</title>
<path fill="none" stroke="#63b8ff" d="M182.31,-109.51C153.44,-100.76 109.36,-87.42 77.33,-77.71"/>
<polygon fill="#63b8ff" stroke="#63b8ff" points="78.57,-74.43 67.99,-74.88 76.54,-81.13 78.57,-74.43"/>
</g>
<!-- Node3 -->
<g id="node3" class="node">
<title>Node3</title>
<g id="a_node3"><a xlink:href="../../d5/d89/fcexceptions_8hpp.html" target="_top" xlink:title=" ">
<polygon fill="white" stroke="#666666" points="224,-74 92,-74 92,-55 224,-55 224,-74"/>
<text text-anchor="middle" x="158" y="-62" font-family="Consolas" font-size="10.00">../../fcexceptions.hpp</text>
</a>
</g>
</g>
<!-- Node1&#45;&gt;Node3 -->
<g id="edge2" class="edge">
<title>Node1&#45;&gt;Node3</title>
<path fill="none" stroke="#63b8ff" d="M203.08,-109.75C195.55,-102.35 184.53,-91.54 175.27,-82.45"/>
<polygon fill="#63b8ff" stroke="#63b8ff" points="177.78,-80.01 168.19,-75.5 172.88,-85 177.78,-80.01"/>
</g>
<!-- Node6 -->
<g id="node6" class="node">
<title>Node6</title>
<g id="a_node6"><a xlink:title=" ">
<polygon fill="#e0e0e0" stroke="#999999" points="290,-74 242,-74 242,-55 290,-55 290,-74"/>
<text text-anchor="middle" x="266" y="-62" font-family="Consolas" font-size="10.00">string</text>
</a>
</g>
</g>
<!-- Node1&#45;&gt;Node6 -->
<g id="edge5" class="edge">
<title>Node1&#45;&gt;Node6</title>
<path fill="none" stroke="#63b8ff" d="M220.92,-109.75C228.45,-102.35 239.47,-91.54 248.73,-82.45"/>
<polygon fill="#63b8ff" stroke="#63b8ff" points="251.12,-85 255.81,-75.5 246.22,-80.01 251.12,-85"/>
</g>
<!-- Node7 -->
<g id="node7" class="node">
<title>Node7</title>
<g id="a_node7"><a xlink:title=" ">
<polygon fill="#e0e0e0" stroke="#999999" points="356,-74 308,-74 308,-55 356,-55 356,-74"/>
<text text-anchor="middle" x="332" y="-62" font-family="Consolas" font-size="10.00">random</text>
</a>
</g>
</g>
<!-- Node1&#45;&gt;Node7 -->
<g id="edge6" class="edge">
<title>Node1&#45;&gt;Node7</title>
<path fill="none" stroke="#63b8ff" d="M232.36,-109.51C251.35,-101.12 279.93,-88.5 301.62,-78.92"/>
<polygon fill="#63b8ff" stroke="#63b8ff" points="302.83,-82.21 310.56,-74.97 300,-75.81 302.83,-82.21"/>
</g>
<!-- Node4 -->
<g id="node4" class="node">
<title>Node4</title>
<g id="a_node4"><a xlink:title=" ">
<polygon fill="#e0e0e0" stroke="#999999" points="146,-19 82,-19 82,0 146,0 146,-19"/>
<text text-anchor="middle" x="114" y="-7" font-family="Consolas" font-size="10.00">exception</text>
</a>
</g>
</g>
<!-- Node3&#45;&gt;Node4 -->
<g id="edge3" class="edge">
<title>Node3&#45;&gt;Node4</title>
<path fill="none" stroke="#63b8ff" d="M150.73,-54.75C144.72,-47.5 135.99,-36.98 128.54,-28.02"/>
<polygon fill="#63b8ff" stroke="#63b8ff" points="131.47,-26.07 122.39,-20.61 126.08,-30.54 131.47,-26.07"/>
</g>
<!-- Node5 -->
<g id="node5" class="node">
<title>Node5</title>
<g id="a_node5"><a xlink:href="../../db/d91/fcenums_8hpp.html" target="_top" xlink:title=" ">
<polygon fill="white" stroke="#666666" points="238,-19 164,-19 164,0 238,0 238,-19"/>
<text text-anchor="middle" x="201" y="-7" font-family="Consolas" font-size="10.00">fcenums.hpp</text>
</a>
</g>
</g>
<!-- Node3&#45;&gt;Node5 -->
<g id="edge4" class="edge">
<title>Node3&#45;&gt;Node5</title>
<path fill="none" stroke="#63b8ff" d="M165.1,-54.75C170.92,-47.58 179.33,-37.2 186.56,-28.3"/>
<polygon fill="#63b8ff" stroke="#63b8ff" points="189.21,-30.59 192.79,-20.62 183.77,-26.18 189.21,-30.59"/>
</g>
</g>
</svg>
