<?xml version="1.0" encoding="UTF-8" standalone="no"?>
<!DOCTYPE svg PUBLIC "-//W3C//DTD SVG 1.1//EN"
 "http://www.w3.org/Graphics/SVG/1.1/DTD/svg11.dtd">
<!-- Generated by graphviz version 7.1.0 (20230121.1956)
 -->
<!-- Title: src/main.cpp Pages: 1 -->
<svg width="395pt" height="137pt"
 viewBox="0.00 0.00 394.50 137.00" xmlns="http://www.w3.org/2000/svg" xmlns:xlink="http://www.w3.org/1999/xlink">
<g id="graph0" class="graph" transform="scale(1 1) rotate(0) translate(4 133)">
<title>src/main.cpp</title>
<!-- Node1 -->
<g id="node1" class="node">
<title>Node1</title>
<g id="a_node1"><a xlink:title=" ">
<polygon fill="#999999" stroke="#666666" points="213,-129 133,-129 133,-110 213,-110 213,-129"/>
<text text-anchor="middle" x="173" y="-117" font-family="Consolas" font-size="10.00">src/main.cpp</text>
</a>
</g>
</g>
<!-- Node2 -->
<g id="node2" class="node">
<title>Node2</title>
<g id="a_node2"><a xlink:title=" ">
<polygon fill="#e0e0e0" stroke="#999999" points="74,-19 0,-19 0,0 74,0 74,-19"/>
<text text-anchor="middle" x="37" y="-7" font-family="Consolas" font-size="10.00">glad/glad.h</text>
</a>
</g>
</g>
<!-- Node1&#45;&gt;Node2 -->
<g id="edge1" class="edge">
<title>Node1&#45;&gt;Node2</title>
<path fill="none" stroke="#63b8ff" d="M161.87,-109.66C138.96,-91.47 86.23,-49.6 57.16,-26.51"/>
<polygon fill="#63b8ff" stroke="#63b8ff" points="59.48,-23.88 49.47,-20.4 55.12,-29.36 59.48,-23.88"/>
</g>
<!-- Node3 -->
<g id="node3" class="node">
<title>Node3</title>
<g id="a_node3"><a xlink:title=" ">
<polygon fill="#e0e0e0" stroke="#999999" points="172,-19 92,-19 92,0 172,0 172,-19"/>
<text text-anchor="middle" x="132" y="-7" font-family="Consolas" font-size="10.00">glfw/glfw3.h</text>
</a>
</g>
</g>
<!-- Node1&#45;&gt;Node3 -->
<g id="edge2" class="edge">
<title>Node1&#45;&gt;Node3</title>
<path fill="none" stroke="#63b8ff" d="M166.49,-109.76C160.35,-101.1 151.31,-87.25 146,-74 140.39,-60.01 136.83,-43.34 134.7,-30.6"/>
<polygon fill="#63b8ff" stroke="#63b8ff" points="138.19,-30.27 133.25,-20.89 131.26,-31.3 138.19,-30.27"/>
</g>
<!-- Node4 -->
<g id="node4" class="node">
<title>Node4</title>
<g id="a_node4"><a xlink:href="$d2/d4d/fcglsl_8hpp.html" xlink:title=" ">
<polygon fill="white" stroke="#666666" points="282.5,-74 155.5,-74 155.5,-55 282.5,-55 282.5,-74"/>
<text text-anchor="middle" x="219" y="-62" font-family="Consolas" font-size="10.00">./graphics/fcglsl.hpp</text>
</a>
</g>
</g>
<!-- Node1&#45;&gt;Node4 -->
<g id="edge3" class="edge">
<title>Node1&#45;&gt;Node4</title>
<path fill="none" stroke="#63b8ff" d="M180.6,-109.75C186.88,-102.5 196.01,-91.98 203.8,-83.02"/>
<polygon fill="#63b8ff" stroke="#63b8ff" points="206.34,-85.43 210.25,-75.59 201.05,-80.84 206.34,-85.43"/>
</g>
<!-- Node5 -->
<g id="node5" class="node">
<title>Node5</title>
<g id="a_node5"><a xlink:title=" ">
<polygon fill="#e0e0e0" stroke="#999999" points="386.5,-19 327.5,-19 327.5,0 386.5,0 386.5,-19"/>
<text text-anchor="middle" x="357" y="-7" font-family="Consolas" font-size="10.00">iostream</text>
</a>
</g>
</g>
<!-- Node1&#45;&gt;Node5 -->
<g id="edge9" class="edge">
<title>Node1&#45;&gt;Node5</title>
<path fill="none" stroke="#63b8ff" d="M208.1,-109.57C232.79,-102.31 265.93,-90.55 292,-74 311.69,-61.49 330.32,-42.25 342.55,-28.22"/>
<polygon fill="#63b8ff" stroke="#63b8ff" points="345.17,-30.55 348.95,-20.65 339.82,-26.03 345.17,-30.55"/>
</g>
<!-- Node4&#45;&gt;Node2 -->
<g id="edge7" class="edge">
<title>Node4&#45;&gt;Node2</title>
<path fill="none" stroke="#63b8ff" d="M188.13,-54.51C157.97,-45.73 111.86,-32.3 78.5,-22.59"/>
<polygon fill="#63b8ff" stroke="#63b8ff" points="79.75,-19.31 69.17,-19.87 77.8,-26.03 79.75,-19.31"/>
</g>
<!-- Node4&#45;&gt;Node3 -->
<g id="edge8" class="edge">
<title>Node4&#45;&gt;Node3</title>
<path fill="none" stroke="#63b8ff" d="M204.24,-54.51C191.04,-46.47 171.44,-34.53 155.99,-25.11"/>
<polygon fill="#63b8ff" stroke="#63b8ff" points="158.19,-22.36 147.83,-20.15 154.55,-28.34 158.19,-22.36"/>
</g>
<!-- Node4&#45;&gt;Node5 -->
<g id="edge4" class="edge">
<title>Node4&#45;&gt;Node5</title>
<path fill="none" stroke="#63b8ff" d="M242.41,-54.51C264.65,-45.97 298.33,-33.03 323.42,-23.4"/>
<polygon fill="#63b8ff" stroke="#63b8ff" points="324.44,-26.75 332.52,-19.9 321.93,-20.22 324.44,-26.75"/>
</g>
<!-- Node6 -->
<g id="node6" class="node">
<title>Node6</title>
<g id="a_node6"><a xlink:title=" ">
<polygon fill="#e0e0e0" stroke="#999999" points="309.5,-19 256.5,-19 256.5,0 309.5,0 309.5,-19"/>
<text text-anchor="middle" x="283" y="-7" font-family="Consolas" font-size="10.00">fstream</text>
</a>
</g>
</g>
<!-- Node4&#45;&gt;Node6 -->
<g id="edge5" class="edge">
<title>Node4&#45;&gt;Node6</title>
<path fill="none" stroke="#63b8ff" d="M229.86,-54.51C239.11,-46.85 252.62,-35.66 263.71,-26.47"/>
<polygon fill="#63b8ff" stroke="#63b8ff" points="265.67,-29.4 271.14,-20.32 261.2,-24.01 265.67,-29.4"/>
</g>
<!-- Node7 -->
<g id="node7" class="node">
<title>Node7</title>
<g id="a_node7"><a xlink:title=" ">
<polygon fill="#e0e0e0" stroke="#999999" points="238,-19 190,-19 190,0 238,0 238,-19"/>
<text text-anchor="middle" x="214" y="-7" font-family="Consolas" font-size="10.00">string</text>
</a>
</g>
</g>
<!-- Node4&#45;&gt;Node7 -->
<g id="edge6" class="edge">
<title>Node4&#45;&gt;Node7</title>
<path fill="none" stroke="#63b8ff" d="M218.17,-54.75C217.56,-48.27 216.7,-39.16 215.92,-30.9"/>
<polygon fill="#63b8ff" stroke="#63b8ff" points="219.41,-30.58 214.99,-20.95 212.44,-31.23 219.41,-30.58"/>
</g>
</g>
</svg>
