<?xml version="1.0" encoding="UTF-8" standalone="no"?>
<!DOCTYPE svg PUBLIC "-//W3C//DTD SVG 1.1//EN"
 "http://www.w3.org/Graphics/SVG/1.1/DTD/svg11.dtd">
<!-- Generated by graphviz version 7.1.0 (20230121.1956)
 -->
<!-- Title: src/data/block Pages: 1 -->
<svg width="98pt" height="133pt"
 viewBox="0.00 0.00 98.00 133.00" xmlns="http://www.w3.org/2000/svg" xmlns:xlink="http://www.w3.org/1999/xlink">
<g id="graph0" class="graph" transform="scale(1 1) rotate(0) translate(4 129)">
<title>src/data/block</title>
<g id="clust1" class="cluster">
<title>clusterdir_c1be8d27e7f84178e95f152701110b19</title>
<g id="a_clust1"><a xlink:href="dir_c1be8d27e7f84178e95f152701110b19.html" xlink:title="data">
<polygon fill="#eff5ee" stroke="#7f7f7f" stroke-dasharray="5,2" points="8,-8 8,-117 82,-117 82,-8 8,-8"/>
<text text-anchor="middle" x="45" y="-105" font-family="Consolas" font-size="10.00">data</text>
</a>
</g>
</g>
<!-- dir_953ade595e88858a65cb6b33ae6160b2 -->
<g id="node1" class="node">
<title>dir_953ade595e88858a65cb6b33ae6160b2</title>
<g id="a_node1"><a xlink:href="dir_953ade595e88858a65cb6b33ae6160b2.html" xlink:title="item">
<polygon fill="#afd0ab" stroke="#404040" points="74,-35 16,-35 16,-16 74,-16 74,-35"/>
<text text-anchor="middle" x="45" y="-23" font-family="Consolas" font-size="10.00">item</text>
</a>
</g>
</g>
<!-- dir_3e3e364c7cb178d9ad02ad88ddd73d94 -->
<g id="node2" class="node">
<title>dir_3e3e364c7cb178d9ad02ad88ddd73d94</title>
<g id="a_node2"><a xlink:href="dir_3e3e364c7cb178d9ad02ad88ddd73d94.html" xlink:title="block">
<polygon fill="#eff5ee" stroke="#404040" stroke-width="2" points="74,-90 16,-90 16,-71 74,-71 74,-90"/>
<text text-anchor="middle" x="45" y="-78" font-family="Consolas" font-size="10.00">block</text>
</a>
</g>
</g>
<!-- dir_3e3e364c7cb178d9ad02ad88ddd73d94&#45;&gt;dir_953ade595e88858a65cb6b33ae6160b2 -->
<g id="edge1" class="edge">
<title>dir_3e3e364c7cb178d9ad02ad88ddd73d94&#45;&gt;dir_953ade595e88858a65cb6b33ae6160b2</title>
<path fill="none" stroke="#63b8ff" d="M45,-70.75C45,-64.27 45,-55.16 45,-46.9"/>
<polygon fill="#63b8ff" stroke="#63b8ff" points="48.5,-46.96 45,-36.96 41.5,-46.96 48.5,-46.96"/>
<g id="a_edge1&#45;headlabel"><a xlink:href="dir_000000_000005.html" xlink:title="1">
<text text-anchor="middle" x="51.34" y="-46.54" font-family="Calibri" font-size="10.00" fill="#63b8ff">1</text>
</a>
</g>
</g>
</g>
</svg>
