<?xml version="1.0" encoding="UTF-8" standalone="no"?>
<!DOCTYPE svg PUBLIC "-//W3C//DTD SVG 1.1//EN"
 "http://www.w3.org/Graphics/SVG/1.1/DTD/svg11.dtd">
<!-- Generated by graphviz version 7.1.0 (20230121.1956)
 -->
<!-- Title: uuid::uuid Pages: 1 -->
<svg width="282pt" height="27pt"
 viewBox="0.00 0.00 282.00 27.00" xmlns="http://www.w3.org/2000/svg" xmlns:xlink="http://www.w3.org/1999/xlink">
<g id="graph0" class="graph" transform="scale(1 1) rotate(0) translate(4 23)">
<title>uuid::uuid</title>
<!-- Node1 -->
<g id="node1" class="node">
<title>Node1</title>
<g id="a_node1"><a xlink:title="Construct a new uuid object.">
<polygon fill="#999999" stroke="#666666" points="69,-19 0,-19 0,0 69,0 69,-19"/>
<text text-anchor="middle" x="34.5" y="-7" font-family="Consolas" font-size="10.00">uuid::uuid</text>
</a>
</g>
</g>
<!-- Node2 -->
<g id="node2" class="node">
<title>Node2</title>
<g id="a_node2"><a xlink:href="$db/d37/uuid_8cpp.html#a8429edbb20216a3072d6f6fc1617dae2" xlink:title=" ">
<polygon fill="white" stroke="#666666" points="179,-19 105,-19 105,0 179,0 179,-19"/>
<text text-anchor="middle" x="142" y="-7" font-family="Consolas" font-size="10.00">checksyntax</text>
</a>
</g>
</g>
<!-- Node1&#45;&gt;Node2 -->
<g id="edge1" class="edge">
<title>Node1&#45;&gt;Node2</title>
<path fill="none" stroke="#63b8ff" d="M69.46,-9.5C76.99,-9.5 85.1,-9.5 93.07,-9.5"/>
<polygon fill="#63b8ff" stroke="#63b8ff" points="93.04,-13 103.04,-9.5 93.04,-6 93.04,-13"/>
</g>
<!-- Node3 -->
<g id="node3" class="node">
<title>Node3</title>
<g id="a_node3"><a xlink:href="$db/d37/uuid_8cpp.html#a3efeef8ba54054f3fa430a9c0e21c07e" xlink:title=" ">
<polygon fill="white" stroke="#666666" points="274,-19 215,-19 215,0 274,0 274,-19"/>
<text text-anchor="middle" x="244.5" y="-7" font-family="Consolas" font-size="10.00">ishexnum</text>
</a>
</g>
</g>
<!-- Node2&#45;&gt;Node3 -->
<g id="edge2" class="edge">
<title>Node2&#45;&gt;Node3</title>
<path fill="none" stroke="#63b8ff" d="M179.28,-9.5C187.06,-9.5 195.33,-9.5 203.25,-9.5"/>
<polygon fill="#63b8ff" stroke="#63b8ff" points="203,-13 213,-9.5 203,-6 203,-13"/>
</g>
</g>
</svg>
