<?xml version="1.0" encoding="UTF-8" standalone="no"?>
<!DOCTYPE svg PUBLIC "-//W3C//DTD SVG 1.1//EN"
 "http://www.w3.org/Graphics/SVG/1.1/DTD/svg11.dtd">
<!-- Generated by graphviz version 7.1.0 (20230121.1956)
 -->
<!-- Title: src/graphics/fcglsl.hpp Pages: 1 -->
<svg width="244pt" height="82pt"
 viewBox="0.00 0.00 243.50 82.00" xmlns="http://www.w3.org/2000/svg" xmlns:xlink="http://www.w3.org/1999/xlink">
<g id="graph0" class="graph" transform="scale(1 1) rotate(0) translate(4 78)">
<title>src/graphics/fcglsl.hpp</title>
<!-- Node1 -->
<g id="node1" class="node">
<title>Node1</title>
<g id="a_node1"><a xlink:title=" ">
<polygon fill="#999999" stroke="#666666" points="200,-74 63,-74 63,-55 200,-55 200,-74"/>
<text text-anchor="middle" x="131.5" y="-62" font-family="Consolas" font-size="10.00">src/graphics/fcglsl.hpp</text>
</a>
</g>
</g>
<!-- Node2 -->
<g id="node2" class="node">
<title>Node2</title>
<g id="a_node2"><a xlink:href="$d8/dd0/fcglsl_8cpp.html" xlink:title=" ">
<polygon fill="white" stroke="#666666" points="137,-19 0,-19 0,0 137,0 137,-19"/>
<text text-anchor="middle" x="68.5" y="-7" font-family="Consolas" font-size="10.00">src/graphics/fcglsl.cpp</text>
</a>
</g>
</g>
<!-- Node1&#45;&gt;Node2 -->
<g id="edge1" class="edge">
<title>Node1&#45;&gt;Node2</title>
<path fill="none" stroke="#63b8ff" d="M112.32,-47.37C101.38,-38.16 88.09,-26.98 79.03,-19.36"/>
<polygon fill="#63b8ff" stroke="#63b8ff" points="109.75,-49.78 119.65,-53.53 114.26,-44.42 109.75,-49.78"/>
</g>
<!-- Node3 -->
<g id="node3" class="node">
<title>Node3</title>
<g id="a_node3"><a xlink:href="$df/d0a/main_8cpp.html" xlink:title=" ">
<polygon fill="white" stroke="#666666" points="235.5,-19 155.5,-19 155.5,0 235.5,0 235.5,-19"/>
<text text-anchor="middle" x="195.5" y="-7" font-family="Consolas" font-size="10.00">src/main.cpp</text>
</a>
</g>
</g>
<!-- Node1&#45;&gt;Node3 -->
<g id="edge2" class="edge">
<title>Node1&#45;&gt;Node3</title>
<path fill="none" stroke="#63b8ff" d="M150.98,-47.37C162.1,-38.16 175.6,-26.98 184.8,-19.36"/>
<polygon fill="#63b8ff" stroke="#63b8ff" points="148.99,-44.47 143.52,-53.54 153.46,-49.86 148.99,-44.47"/>
</g>
</g>
</svg>
