<?xml version="1.0" encoding="UTF-8" standalone="no"?>
<!DOCTYPE svg PUBLIC "-//W3C//DTD SVG 1.1//EN"
 "http://www.w3.org/Graphics/SVG/1.1/DTD/svg11.dtd">
<!-- Generated by graphviz version 7.1.0 (20230121.1956)
 -->
<!-- Title: src/data/uuid/uuid.hpp Pages: 1 -->
<svg width="374pt" height="137pt"
 viewBox="0.00 0.00 373.50 137.00" xmlns="http://www.w3.org/2000/svg" xmlns:xlink="http://www.w3.org/1999/xlink">
<g id="graph0" class="graph" transform="scale(1 1) rotate(0) translate(4 133)">
<title>src/data/uuid/uuid.hpp</title>
<!-- Node1 -->
<g id="node1" class="node">
<title>Node1</title>
<g id="a_node1"><a xlink:title=" ">
<polygon fill="#999999" stroke="#666666" points="290.5,-129 158.5,-129 158.5,-110 290.5,-110 290.5,-129"/>
<text text-anchor="middle" x="224.5" y="-117" font-family="Consolas" font-size="10.00">src/data/uuid/uuid.hpp</text>
</a>
</g>
</g>
<!-- Node2 -->
<g id="node2" class="node">
<title>Node2</title>
<g id="a_node2"><a xlink:href="../../d7/db7/item_8hpp.html" target="_top" xlink:title=" ">
<polygon fill="white" stroke="#666666" points="215.5,-74 83.5,-74 83.5,-55 215.5,-55 215.5,-74"/>
<text text-anchor="middle" x="149.5" y="-62" font-family="Consolas" font-size="10.00">src/data/item/item.hpp</text>
</a>
</g>
</g>
<!-- Node1&#45;&gt;Node2 -->
<g id="edge1" class="edge">
<title>Node1&#45;&gt;Node2</title>
<path fill="none" stroke="#63b8ff" d="M202.45,-102.92C189.28,-93.61 173.03,-82.13 162.03,-74.36"/>
<polygon fill="#63b8ff" stroke="#63b8ff" points="200.35,-105.72 210.54,-108.64 204.39,-100.01 200.35,-105.72"/>
</g>
<!-- Node5 -->
<g id="node5" class="node">
<title>Node5</title>
<g id="a_node5"><a xlink:href="../../db/d37/uuid_8cpp.html" target="_top" xlink:title=" ">
<polygon fill="white" stroke="#666666" points="365.5,-74 233.5,-74 233.5,-55 365.5,-55 365.5,-74"/>
<text text-anchor="middle" x="299.5" y="-62" font-family="Consolas" font-size="10.00">src/data/uuid/uuid.cpp</text>
</a>
</g>
</g>
<!-- Node1&#45;&gt;Node5 -->
<g id="edge4" class="edge">
<title>Node1&#45;&gt;Node5</title>
<path fill="none" stroke="#63b8ff" d="M246.55,-102.92C259.72,-93.61 275.97,-82.13 286.97,-74.36"/>
<polygon fill="#63b8ff" stroke="#63b8ff" points="244.61,-100.01 238.46,-108.64 248.65,-105.72 244.61,-100.01"/>
</g>
<!-- Node3 -->
<g id="node3" class="node">
<title>Node3</title>
<g id="a_node3"><a xlink:href="../../d9/db2/block_8hpp.html" target="_top" xlink:title=" ">
<polygon fill="white" stroke="#666666" points="143,-19 0,-19 0,0 143,0 143,-19"/>
<text text-anchor="middle" x="71.5" y="-7" font-family="Consolas" font-size="10.00">src/data/block/block.hpp</text>
</a>
</g>
</g>
<!-- Node2&#45;&gt;Node3 -->
<g id="edge2" class="edge">
<title>Node2&#45;&gt;Node3</title>
<path fill="none" stroke="#63b8ff" d="M126.97,-48.19C113.2,-38.84 96.09,-27.21 84.54,-19.36"/>
<polygon fill="#63b8ff" stroke="#63b8ff" points="124.78,-50.93 135.02,-53.66 128.71,-45.14 124.78,-50.93"/>
</g>
<!-- Node4 -->
<g id="node4" class="node">
<title>Node4</title>
<g id="a_node4"><a xlink:href="../../de/de4/item_8cpp.html" target="_top" xlink:title=" ">
<polygon fill="white" stroke="#666666" points="293.5,-19 161.5,-19 161.5,0 293.5,0 293.5,-19"/>
<text text-anchor="middle" x="227.5" y="-7" font-family="Consolas" font-size="10.00">src/data/item/item.cpp</text>
</a>
</g>
</g>
<!-- Node2&#45;&gt;Node4 -->
<g id="edge3" class="edge">
<title>Node2&#45;&gt;Node4</title>
<path fill="none" stroke="#63b8ff" d="M172.03,-48.19C185.8,-38.84 202.91,-27.21 214.46,-19.36"/>
<polygon fill="#63b8ff" stroke="#63b8ff" points="170.29,-45.14 163.98,-53.66 174.22,-50.93 170.29,-45.14"/>
</g>
</g>
</svg>
