<?xml version="1.0" encoding="UTF-8" standalone="no"?>
<!DOCTYPE svg PUBLIC "-//W3C//DTD SVG 1.1//EN"
 "http://www.w3.org/Graphics/SVG/1.1/DTD/svg11.dtd">
<!-- Generated by graphviz version 7.1.0 (20230121.1956)
 -->
<!-- Title: src/graphics/fcglsl.cpp Pages: 1 -->
<svg width="395pt" height="137pt"
 viewBox="0.00 0.00 394.50 137.00" xmlns="http://www.w3.org/2000/svg" xmlns:xlink="http://www.w3.org/1999/xlink">
<g id="graph0" class="graph" transform="scale(1 1) rotate(0) translate(4 133)">
<title>src/graphics/fcglsl.cpp</title>
<!-- Node1 -->
<g id="node1" class="node">
<title>Node1</title>
<g id="a_node1"><a xlink:title=" ">
<polygon fill="#999999" stroke="#666666" points="241,-129 104,-129 104,-110 241,-110 241,-129"/>
<text text-anchor="middle" x="172.5" y="-117" font-family="Consolas" font-size="10.00">src/graphics/fcglsl.cpp</text>
</a>
</g>
</g>
<!-- Node2 -->
<g id="node2" class="node">
<title>Node2</title>
<g id="a_node2"><a xlink:href="../../d2/d4d/fcglsl_8hpp.html" target="_top" xlink:title=" ">
<polygon fill="white" stroke="#666666" points="207,-74 138,-74 138,-55 207,-55 207,-74"/>
<text text-anchor="middle" x="172.5" y="-62" font-family="Consolas" font-size="10.00">fcglsl.hpp</text>
</a>
</g>
</g>
<!-- Node1&#45;&gt;Node2 -->
<g id="edge1" class="edge">
<title>Node1&#45;&gt;Node2</title>
<path fill="none" stroke="#63b8ff" d="M172.5,-109.75C172.5,-103.27 172.5,-94.16 172.5,-85.9"/>
<polygon fill="#63b8ff" stroke="#63b8ff" points="176,-85.96 172.5,-75.96 169,-85.96 176,-85.96"/>
</g>
<!-- Node3 -->
<g id="node3" class="node">
<title>Node3</title>
<g id="a_node3"><a xlink:title=" ">
<polygon fill="#e0e0e0" stroke="#999999" points="59,-19 0,-19 0,0 59,0 59,-19"/>
<text text-anchor="middle" x="29.5" y="-7" font-family="Consolas" font-size="10.00">iostream</text>
</a>
</g>
</g>
<!-- Node2&#45;&gt;Node3 -->
<g id="edge2" class="edge">
<title>Node2&#45;&gt;Node3</title>
<path fill="none" stroke="#63b8ff" d="M148.24,-54.51C125.09,-45.93 89.99,-32.92 63.94,-23.27"/>
<polygon fill="#63b8ff" stroke="#63b8ff" points="65.41,-20.08 54.82,-19.88 62.98,-26.64 65.41,-20.08"/>
</g>
<!-- Node4 -->
<g id="node4" class="node">
<title>Node4</title>
<g id="a_node4"><a xlink:title=" ">
<polygon fill="#e0e0e0" stroke="#999999" points="130,-19 77,-19 77,0 130,0 130,-19"/>
<text text-anchor="middle" x="103.5" y="-7" font-family="Consolas" font-size="10.00">fstream</text>
</a>
</g>
</g>
<!-- Node2&#45;&gt;Node4 -->
<g id="edge3" class="edge">
<title>Node2&#45;&gt;Node4</title>
<path fill="none" stroke="#63b8ff" d="M160.8,-54.51C150.72,-46.77 135.96,-35.43 123.94,-26.2"/>
<polygon fill="#63b8ff" stroke="#63b8ff" points="126.29,-23.6 116.23,-20.28 122.03,-29.15 126.29,-23.6"/>
</g>
<!-- Node5 -->
<g id="node5" class="node">
<title>Node5</title>
<g id="a_node5"><a xlink:title=" ">
<polygon fill="#e0e0e0" stroke="#999999" points="196.5,-19 148.5,-19 148.5,0 196.5,0 196.5,-19"/>
<text text-anchor="middle" x="172.5" y="-7" font-family="Consolas" font-size="10.00">string</text>
</a>
</g>
</g>
<!-- Node2&#45;&gt;Node5 -->
<g id="edge4" class="edge">
<title>Node2&#45;&gt;Node5</title>
<path fill="none" stroke="#63b8ff" d="M172.5,-54.75C172.5,-48.27 172.5,-39.16 172.5,-30.9"/>
<polygon fill="#63b8ff" stroke="#63b8ff" points="176,-30.96 172.5,-20.96 169,-30.96 176,-30.96"/>
</g>
<!-- Node6 -->
<g id="node6" class="node">
<title>Node6</title>
<g id="a_node6"><a xlink:title=" ">
<polygon fill="#e0e0e0" stroke="#999999" points="288.5,-19 214.5,-19 214.5,0 288.5,0 288.5,-19"/>
<text text-anchor="middle" x="251.5" y="-7" font-family="Consolas" font-size="10.00">glad/glad.h</text>
</a>
</g>
</g>
<!-- Node2&#45;&gt;Node6 -->
<g id="edge5" class="edge">
<title>Node2&#45;&gt;Node6</title>
<path fill="none" stroke="#63b8ff" d="M185.9,-54.51C197.66,-46.62 215.01,-34.98 228.91,-25.65"/>
<polygon fill="#63b8ff" stroke="#63b8ff" points="230.69,-28.68 237.04,-20.2 226.79,-22.87 230.69,-28.68"/>
</g>
<!-- Node7 -->
<g id="node7" class="node">
<title>Node7</title>
<g id="a_node7"><a xlink:title=" ">
<polygon fill="#e0e0e0" stroke="#999999" points="386.5,-19 306.5,-19 306.5,0 386.5,0 386.5,-19"/>
<text text-anchor="middle" x="346.5" y="-7" font-family="Consolas" font-size="10.00">glfw/glfw3.h</text>
</a>
</g>
</g>
<!-- Node2&#45;&gt;Node7 -->
<g id="edge6" class="edge">
<title>Node2&#45;&gt;Node7</title>
<path fill="none" stroke="#63b8ff" d="M202.02,-54.51C230.73,-45.76 274.55,-32.42 306.41,-22.71"/>
<polygon fill="#63b8ff" stroke="#63b8ff" points="307.14,-26.15 315.68,-19.89 305.1,-19.45 307.14,-26.15"/>
</g>
</g>
</svg>
