<?xml version="1.0" encoding="UTF-8" standalone="no"?>
<!DOCTYPE svg PUBLIC "-//W3C//DTD SVG 1.1//EN"
 "http://www.w3.org/Graphics/SVG/1.1/DTD/svg11.dtd">
<!-- Generated by graphviz version 7.1.0 (20230121.1956)
 -->
<!-- Title: main Pages: 1 -->
<svg width="471pt" height="730pt"
 viewBox="0.00 0.00 471.00 730.00" xmlns="http://www.w3.org/2000/svg" xmlns:xlink="http://www.w3.org/1999/xlink">
<g id="graph0" class="graph" transform="scale(1 1) rotate(0) translate(4 726)">
<title>main</title>
<!-- Node1 -->
<g id="node1" class="node">
<title>Node1</title>
<g id="a_node1"><a xlink:title=" ">
<polygon fill="#999999" stroke="#666666" points="38,-370 0,-370 0,-351 38,-351 38,-370"/>
<text text-anchor="middle" x="19" y="-358" font-family="Consolas" font-size="10.00">main</text>
</a>
</g>
</g>
<!-- Node2 -->
<g id="node2" class="node">
<title>Node2</title>
<g id="a_node2"><a xlink:href="../../df/d0a/main_8cpp.html#ad6d843569f32c27dfe18045f65cfb06e" target="_top" xlink:title=" ">
<polygon fill="white" stroke="#666666" points="211,-407 74,-407 74,-388 211,-388 211,-407"/>
<text text-anchor="middle" x="142.5" y="-395" font-family="Consolas" font-size="10.00">framebufferSizeCallback</text>
</a>
</g>
</g>
<!-- Node1&#45;&gt;Node2 -->
<g id="edge1" class="edge">
<title>Node1&#45;&gt;Node2</title>
<path fill="none" stroke="#63b8ff" d="M38.38,-367.36C48.77,-371.15 62.03,-375.81 74,-379.5 79.51,-381.2 85.3,-382.89 91.07,-384.51"/>
<polygon fill="#63b8ff" stroke="#63b8ff" points="90.06,-387.87 100.63,-387.14 91.92,-381.12 90.06,-387.87"/>
</g>
<!-- Node3 -->
<g id="node3" class="node">
<title>Node3</title>
<g id="a_node3"><a xlink:href="../../de/d21/glad_8c.html#af70e4674f75bd3bbfedf7979607c65ef" target="_top" xlink:title=" ">
<polygon fill="white" stroke="#666666" points="193,-370 92,-370 92,-351 193,-351 193,-370"/>
<text text-anchor="middle" x="142.5" y="-358" font-family="Consolas" font-size="10.00">gladLoadGLLoader</text>
</a>
</g>
</g>
<!-- Node1&#45;&gt;Node3 -->
<g id="edge2" class="edge">
<title>Node1&#45;&gt;Node3</title>
<path fill="none" stroke="#63b8ff" d="M38.45,-360.5C49.83,-360.5 65.14,-360.5 80.47,-360.5"/>
<polygon fill="#63b8ff" stroke="#63b8ff" points="80.07,-364 90.07,-360.5 80.07,-357 80.07,-364"/>
</g>
<!-- Node27 -->
<g id="node27" class="node">
<title>Node27</title>
<g id="a_node27"><a xlink:href="../../df/d0a/main_8cpp.html#a8c653c7d0cb3661d19a644ef5ad0b255" target="_top" xlink:title=" ">
<polygon fill="white" stroke="#666666" points="185,-333 100,-333 100,-314 185,-314 185,-333"/>
<text text-anchor="middle" x="142.5" y="-321" font-family="Consolas" font-size="10.00">inputCallback</text>
</a>
</g>
</g>
<!-- Node1&#45;&gt;Node27 -->
<g id="edge26" class="edge">
<title>Node1&#45;&gt;Node27</title>
<path fill="none" stroke="#63b8ff" d="M38.42,-354.12C48.83,-350.57 62.1,-346.16 74,-342.5 80.57,-340.48 87.52,-338.43 94.37,-336.46"/>
<polygon fill="#63b8ff" stroke="#63b8ff" points="94.86,-339.96 103.52,-333.85 92.94,-333.23 94.86,-339.96"/>
</g>
<!-- Node4 -->
<g id="node4" class="node">
<title>Node4</title>
<g id="a_node4"><a xlink:href="../../de/d21/glad_8c.html#a1e6b94e667c5087bcd17801e4e4942a3" target="_top" xlink:title=" ">
<polygon fill="white" stroke="#666666" points="342,-722 268,-722 268,-703 342,-703 342,-722"/>
<text text-anchor="middle" x="305" y="-710" font-family="Consolas" font-size="10.00">find_coreGL</text>
</a>
</g>
</g>
<!-- Node3&#45;&gt;Node4 -->
<g id="edge3" class="edge">
<title>Node3&#45;&gt;Node4</title>
<path fill="none" stroke="#63b8ff" d="M193.29,-367.08C200.04,-369.94 206.27,-373.94 211,-379.5 302.33,-486.81 157.37,-585.76 247,-694.5 249.89,-698 253.45,-700.84 257.38,-703.12"/>
<polygon fill="#63b8ff" stroke="#63b8ff" points="255.77,-706.24 266.33,-707.14 258.64,-699.85 255.77,-706.24"/>
</g>
<!-- Node5 -->
<g id="node5" class="node">
<title>Node5</title>
<g id="a_node5"><a xlink:href="../../de/d21/glad_8c.html#aec888869187731b49111dfbea5f7cd56" target="_top" xlink:title=" ">
<polygon fill="white" stroke="#666666" points="358,-685 252,-685 252,-666 358,-666 358,-685"/>
<text text-anchor="middle" x="305" y="-673" font-family="Consolas" font-size="10.00">find_extensionsGL</text>
</a>
</g>
</g>
<!-- Node3&#45;&gt;Node5 -->
<g id="edge4" class="edge">
<title>Node3&#45;&gt;Node5</title>
<path fill="none" stroke="#63b8ff" d="M193.22,-367.14C199.98,-369.99 206.22,-373.97 211,-379.5 292.46,-473.77 167.04,-561.96 247,-657.5 247.26,-657.81 247.52,-658.11 247.78,-658.4"/>
<polygon fill="#63b8ff" stroke="#63b8ff" points="245.55,-661.1 255.52,-664.69 249.97,-655.67 245.55,-661.1"/>
</g>
<!-- Node9 -->
<g id="node9" class="node">
<title>Node9</title>
<g id="a_node9"><a xlink:href="../../de/d21/glad_8c.html#ac9cefadc8a6c809297856b3cb546d1d4" target="_top" xlink:title=" ">
<polygon fill="white" stroke="#666666" points="363,-648 247,-648 247,-629 363,-629 363,-648"/>
<text text-anchor="middle" x="305" y="-636" font-family="Consolas" font-size="10.00">load_GL_VERSION_1_0</text>
</a>
</g>
</g>
<!-- Node3&#45;&gt;Node9 -->
<g id="edge8" class="edge">
<title>Node3&#45;&gt;Node9</title>
<path fill="none" stroke="#63b8ff" d="M193.46,-367.36C200.11,-370.2 206.25,-374.11 211,-379.5 282.6,-460.75 176.69,-538.13 247,-620.5 247.26,-620.8 247.52,-621.1 247.79,-621.4"/>
<polygon fill="#63b8ff" stroke="#63b8ff" points="245.59,-624.12 255.58,-627.64 249.97,-618.65 245.59,-624.12"/>
</g>
<!-- Node10 -->
<g id="node10" class="node">
<title>Node10</title>
<g id="a_node10"><a xlink:href="../../de/d21/glad_8c.html#a35dbc78b11773681adc60e990fef7005" target="_top" xlink:title=" ">
<polygon fill="white" stroke="#666666" points="363,-611 247,-611 247,-592 363,-592 363,-611"/>
<text text-anchor="middle" x="305" y="-599" font-family="Consolas" font-size="10.00">load_GL_VERSION_1_1</text>
</a>
</g>
</g>
<!-- Node3&#45;&gt;Node10 -->
<g id="edge9" class="edge">
<title>Node3&#45;&gt;Node10</title>
<path fill="none" stroke="#63b8ff" d="M193.33,-367.48C200,-370.29 206.18,-374.17 211,-379.5 272.78,-447.77 186.31,-514.27 247,-583.5 247.35,-583.9 247.71,-584.29 248.08,-584.67"/>
<polygon fill="#63b8ff" stroke="#63b8ff" points="245.62,-587.19 255.66,-590.58 249.92,-581.67 245.62,-587.19"/>
</g>
<!-- Node11 -->
<g id="node11" class="node">
<title>Node11</title>
<g id="a_node11"><a xlink:href="../../de/d21/glad_8c.html#a577c4b9e1351249c243b007ecc4a975e" target="_top" xlink:title=" ">
<polygon fill="white" stroke="#666666" points="363,-574 247,-574 247,-555 363,-555 363,-574"/>
<text text-anchor="middle" x="305" y="-562" font-family="Consolas" font-size="10.00">load_GL_VERSION_1_2</text>
</a>
</g>
</g>
<!-- Node3&#45;&gt;Node11 -->
<g id="edge10" class="edge">
<title>Node3&#45;&gt;Node11</title>
<path fill="none" stroke="#63b8ff" d="M193.5,-367.78C200.06,-370.57 206.16,-374.35 211,-379.5 263,-434.83 195.88,-490.36 247,-546.5 247.37,-546.9 247.74,-547.3 248.13,-547.68"/>
<polygon fill="#63b8ff" stroke="#63b8ff" points="245.95,-550.42 256.04,-553.64 250.16,-544.83 245.95,-550.42"/>
</g>
<!-- Node12 -->
<g id="node12" class="node">
<title>Node12</title>
<g id="a_node12"><a xlink:href="../../de/d21/glad_8c.html#a64db1ca3b160134bd85d5121be77ab1c" target="_top" xlink:title=" ">
<polygon fill="white" stroke="#666666" points="363,-537 247,-537 247,-518 363,-518 363,-537"/>
<text text-anchor="middle" x="305" y="-525" font-family="Consolas" font-size="10.00">load_GL_VERSION_1_3</text>
</a>
</g>
</g>
<!-- Node3&#45;&gt;Node12 -->
<g id="edge11" class="edge">
<title>Node3&#45;&gt;Node12</title>
<path fill="none" stroke="#63b8ff" d="M193.23,-368.04C199.83,-370.79 206.02,-374.5 211,-379.5 253.3,-421.98 205.37,-466.36 247,-509.5 247.48,-510 247.98,-510.49 248.49,-510.96"/>
<polygon fill="#63b8ff" stroke="#63b8ff" points="246.31,-513.7 256.49,-516.65 250.36,-508 246.31,-513.7"/>
</g>
<!-- Node13 -->
<g id="node13" class="node">
<title>Node13</title>
<g id="a_node13"><a xlink:href="../../de/d21/glad_8c.html#a3fcc343e68a41abbf2aaf2898ba6c662" target="_top" xlink:title=" ">
<polygon fill="white" stroke="#666666" points="363,-500 247,-500 247,-481 363,-481 363,-500"/>
<text text-anchor="middle" x="305" y="-488" font-family="Consolas" font-size="10.00">load_GL_VERSION_1_4</text>
</a>
</g>
</g>
<!-- Node3&#45;&gt;Node13 -->
<g id="edge12" class="edge">
<title>Node3&#45;&gt;Node13</title>
<path fill="none" stroke="#63b8ff" d="M193.49,-368.77C199.89,-371.42 205.96,-374.91 211,-379.5 243.79,-409.32 214.68,-442.17 247,-472.5 247.76,-473.21 248.55,-473.9 249.37,-474.56"/>
<polygon fill="#63b8ff" stroke="#63b8ff" points="247.3,-477.39 257.61,-479.82 251.06,-471.49 247.3,-477.39"/>
</g>
<!-- Node14 -->
<g id="node14" class="node">
<title>Node14</title>
<g id="a_node14"><a xlink:href="../../de/d21/glad_8c.html#a5b8a4ead1fe41911c78f289e1e099c17" target="_top" xlink:title=" ">
<polygon fill="white" stroke="#666666" points="363,-463 247,-463 247,-444 363,-444 363,-463"/>
<text text-anchor="middle" x="305" y="-451" font-family="Consolas" font-size="10.00">load_GL_VERSION_1_5</text>
</a>
</g>
</g>
<!-- Node3&#45;&gt;Node14 -->
<g id="edge13" class="edge">
<title>Node3&#45;&gt;Node14</title>
<path fill="none" stroke="#63b8ff" d="M193.39,-370.02C199.66,-372.48 205.71,-375.59 211,-379.5 234.79,-397.1 223.49,-417.53 247,-435.5 248.31,-436.5 249.69,-437.45 251.1,-438.35"/>
<polygon fill="#63b8ff" stroke="#63b8ff" points="249.15,-441.28 259.63,-442.84 252.41,-435.09 249.15,-441.28"/>
</g>
<!-- Node15 -->
<g id="node15" class="node">
<title>Node15</title>
<g id="a_node15"><a xlink:href="../../de/d21/glad_8c.html#ada4838bbc696bf9bd3fee9945ae2fc62" target="_top" xlink:title=" ">
<polygon fill="white" stroke="#666666" points="363,-426 247,-426 247,-407 363,-407 363,-426"/>
<text text-anchor="middle" x="305" y="-414" font-family="Consolas" font-size="10.00">load_GL_VERSION_2_0</text>
</a>
</g>
</g>
<!-- Node3&#45;&gt;Node15 -->
<g id="edge14" class="edge">
<title>Node3&#45;&gt;Node15</title>
<path fill="none" stroke="#63b8ff" d="M184.3,-370.48C193.22,-373.08 202.52,-376.11 211,-379.5 227.8,-386.21 230.31,-391.53 247,-398.5 250.6,-400.01 254.38,-401.46 258.2,-402.84"/>
<polygon fill="#63b8ff" stroke="#63b8ff" points="256.95,-406.11 267.55,-406.04 259.22,-399.49 256.95,-406.11"/>
</g>
<!-- Node16 -->
<g id="node16" class="node">
<title>Node16</title>
<g id="a_node16"><a xlink:href="../../de/d21/glad_8c.html#a6b1ddad462fc87b8ca81a8228c81bf9f" target="_top" xlink:title=" ">
<polygon fill="white" stroke="#666666" points="363,-389 247,-389 247,-370 363,-370 363,-389"/>
<text text-anchor="middle" x="305" y="-377" font-family="Consolas" font-size="10.00">load_GL_VERSION_2_1</text>
</a>
</g>
</g>
<!-- Node3&#45;&gt;Node16 -->
<g id="edge15" class="edge">
<title>Node3&#45;&gt;Node16</title>
<path fill="none" stroke="#63b8ff" d="M193.4,-366.41C206.69,-367.98 221.28,-369.71 235.38,-371.38"/>
<polygon fill="#63b8ff" stroke="#63b8ff" points="234.7,-374.82 245.05,-372.52 235.53,-367.87 234.7,-374.82"/>
</g>
<!-- Node17 -->
<g id="node17" class="node">
<title>Node17</title>
<g id="a_node17"><a xlink:href="../../de/d21/glad_8c.html#a66fb68f92ff5be9c41e8fd9e3a0f1f22" target="_top" xlink:title=" ">
<polygon fill="white" stroke="#666666" points="363,-352 247,-352 247,-333 363,-333 363,-352"/>
<text text-anchor="middle" x="305" y="-340" font-family="Consolas" font-size="10.00">load_GL_VERSION_3_0</text>
</a>
</g>
</g>
<!-- Node3&#45;&gt;Node17 -->
<g id="edge16" class="edge">
<title>Node3&#45;&gt;Node17</title>
<path fill="none" stroke="#63b8ff" d="M193.4,-354.9C206.69,-353.41 221.28,-351.78 235.38,-350.2"/>
<polygon fill="#63b8ff" stroke="#63b8ff" points="235.5,-353.7 245.05,-349.11 234.72,-346.75 235.5,-353.7"/>
</g>
<!-- Node18 -->
<g id="node18" class="node">
<title>Node18</title>
<g id="a_node18"><a xlink:href="../../de/d21/glad_8c.html#aa0161dc921d58866d5c9384b365bfae7" target="_top" xlink:title=" ">
<polygon fill="white" stroke="#666666" points="363,-315 247,-315 247,-296 363,-296 363,-315"/>
<text text-anchor="middle" x="305" y="-303" font-family="Consolas" font-size="10.00">load_GL_VERSION_3_1</text>
</a>
</g>
</g>
<!-- Node3&#45;&gt;Node18 -->
<g id="edge17" class="edge">
<title>Node3&#45;&gt;Node18</title>
<path fill="none" stroke="#63b8ff" d="M186.05,-350.56C194.42,-348.22 203.06,-345.51 211,-342.5 227.73,-336.16 230.47,-331.35 247,-324.5 251.39,-322.68 256.02,-320.91 260.68,-319.22"/>
<polygon fill="#63b8ff" stroke="#63b8ff" points="261.73,-322.56 270.02,-315.96 259.43,-315.95 261.73,-322.56"/>
</g>
<!-- Node19 -->
<g id="node19" class="node">
<title>Node19</title>
<g id="a_node19"><a xlink:href="../../de/d21/glad_8c.html#aa4ad9ec346eeec0578169e552b802662" target="_top" xlink:title=" ">
<polygon fill="white" stroke="#666666" points="363,-278 247,-278 247,-259 363,-259 363,-278"/>
<text text-anchor="middle" x="305" y="-266" font-family="Consolas" font-size="10.00">load_GL_VERSION_3_2</text>
</a>
</g>
</g>
<!-- Node3&#45;&gt;Node19 -->
<g id="edge18" class="edge">
<title>Node3&#45;&gt;Node19</title>
<path fill="none" stroke="#63b8ff" d="M193.34,-351.73C199.62,-349.36 205.69,-346.34 211,-342.5 234.68,-325.38 223.86,-305.33 247,-287.5 248.95,-286 251.02,-284.61 253.17,-283.34"/>
<polygon fill="#63b8ff" stroke="#63b8ff" points="254.33,-286.67 261.7,-279.07 251.19,-280.42 254.33,-286.67"/>
</g>
<!-- Node20 -->
<g id="node20" class="node">
<title>Node20</title>
<g id="a_node20"><a xlink:href="../../de/d21/glad_8c.html#a5b35a05be99645aebc78627b564fb0be" target="_top" xlink:title=" ">
<polygon fill="white" stroke="#666666" points="363,-241 247,-241 247,-222 363,-222 363,-241"/>
<text text-anchor="middle" x="305" y="-229" font-family="Consolas" font-size="10.00">load_GL_VERSION_3_3</text>
</a>
</g>
</g>
<!-- Node3&#45;&gt;Node20 -->
<g id="edge19" class="edge">
<title>Node3&#45;&gt;Node20</title>
<path fill="none" stroke="#63b8ff" d="M193.45,-352.99C199.86,-350.43 205.94,-347.03 211,-342.5 243.74,-313.25 215.17,-280.74 247,-250.5 248.21,-249.35 249.48,-248.28 250.81,-247.27"/>
<polygon fill="#63b8ff" stroke="#63b8ff" points="252.29,-250.47 259.01,-242.28 248.65,-244.49 252.29,-250.47"/>
</g>
<!-- Node21 -->
<g id="node21" class="node">
<title>Node21</title>
<g id="a_node21"><a xlink:href="../../de/d21/glad_8c.html#afd687e92ccc3435db99eb010fc5565a4" target="_top" xlink:title=" ">
<polygon fill="white" stroke="#666666" points="363,-204 247,-204 247,-185 363,-185 363,-204"/>
<text text-anchor="middle" x="305" y="-192" font-family="Consolas" font-size="10.00">load_GL_VERSION_4_0</text>
</a>
</g>
</g>
<!-- Node3&#45;&gt;Node21 -->
<g id="edge20" class="edge">
<title>Node3&#45;&gt;Node21</title>
<path fill="none" stroke="#63b8ff" d="M193.2,-353.73C199.8,-351.07 206,-347.45 211,-342.5 253.33,-300.65 205.97,-256.62 247,-213.5 247.99,-212.46 249.04,-211.47 250.14,-210.54"/>
<polygon fill="#63b8ff" stroke="#63b8ff" points="251.72,-213.7 258.12,-205.25 247.85,-207.86 251.72,-213.7"/>
</g>
<!-- Node22 -->
<g id="node22" class="node">
<title>Node22</title>
<g id="a_node22"><a xlink:href="../../de/d21/glad_8c.html#ab46b2b729425b5bb92c402e7b08c90fa" target="_top" xlink:title=" ">
<polygon fill="white" stroke="#666666" points="363,-167 247,-167 247,-148 363,-148 363,-167"/>
<text text-anchor="middle" x="305" y="-155" font-family="Consolas" font-size="10.00">load_GL_VERSION_4_1</text>
</a>
</g>
</g>
<!-- Node3&#45;&gt;Node22 -->
<g id="edge21" class="edge">
<title>Node3&#45;&gt;Node22</title>
<path fill="none" stroke="#63b8ff" d="M193.46,-353.99C200.02,-351.3 206.14,-347.59 211,-342.5 263.11,-287.88 196.58,-232.69 247,-176.5 247.84,-175.57 248.72,-174.68 249.64,-173.84"/>
<polygon fill="#63b8ff" stroke="#63b8ff" points="251.46,-176.84 257.64,-168.23 247.44,-171.11 251.46,-176.84"/>
</g>
<!-- Node23 -->
<g id="node23" class="node">
<title>Node23</title>
<g id="a_node23"><a xlink:href="../../de/d21/glad_8c.html#a34c73452306d56278046dd284ec050bd" target="_top" xlink:title=" ">
<polygon fill="white" stroke="#666666" points="363,-130 247,-130 247,-111 363,-111 363,-130"/>
<text text-anchor="middle" x="305" y="-118" font-family="Consolas" font-size="10.00">load_GL_VERSION_4_2</text>
</a>
</g>
</g>
<!-- Node3&#45;&gt;Node23 -->
<g id="edge22" class="edge">
<title>Node3&#45;&gt;Node23</title>
<path fill="none" stroke="#63b8ff" d="M193.3,-354.29C199.97,-351.57 206.16,-347.77 211,-342.5 272.98,-275.01 187.11,-208.85 247,-139.5 247.7,-138.69 248.44,-137.91 249.21,-137.17"/>
<polygon fill="#63b8ff" stroke="#63b8ff" points="251.24,-140.02 257.24,-131.29 247.11,-134.37 251.24,-140.02"/>
</g>
<!-- Node24 -->
<g id="node24" class="node">
<title>Node24</title>
<g id="a_node24"><a xlink:href="../../de/d21/glad_8c.html#ac96c85fb3086e40f55ecc2a85e88f940" target="_top" xlink:title=" ">
<polygon fill="white" stroke="#666666" points="363,-93 247,-93 247,-74 363,-74 363,-93"/>
<text text-anchor="middle" x="305" y="-81" font-family="Consolas" font-size="10.00">load_GL_VERSION_4_3</text>
</a>
</g>
</g>
<!-- Node3&#45;&gt;Node24 -->
<g id="edge23" class="edge">
<title>Node3&#45;&gt;Node24</title>
<path fill="none" stroke="#63b8ff" d="M193.42,-354.4C200.07,-351.67 206.23,-347.83 211,-342.5 282.89,-262.09 177.6,-185.07 247,-102.5 247.68,-101.7 248.39,-100.93 249.13,-100.19"/>
<polygon fill="#63b8ff" stroke="#63b8ff" points="250.98,-103.17 256.88,-94.37 246.78,-97.57 250.98,-103.17"/>
</g>
<!-- Node25 -->
<g id="node25" class="node">
<title>Node25</title>
<g id="a_node25"><a xlink:href="../../de/d21/glad_8c.html#a3379f8fef4545548f7508288d9f23d91" target="_top" xlink:title=" ">
<polygon fill="white" stroke="#666666" points="363,-56 247,-56 247,-37 363,-37 363,-56"/>
<text text-anchor="middle" x="305" y="-44" font-family="Consolas" font-size="10.00">load_GL_VERSION_4_4</text>
</a>
</g>
</g>
<!-- Node3&#45;&gt;Node25 -->
<g id="edge24" class="edge">
<title>Node3&#45;&gt;Node25</title>
<path fill="none" stroke="#63b8ff" d="M193.18,-354.63C199.95,-351.87 206.2,-347.97 211,-342.5 292.83,-249.14 168.06,-161.32 247,-65.5 247.67,-64.69 248.37,-63.91 249.11,-63.17"/>
<polygon fill="#63b8ff" stroke="#63b8ff" points="250.97,-66.15 256.81,-57.32 246.73,-60.58 250.97,-66.15"/>
</g>
<!-- Node26 -->
<g id="node26" class="node">
<title>Node26</title>
<g id="a_node26"><a xlink:href="../../de/d21/glad_8c.html#a09519edf390523b7e1eda978dc24fc0e" target="_top" xlink:title=" ">
<polygon fill="white" stroke="#666666" points="363,-19 247,-19 247,0 363,0 363,-19"/>
<text text-anchor="middle" x="305" y="-7" font-family="Consolas" font-size="10.00">load_GL_VERSION_4_5</text>
</a>
</g>
</g>
<!-- Node3&#45;&gt;Node26 -->
<g id="edge25" class="edge">
<title>Node3&#45;&gt;Node26</title>
<path fill="none" stroke="#63b8ff" d="M193.25,-354.69C200.01,-351.92 206.25,-348.01 211,-342.5 303.06,-235.82 157.37,-136.24 247,-27.5 247.25,-27.2 247.5,-26.9 247.76,-26.61"/>
<polygon fill="#63b8ff" stroke="#63b8ff" points="249.74,-29.52 255.21,-20.44 245.28,-24.12 249.74,-29.52"/>
</g>
<!-- Node6 -->
<g id="node6" class="node">
<title>Node6</title>
<g id="a_node6"><a xlink:href="../../de/d21/glad_8c.html#a250a03ed54f517313be3fb311c1d0929" target="_top" xlink:title=" ">
<polygon fill="white" stroke="#666666" points="463,-722 399,-722 399,-703 463,-703 463,-722"/>
<text text-anchor="middle" x="431" y="-710" font-family="Consolas" font-size="10.00">free_exts</text>
</a>
</g>
</g>
<!-- Node5&#45;&gt;Node6 -->
<g id="edge5" class="edge">
<title>Node5&#45;&gt;Node6</title>
<path fill="none" stroke="#63b8ff" d="M339.23,-685.42C354.27,-689.9 372.21,-695.26 388.15,-700.01"/>
<polygon fill="#63b8ff" stroke="#63b8ff" points="386.78,-703.26 397.36,-702.76 388.78,-696.55 386.78,-703.26"/>
</g>
<!-- Node7 -->
<g id="node7" class="node">
<title>Node7</title>
<g id="a_node7"><a xlink:href="../../de/d21/glad_8c.html#abfb50eb07d43a6e366811edf9feff173" target="_top" xlink:title=" ">
<polygon fill="white" stroke="#666666" points="460.5,-685 401.5,-685 401.5,-666 460.5,-666 460.5,-685"/>
<text text-anchor="middle" x="431" y="-673" font-family="Consolas" font-size="10.00">get_exts</text>
</a>
</g>
</g>
<!-- Node5&#45;&gt;Node7 -->
<g id="edge6" class="edge">
<title>Node5&#45;&gt;Node7</title>
<path fill="none" stroke="#63b8ff" d="M358.23,-675.5C368.79,-675.5 379.74,-675.5 389.81,-675.5"/>
<polygon fill="#63b8ff" stroke="#63b8ff" points="389.64,-679 399.64,-675.5 389.64,-672 389.64,-679"/>
</g>
<!-- Node8 -->
<g id="node8" class="node">
<title>Node8</title>
<g id="a_node8"><a xlink:href="../../de/d21/glad_8c.html#abfdc555a06ed44e71045a703a7d43951" target="_top" xlink:title=" ">
<polygon fill="white" stroke="#666666" points="457.5,-648 404.5,-648 404.5,-629 457.5,-629 457.5,-648"/>
<text text-anchor="middle" x="431" y="-636" font-family="Consolas" font-size="10.00">has_ext</text>
</a>
</g>
</g>
<!-- Node5&#45;&gt;Node8 -->
<g id="edge7" class="edge">
<title>Node5&#45;&gt;Node8</title>
<path fill="none" stroke="#63b8ff" d="M339.23,-665.58C355.94,-660.6 376.24,-654.54 393.4,-649.42"/>
<polygon fill="#63b8ff" stroke="#63b8ff" points="394.12,-652.86 402.7,-646.65 392.12,-646.15 394.12,-652.86"/>
</g>
</g>
</svg>
