<?xml version="1.0" encoding="UTF-8" standalone="no"?>
<!DOCTYPE svg PUBLIC "-//W3C//DTD SVG 1.1//EN"
 "http://www.w3.org/Graphics/SVG/1.1/DTD/svg11.dtd">
<!-- Generated by graphviz version 7.1.0 (20230121.1956)
 -->
<!-- Title: src/data/block/block.hpp Pages: 1 -->
<svg width="433pt" height="247pt"
 viewBox="0.00 0.00 433.00 247.00" xmlns="http://www.w3.org/2000/svg" xmlns:xlink="http://www.w3.org/1999/xlink">
<g id="graph0" class="graph" transform="scale(1 1) rotate(0) translate(4 243)">
<title>src/data/block/block.hpp</title>
<!-- Node1 -->
<g id="node1" class="node">
<title>Node1</title>
<g id="a_node1"><a xlink:title=" ">
<polygon fill="#999999" stroke="#666666" points="255.5,-239 112.5,-239 112.5,-220 255.5,-220 255.5,-239"/>
<text text-anchor="middle" x="184" y="-227" font-family="Consolas" font-size="10.00">src/data/block/block.hpp</text>
</a>
</g>
</g>
<!-- Node2 -->
<g id="node2" class="node">
<title>Node2</title>
<g id="a_node2"><a xlink:href="../../d7/db7/item_8hpp.html" target="_top" xlink:title=" ">
<polygon fill="white" stroke="#666666" points="234.5,-184 133.5,-184 133.5,-165 234.5,-165 234.5,-184"/>
<text text-anchor="middle" x="184" y="-172" font-family="Consolas" font-size="10.00">../item/item.hpp</text>
</a>
</g>
</g>
<!-- Node1&#45;&gt;Node2 -->
<g id="edge1" class="edge">
<title>Node1&#45;&gt;Node2</title>
<path fill="none" stroke="#63b8ff" d="M184,-219.75C184,-213.27 184,-204.16 184,-195.9"/>
<polygon fill="#63b8ff" stroke="#63b8ff" points="187.5,-195.96 184,-185.96 180.5,-195.96 187.5,-195.96"/>
</g>
<!-- Node3 -->
<g id="node3" class="node">
<title>Node3</title>
<g id="a_node3"><a xlink:title=" ">
<polygon fill="#e0e0e0" stroke="#999999" points="74,-74 0,-74 0,-55 74,-55 74,-74"/>
<text text-anchor="middle" x="37" y="-62" font-family="Consolas" font-size="10.00">json/json.h</text>
</a>
</g>
</g>
<!-- Node2&#45;&gt;Node3 -->
<g id="edge2" class="edge">
<title>Node2&#45;&gt;Node3</title>
<path fill="none" stroke="#63b8ff" d="M168.9,-164.64C154.48,-156.01 132.3,-142.28 114,-129 93.1,-113.83 70.43,-94.79 55.14,-81.54"/>
<polygon fill="#63b8ff" stroke="#63b8ff" points="57.63,-79.07 47.8,-75.12 53.02,-84.34 57.63,-79.07"/>
</g>
<!-- Node4 -->
<g id="node4" class="node">
<title>Node4</title>
<g id="a_node4"><a xlink:title=" ">
<polygon fill="#e0e0e0" stroke="#999999" points="327,-129 253,-129 253,-110 327,-110 327,-129"/>
<text text-anchor="middle" x="290" y="-117" font-family="Consolas" font-size="10.00">glad/glad.h</text>
</a>
</g>
</g>
<!-- Node2&#45;&gt;Node4 -->
<g id="edge3" class="edge">
<title>Node2&#45;&gt;Node4</title>
<path fill="none" stroke="#63b8ff" d="M201.98,-164.51C218.45,-156.27 243.09,-143.96 262.11,-134.45"/>
<polygon fill="#63b8ff" stroke="#63b8ff" points="263.55,-137.64 270.93,-130.03 260.42,-131.38 263.55,-137.64"/>
</g>
<!-- Node5 -->
<g id="node5" class="node">
<title>Node5</title>
<g id="a_node5"><a xlink:title=" ">
<polygon fill="#e0e0e0" stroke="#999999" points="425,-129 345,-129 345,-110 425,-110 425,-129"/>
<text text-anchor="middle" x="385" y="-117" font-family="Consolas" font-size="10.00">GLFW/glfw3.h</text>
</a>
</g>
</g>
<!-- Node2&#45;&gt;Node5 -->
<g id="edge4" class="edge">
<title>Node2&#45;&gt;Node5</title>
<path fill="none" stroke="#63b8ff" d="M218.1,-164.51C251.69,-155.65 303.21,-142.07 340.12,-132.33"/>
<polygon fill="#63b8ff" stroke="#63b8ff" points="340.83,-135.77 349.61,-129.83 339.05,-129 340.83,-135.77"/>
</g>
<!-- Node6 -->
<g id="node6" class="node">
<title>Node6</title>
<g id="a_node6"><a xlink:title=" ">
<polygon fill="#e0e0e0" stroke="#999999" points="140,-74 92,-74 92,-55 140,-55 140,-74"/>
<text text-anchor="middle" x="116" y="-62" font-family="Consolas" font-size="10.00">string</text>
</a>
</g>
</g>
<!-- Node2&#45;&gt;Node6 -->
<g id="edge5" class="edge">
<title>Node2&#45;&gt;Node6</title>
<path fill="none" stroke="#63b8ff" d="M164.72,-164.5C150.98,-157.02 133.36,-145.01 124,-129 116.35,-115.91 114.58,-98.75 114.6,-85.56"/>
<polygon fill="#63b8ff" stroke="#63b8ff" points="118.08,-86.04 114.97,-75.91 111.09,-85.77 118.08,-86.04"/>
</g>
<!-- Node7 -->
<g id="node7" class="node">
<title>Node7</title>
<g id="a_node7"><a xlink:href="../../d7/db4/uuid_8hpp.html" target="_top" xlink:title=" ">
<polygon fill="white" stroke="#666666" points="234.5,-129 133.5,-129 133.5,-110 234.5,-110 234.5,-129"/>
<text text-anchor="middle" x="184" y="-117" font-family="Consolas" font-size="10.00">../uuid/uuid.hpp</text>
</a>
</g>
</g>
<!-- Node2&#45;&gt;Node7 -->
<g id="edge6" class="edge">
<title>Node2&#45;&gt;Node7</title>
<path fill="none" stroke="#63b8ff" d="M184,-164.75C184,-158.27 184,-149.16 184,-140.9"/>
<polygon fill="#63b8ff" stroke="#63b8ff" points="187.5,-140.96 184,-130.96 180.5,-140.96 187.5,-140.96"/>
</g>
<!-- Node7&#45;&gt;Node3 -->
<g id="edge7" class="edge">
<title>Node7&#45;&gt;Node3</title>
<path fill="none" stroke="#63b8ff" d="M159.06,-109.51C135.16,-100.89 98.86,-87.8 72.05,-78.14"/>
<polygon fill="#63b8ff" stroke="#63b8ff" points="73.59,-74.97 62.99,-74.87 71.21,-81.56 73.59,-74.97"/>
</g>
<!-- Node7&#45;&gt;Node6 -->
<g id="edge11" class="edge">
<title>Node7&#45;&gt;Node6</title>
<path fill="none" stroke="#63b8ff" d="M172.46,-109.51C162.54,-101.77 147.99,-90.43 136.14,-81.2"/>
<polygon fill="#63b8ff" stroke="#63b8ff" points="138.6,-78.68 128.56,-75.29 134.29,-84.2 138.6,-78.68"/>
</g>
<!-- Node8 -->
<g id="node8" class="node">
<title>Node8</title>
<g id="a_node8"><a xlink:href="../../d5/d89/fcexceptions_8hpp.html" target="_top" xlink:title=" ">
<polygon fill="white" stroke="#666666" points="290,-74 158,-74 158,-55 290,-55 290,-74"/>
<text text-anchor="middle" x="224" y="-62" font-family="Consolas" font-size="10.00">../../fcexceptions.hpp</text>
</a>
</g>
</g>
<!-- Node7&#45;&gt;Node8 -->
<g id="edge8" class="edge">
<title>Node7&#45;&gt;Node8</title>
<path fill="none" stroke="#63b8ff" d="M190.61,-109.75C195.96,-102.66 203.68,-92.42 210.35,-83.59"/>
<polygon fill="#63b8ff" stroke="#63b8ff" points="213.11,-85.74 216.34,-75.65 207.52,-81.52 213.11,-85.74"/>
</g>
<!-- Node11 -->
<g id="node11" class="node">
<title>Node11</title>
<g id="a_node11"><a xlink:title=" ">
<polygon fill="#e0e0e0" stroke="#999999" points="356,-74 308,-74 308,-55 356,-55 356,-74"/>
<text text-anchor="middle" x="332" y="-62" font-family="Consolas" font-size="10.00">random</text>
</a>
</g>
</g>
<!-- Node7&#45;&gt;Node11 -->
<g id="edge12" class="edge">
<title>Node7&#45;&gt;Node11</title>
<path fill="none" stroke="#63b8ff" d="M209.11,-109.51C233.32,-100.84 270.16,-87.64 297.2,-77.96"/>
<polygon fill="#63b8ff" stroke="#63b8ff" points="298.1,-81.36 306.33,-74.69 295.74,-74.77 298.1,-81.36"/>
</g>
<!-- Node9 -->
<g id="node9" class="node">
<title>Node9</title>
<g id="a_node9"><a xlink:title=" ">
<polygon fill="#e0e0e0" stroke="#999999" points="212,-19 148,-19 148,0 212,0 212,-19"/>
<text text-anchor="middle" x="180" y="-7" font-family="Consolas" font-size="10.00">exception</text>
</a>
</g>
</g>
<!-- Node8&#45;&gt;Node9 -->
<g id="edge9" class="edge">
<title>Node8&#45;&gt;Node9</title>
<path fill="none" stroke="#63b8ff" d="M216.73,-54.75C210.72,-47.5 201.99,-36.98 194.54,-28.02"/>
<polygon fill="#63b8ff" stroke="#63b8ff" points="197.47,-26.07 188.39,-20.61 192.08,-30.54 197.47,-26.07"/>
</g>
<!-- Node10 -->
<g id="node10" class="node">
<title>Node10</title>
<g id="a_node10"><a xlink:href="../../db/d91/fcenums_8hpp.html" target="_top" xlink:title=" ">
<polygon fill="white" stroke="#666666" points="304,-19 230,-19 230,0 304,0 304,-19"/>
<text text-anchor="middle" x="267" y="-7" font-family="Consolas" font-size="10.00">fcenums.hpp</text>
</a>
</g>
</g>
<!-- Node8&#45;&gt;Node10 -->
<g id="edge10" class="edge">
<title>Node8&#45;&gt;Node10</title>
<path fill="none" stroke="#63b8ff" d="M231.1,-54.75C236.92,-47.58 245.33,-37.2 252.56,-28.3"/>
<polygon fill="#63b8ff" stroke="#63b8ff" points="255.21,-30.59 258.79,-20.62 249.77,-26.18 255.21,-30.59"/>
</g>
</g>
</svg>
